<?xml version="1.0" encoding="UTF-8"?>
<svg xmlns="http://www.w3.org/2000/svg" version="1.1" viewBox="0 0 550 82">
  <defs>
    <style>
      .cls-1 {
        fill: #ffd200;
      }

      .cls-2 {
        fill: #fff;
      }
    </style>
  </defs>
  <!-- Generator: Adobe Illustrator 28.7.1, SVG Export Plug-In . SVG Version: 1.2.0 Build 142)  -->
  <g>
    <g id="Layer_1">
      <g>
        <g>
          <path class="cls-2" d="M173.5,74.6c0,.9-.4,1.7-1.2,2.4-.8.7-2,1-3.6,1s-2.9-.3-3.8-1c-.8-.6-1.2-1.4-1.2-2.3V1.4h-7.1v71.3c0,1.1.2,2.2.6,3.2.4,1,1.1,1.9,2.1,2.7,1,.7,2.2,1.3,3.7,1.7,1.5.4,3.4.6,5.6.6s4.1-.2,5.6-.6c1.5-.4,2.8-1,3.7-1.7.9-.7,1.6-1.6,2-2.6h0c.4-1,.6-2,.6-3.1V1.4h-7.1v73.2Z"/>
          <path class="cls-2" d="M207.8,74.7c0,.9-.4,1.6-1.1,2.3-.8.6-2,1-3.8,1-1.5,0-2.7-.4-3.6-1.1-.9-.7-1.3-1.4-1.3-2.3V8.2c0-.6,0-1.2.2-1.7.1-.5.3-1,.7-1.5.3-.4.8-.8,1.5-1,.7-.3,1.6-.4,2.7-.4s2.2.2,2.8.5c.7.3,1.1.7,1.4,1,.3.4.5.9.6,1.4,0,.6.1,1.2.1,1.7v17.7h7.1v-15.2c0-1.2,0-2.4-.3-3.5-.2-1.2-.7-2.3-1.6-3.3-.8-.9-2.1-1.7-3.7-2.3-1.6-.6-3.7-.8-6.5-.8s-5,.3-6.6.8c-1.7.5-2.9,1.3-3.7,2.3-.8.9-1.3,2.1-1.6,3.3-.2,1.2-.3,2.4-.3,3.6v62c0,2.3,1,4.2,2.8,5.7,1.9,1.5,5,2.3,9.5,2.4,2.2,0,4-.2,5.6-.6,1.5-.4,2.8-1,3.7-1.7,1-.7,1.7-1.6,2.1-2.7h0c.4-1,.6-2.1.6-3.2v-18.3h-7.5v20.3Z"/>
          <path class="cls-2" d="M267.8,51.3c-.2-.7-.4-1.4-.7-2.1-.3-.7-.6-1.5-.9-2.3-.7-1.7-1.5-3.3-2.4-4.7-.9-1.4-1.7-2.7-2.4-3.7l-5.8-8.9c-.9-1.4-1.6-2.6-2.2-3.7-.5-1.1-1-2.4-1.4-3.9-.5-1.7-.7-3.3-.8-4.5,0-1.3,0-2.8,0-4.6v-4.6c0-.5,0-1.1.1-1.7,0-.5.3-1,.6-1.4.3-.4.8-.8,1.5-1.1.7-.3,1.6-.5,2.9-.5s2,.1,2.7.4c.6.2,1.1.6,1.4,1,.3.4.5.9.7,1.5.1.6.2,1.2.2,1.7v17.5h7.1v-14.9c0-1.2,0-2.4-.3-3.6-.2-1.2-.7-2.4-1.6-3.3-.8-.9-2.1-1.7-3.7-2.3-1.6-.6-3.8-.8-6.6-.8s-4.9.3-6.5.8c-1.6.5-2.8,1.3-3.7,2.2-.9,1-1.4,2.1-1.6,3.3-.2,1.1-.3,2.3-.3,3.5v3.8c0,1.7,0,3.1,0,4.3,0,1.2.3,2.7.7,4.4.4,1.7.9,3.1,1.3,4.3.5,1.2,1.2,2.6,2.3,4.1l6,9.3c.6.9,1.2,1.7,1.7,2.4.5.7.9,1.4,1.4,2.1.4.7.8,1.4,1.1,2.2.3.8.6,1.6.9,2.5.4,1.2.7,2.3,1,3.2.3.9.4,1.9.4,3.2v17c0,.5,0,1.1-.1,1.7,0,.5-.3,1-.6,1.5-.3.4-.8.8-1.4,1.1-.6.3-1.5.5-2.7.5s-2.1-.1-2.7-.4c-.6-.3-1.2-.6-1.5-1.1-.4-.4-.6-.9-.7-1.4-.1-.6-.2-1.2-.2-1.7v-19.2h-7.1v16.8c0,1.2.1,2.4.3,3.5.2,1.2.8,2.3,1.6,3.3.8,1,2.1,1.8,3.7,2.4,1.6.6,3.9.8,6.7.8s4.9-.3,6.5-.9c1.6-.6,2.8-1.3,3.6-2.3.8-1,1.3-2,1.5-3.2.2-1.1.3-2.3.3-3.5v-14.8c0-1,0-1.9-.1-2.7,0-.8-.2-1.5-.4-2.2Z"/>
          <path class="cls-2" d="M300.5,3.9c-.8-.9-2-1.7-3.6-2.3-1.6-.6-3.8-.9-6.5-.9s-5,.3-6.7.8c-1.7.5-2.9,1.3-3.7,2.3-.8,1-1.3,2.1-1.6,3.3-.2,1.2-.3,2.4-.3,3.6v69.6h7.1v-40h10v40h7.1V10.6c0-1.2,0-2.4-.3-3.5-.2-1.2-.7-2.3-1.5-3.2ZM295.2,8.2v28h-10V8.2c0-.6,0-1.2.2-1.8.1-.5.3-1,.7-1.5.3-.4.8-.8,1.5-1,.7-.3,1.6-.4,2.7-.4s2.2.2,2.8.5c.7.3,1.1.7,1.4,1.1.3.4.5.9.6,1.4,0,.6.1,1.2.1,1.7Z"/>
          <polygon class="cls-2" points="329.9 45 319.3 1.2 313 1.2 313 80.3 320.1 80.3 320.1 26.7 329.8 65 329.8 80.3 337 80.3 337 1.2 329.9 1.2 329.9 45"/>
          <polygon class="cls-2" points="342.1 5.1 350.9 5.1 350.9 80.3 358 80.3 358 5.1 367.2 5.1 367.2 1.3 342.1 1.3 342.1 5.1"/>
          <path class="cls-2" d="M395.5,3.9c-.8-.9-2-1.7-3.6-2.3-1.6-.6-3.8-.9-6.5-.9s-5,.3-6.7.8c-1.7.5-2.9,1.3-3.7,2.3-.8,1-1.3,2.1-1.6,3.3-.2,1.2-.3,2.4-.3,3.6v69.6h7.1v-40h10v40h7.1V10.6c0-1.2,0-2.4-.3-3.5-.2-1.2-.7-2.3-1.5-3.2ZM390.1,8.2v28h-10V8.2c0-.6,0-1.2.2-1.8.1-.5.3-1,.7-1.5.3-.4.8-.8,1.5-1,.7-.3,1.6-.4,2.7-.4s2.2.2,2.8.5c.7.3,1.1.7,1.4,1.1.3.4.5.9.6,1.4,0,.6.1,1.2.1,1.7Z"/>
          <path class="cls-2" d="M441.8,74.7c0,.9-.4,1.6-1.1,2.3-.8.6-2,1-3.8,1-1.5,0-2.7-.4-3.6-1.1-.9-.7-1.3-1.4-1.3-2.3V8.2c0-.6,0-1.2.2-1.7.1-.5.3-1,.7-1.5.3-.4.8-.8,1.5-1,.7-.3,1.6-.4,2.7-.4s2.2.2,2.8.5c.7.3,1.1.7,1.4,1,.3.4.5.9.6,1.4,0,.6.1,1.2.1,1.7v17.7h7.1v-15.2c0-1.2,0-2.4-.3-3.5-.2-1.2-.7-2.3-1.6-3.3-.8-.9-2.1-1.7-3.7-2.3-1.6-.6-3.7-.8-6.5-.8s-5,.3-6.6.8c-1.7.5-2.9,1.3-3.7,2.3-.8.9-1.3,2.1-1.6,3.3-.2,1.2-.3,2.4-.3,3.6v62c0,2.3,1,4.2,2.8,5.7,1.9,1.5,5,2.3,9.5,2.4,2.2,0,4-.2,5.6-.6,1.5-.4,2.8-1,3.7-1.7,1-.7,1.7-1.6,2.1-2.7h0c.4-1,.6-2.1.6-3.2v-18.3h-7.5v20.3Z"/>
          <path class="cls-2" d="M482.2,44.1c-.2-1.1-.9-2.4-2-3.7-.3-.4-.8-.8-1.3-1.1-.5-.3-1-.6-1.5-.8-.2-.1-.4-.2-.7-.3.3-.2.7-.3,1.1-.5.6-.3,1.1-.6,1.7-.9.6-.4,1-.7,1.3-1.1.7-.7,1.2-1.4,1.4-2,.2-.6.3-1.3.3-2.1V11.5c0-1.5,0-3-.3-4.3-.2-1.4-1.2-2.7-2.9-3.7-1-.6-2-1-3.2-1.2-1.1-.2-2.2-.4-3.2-.5-1,0-1.9-.1-2.7-.1h-11.8v78.8h7.1v-40.3h2.3c1.1,0,2,0,2.8.3.8.2,1.7.5,2.6,1,.9.5,1.4,1.2,1.6,2.1.3,1,.4,2.1.4,3.1v33.8h7.3v-32.5c0-1.4-.2-2.7-.4-3.8ZM475.5,9.2v20.9c0,1-.1,2-.4,3-.2,1-.5,1.6-.9,2-.6.5-1.4,1-2.5,1.3-1.1.4-2.3.6-3.6.6h-2.5V4.5h3.3c1.7,0,3.2.2,4.5.7.8.3,1.4.7,1.6,1.3.3.7.4,1.6.4,2.7Z"/>
          <path class="cls-2" d="M509,74.6c0,.9-.4,1.7-1.2,2.4-.8.7-2,1-3.6,1s-2.9-.3-3.8-1c-.8-.6-1.2-1.4-1.2-2.3V1.4h-7.1v71.3c0,1.1.2,2.2.6,3.2.4,1,1.1,1.9,2.1,2.7,1,.7,2.2,1.3,3.7,1.7,1.5.4,3.4.6,5.6.6s4.1-.2,5.6-.6c1.5-.4,2.8-1,3.7-1.7.9-.7,1.6-1.6,2-2.6.4-1,.6-2,.6-3.1V1.4h-7.1v73.2Z"/>
          <polygon class="cls-2" points="532.2 76.3 546.7 1.1 524.7 1.1 524.7 5.1 538 5.1 523.5 80.3 547.5 80.3 547.5 76.3 532.2 76.3"/>
        </g>
        <rect class="cls-1" x="129.2" y=".9" width="1.9" height="80.4"/>
        <g>
          <path class="cls-2" d="M104.1,28.7c-.6-15-12.7-27.3-27.7-28C62.3,0,50.2,9.4,46.8,22.4c-.2.6-1,.9-1.5.5-1.4-1.1-2.9-2.1-4.8-2.9-1.3-.5-2.7-.8-4-1-1.5-.2-2.9-.3-4.4,0,0,0,0,0,0,0-.4,0-.7-.3-.7-.7s0-.4.2-.5c4.6-4.6,11.3-11.1,14.3-14.1.6-.6.2-1.6-.7-1.6h-19.1c-.6,0-1.2.3-1.6.7-2.1,2.4-9,10.2-12.6,14.2-1.7,1.9-3.4,3.9-4.8,6.1-2.4,3.6-4,7.5-4.4,11.9-.2,3.1.1,6,1.1,8.9,1.4,4.1,4,7.3,7.4,9.9,3.7,2.7,7.9,4.3,12.4,4.9,3,.4,6,.3,8.9-.2,3.2-.6,6.2-1.6,9.1-3.3,2.6-1.6,4.9-3.5,6.6-6,.5-.8,1-1.6,1.4-2.4.3-.6,1.2-.7,1.6-.1,5.3,7.4,14,12.3,23.8,12.3,16.5,0,29.8-13.7,29.1-30.3ZM27.2,45.1c-4.4,0-7.9-3.3-7.9-7.7,0-4.6,3.2-8,7.8-8,4.5,0,7.9,3.3,8,7.9,0,4.3-3.4,7.8-7.8,7.8ZM75,44.2c-7.9,0-14.4-6.4-14.4-14.4s6.4-14.4,14.4-14.4,14.4,6.4,14.4,14.4-6.4,14.4-14.4,14.4Z"/>
          <g>
            <path class="cls-2" d="M22.8,73l-5.2-7.5h4.5l2.7,3.9,2.6-3.9h4.5l-5.4,7.5v6.9h-3.7v-6.9Z"/>
            <path class="cls-2" d="M42.6,68.7h-4.4v2.4h4.2v3.2h-4.2v2.5h4.4v3.2h-8.2v-14.4h8.2v3.2Z"/>
            <path class="cls-2" d="M55.9,77.5h-5.2l-1,2.4h-3.9l5.5-14.4h4.1l5.4,14.4h-4l-.9-2.4ZM54.9,74.7l-1.6-4.7-1.6,4.7h3.2Z"/>
            <path class="cls-2" d="M69.1,65.5c1.1,0,2.5.2,3.5,1.3.8.8,1.2,2.1,1.2,3.2s-.4,2.3-1.1,3c-.6.5-1.3.9-2,1l4.5,5.9h-4.6l-3.6-5.5v5.5h-3.7v-14.4h5.8ZM67,72h.7c.6,0,1.4-.2,1.8-.6.3-.3.5-.8.5-1.2s-.2-.9-.5-1.2c-.3-.3-1-.6-1.8-.6h-.7v3.6Z"/>
            <path class="cls-2" d="M79,75.6c.8.8,2,1.5,3.3,1.5s1.2-.2,1.4-.5c.2-.2.4-.5.4-.9s-.1-.6-.4-.9c-.4-.3-.9-.5-1.9-.8l-1-.3c-.6-.2-1.5-.5-2.1-1.2-.7-.8-.8-1.8-.8-2.5,0-1.8.7-2.8,1.3-3.5s1.9-1.4,3.7-1.4,3.1.5,4.4,1.2l-1.5,2.9c-1.1-.9-2-1-2.5-1s-.9,0-1.2.4c-.2.2-.4.5-.4.8s0,.5.2.6c.1.1.4.4,1.2.6l1.1.3c.9.3,1.9.6,2.6,1.4.7.8.9,1.6.9,2.6s-.3,2.6-1.4,3.6c-1.2,1.2-2.7,1.5-4.2,1.5s-1.8,0-2.8-.5c-.2,0-1.1-.4-2.2-1.1l1.6-3Z"/>
          </g>
        </g>
      </g>
    </g>
  </g>
</svg>