<svg viewBox="0 0 214 214.14" xmlns="http://www.w3.org/2000/svg"><g fill="#fff"><path d="M179.22 109.9c-.08-.09-1.65-1.78-4.64-5 .24-1.34.38-2.89.55-5l.26-3.33-1.39.73a26.31 26.31 0 0 0-3.31 3.49q-5-5.37-13-13.71V72.79l18.45 13.57c.53.38 1.11-.47.48-1-3.6-2.74-10.61-7.92-18.92-14v-8.11c0-1 .06-3.17-1-2.49-1.92 1.27-10.65-.33-10.86-.28-.8.23-1.52.37-2.26.54-7.75-5.69-15.65-11.5-22.45-16.53-1.63-1.22-2.23-.43-.65.82 1.2.95 10.77 8 21.65 16a34.74 34.74 0 0 1-8.72.56c-4-4.09-8.15-8.41-12.62-13-1.33-1.33-2.3-.54-1 .86.21.23 4.78 5.06 11.31 11.9-2.1-.24-4.08-.58-6.16-.8-1.22-1.73-2.4-3.36-3.52-4.88-2.06-2.78-2.33-.94-1.09.85.65.94 1.55 2.28 2.62 3.88a30.9 30.9 0 0 0-4.07 0c-.2-.58-.4-1.14-.58-1.65-.78-2.21-2.29-2.91-1.26.64.13.43.26.89.39 1.31a30.15 30.15 0 0 0-3.17 1.1c-.41-2.23-.82-4.46-1.22-6.66s-1.56-2.16-1.18.26.73 4.67 1.1 7a9.63 9.63 0 0 0-3.77 3.32c0-4-.1-7.76-.17-11.34s-1.06-2.24-1.09 0c0 2.66-.05 6.25-.08 10.44a10.6 10.6 0 0 0-4.41-3.1l1-6.15c.38-2.42-.76-2.58-1.18-.26-.37 1.95-.72 3.93-1.08 5.92a13.75 13.75 0 0 0-3.18-.69c.08-.3.18-.62.26-.91 1-3.6-.46-2.9-1.22-.65-.17.48-.35 1-.54 1.57l-4.2.1c1.09-1.63 2-3 2.67-4 1.24-1.8 1-3.64-1.09-.86-1.11 1.51-2.29 3.14-3.51 4.87-2.12.06-4 .13-5.59.2C92 54.67 96.27 50.11 96.47 49.9c1.28-1.4.31-2.18-1-.86-4.2 4.31-8.16 8.38-11.92 12.26-6 .29-8.1.58-10.07.64 11.15-8.22 21.08-15.56 22.3-16.53 1.59-1.25 1-2-.66-.83C88 49.86 79.64 56 71.55 61.93h-.84c-.52 0-.82 0-1.68.08-2 0-6.77.09-8.1 0-.46 0-1.31-.39-1.57-.41-1 0-1.17.59-1.19 1.6v8.64c-8.15 6-15 11.06-18.54 13.75-.63.48 0 1.34.49 1L58.2 73.18v14.4C44.48 102 37.28 109.81 37.11 110c-1 1-.12 1.57.66.83C40.79 108 48.94 99.6 58.24 90c0 6.89 0 14.48.07 22-7.5 12.1-12.86 21-13 21.17-1.23 1.75-1 2.78.29 1.27.29-.35 5.59-8.56 12.68-19.56 0 4.64 0 9.19.07 13.48-1.84.18-4.33.71-5.19 1.78-1 1.25-.72 2.46-.87 4.3a18 18 0 0 1-.65 3.69 10 10 0 0 1-2.63 3.35 10.92 10.92 0 0 0-1.79 3.26c-.87 2.06.41 4.89 1.65 7.17a5.7 5.7 0 0 0 3.29 2.71c4.86.83 5.54-2.63 6.26-4.49l.12-.31c.05 3.22.1 5.18.16 5.29a49 49 0 0 0 6.26-.11l-1.47 4.25c-.89 3.05.61 2 1 .89.6-1.71 1.23-3.44 1.85-5.19l11.66-.62c.91 1.29 2.6 3.31 3.31 4.64l.81 1.48.53 1c.6 1.08 1.18 2.08 1.77 3-.46 2.73-.75 4.39-.83 4.74-1 4.28-.13 4.6 1 .61 0-.18.33-1.58.79-3.95.5.73 1 1.48 1.62 2.25 1.36 1.75 4.18 3.55 10.75 6.49a28.47 28.47 0 0 0 10 2c.14 3.28 1 2.42 1.08 0a49 49 0 0 0 16.42-2.53 20.9 20.9 0 0 0 6.42-4.53 2 2 0 0 0 0 .21c1.09 4 2 3.67 1-.6 0-.1-.07-.34-.12-.65a11 11 0 0 0 1.22-1.87c.34-.7 3.22-6.94-.27-11.5l-.19-.16c-.08-.07-.17-.12-.25-.2s-.43-.35-.64-.53c6.58.28 13.61.61 18.49.8.49 1.34 1 2.71 1.47 4 .4 1.1 1.94 2.12 1-.9 0-.05-.41-1.17-1.09-3.08a35.07 35.07 0 0 0 4.8 0q0-3.43.06-6.7c4.07-.74 5.45-1.74 8.12-4.17 3.09-2.82 5.08-6.58 4.94-10.43.19.3.31.47.35.52 1.26 1.51 1.53.47.29-1.28l-1.1-1.81a12.14 12.14 0 0 0-3.34-5.5c-1.51-2.49-3.36-5.5-5.46-8.9a23.15 23.15 0 0 0 6.22-1.71 13 13 0 0 0 6.31-6.71l.25-.65a12.62 12.62 0 0 0 .4-1.23c1.85 1.86 3.35 3.37 4.3 4.25.9.72 1.78.12.79-.83zm-9.48-8c-1.11 1.3-2.26 2.67-3.22 3.81-.38-1.37-.69-4-1-5.75a13 13 0 0 0-1.16-3.58zm-12.05-12.45l4.19 4.35.07.63a28 28 0 0 1-1.18 11.27c-.72 2.39-1.29 3.23-2.45 3.82l-.74.31q.07-11.65.11-20.38zm-3.87-25.37c.14-1 1.81-1.37 2.08.41.25.93.22 23.6.06 45.83a7.1 7.1 0 0 1-2 .16h-.09c-.02-22.48-.08-45.94-.05-46.4zm-3.13-.08c0-.71 1.6-1 1.5.48.11.39-.08 23.23-.32 45.32l-.75-.33-.09-.68c-.05-2.35 1-2.63.06-3.75a2.63 2.63 0 0 0-1.09-.62c.27-20.99.53-40.04.69-40.42zm-4-1c.41-1.39 1.67-.37 1.64.14s-.13 20.59-.25 41.19c-.52.09-1.17.21-1.75.33.04-11.92.15-25.97.34-41.66zm-.37 42.48l.26-.07s2.17-.71 2.75-.24c.8.63.53 3.48.56 4.48a3.14 3.14 0 0 0 0 1 2.6 2.6 0 0 0 .21.61c.39.81 1.1 1.16 1.16 1.45-.47-.17-.91-.25-1.35-.37h-.05A18.41 18.41 0 0 0 148 112a13.78 13.78 0 0 0-1.75-.17 14 14 0 0 0-1.45 0 9.65 9.65 0 0 0-3.36.79h-.08a5.39 5.39 0 0 0-1 .6l-.17.12a3.93 3.93 0 0 0-.76.77 9.27 9.27 0 0 0-1.14 2.24c-.17-.83-1.09-1.83-1.09-2.49a7 7 0 0 1 2.81-5.45 13.14 13.14 0 0 1 1.22-.87 3.85 3.85 0 0 1 .38-.23c.29-.17.56-.33.83-.46l.38-.19.8-.36.27-.11c1.11-.37 1.94-.58 2.41-.72zm5.19 8.72a3.7 3.7 0 0 0 .33.21c0 2 0 4-.07 5.88a7.56 7.56 0 0 0-2 .35c0-2.33.06-4.69.09-7.06.36.13.72.25 1.1.41zM148 113v8.42l-.35.19a10.36 10.36 0 0 1-1.37.55v-9.41a10.27 10.27 0 0 1 1.72.25zm-3.19-.18v9.79l-.61.14c-2.54.17-3.92-.81-4.24-1.44a10.14 10.14 0 0 1-.6-1.15 5.35 5.35 0 0 1-.26-1.48c0-1.28.69-2.14 1.91-3.7a5.57 5.57 0 0 1 3.81-2.13zm-35.17-45c.44-4.67 12.79-6.29 15-5.72 2 .43 5.41 1.12 7 1.39 0 0 7 1.65 13.24-.65v42a13.47 13.47 0 0 0-5.6 2.53c-2 1.7-3.29 3.62-3.29 6.29 0 1.82.6 3.43 1.55 5.81.53 1.31.9 2.73.94 2.77 1.1 1.89.85 3.45 1.16 5.06.54 2.7 2.19 3.14 2.84 3.3.8.21 1.56.41 2.31.57v3.16l-.55-.05a18.3 18.3 0 0 1-8-2.13l-2.81-1.64c-4.89-2.27-11.48-2.11-14.84-.71-1.77.74-2.82 1.25-3.75 2.55l-.26.35.13.41A23.29 23.29 0 0 0 116 136a8.12 8.12 0 0 1 .19 2.85 5.46 5.46 0 0 1-1.48 3l.12-.08c-1.15.67-1.61 2.18-1.78 4.06a17.89 17.89 0 0 0-3.28 1.88s-.55-79.71-.12-79.82zm12.77 80.74a5.11 5.11 0 0 0 .93 1.34 8.74 8.74 0 0 0 1.41 1.2 16.42 16.42 0 0 0 1.77 1.09l.8.45c.44.24.89.49 1.33.75-.42 0-.85.06-1.32.11l-2 .17c-.44 0-.82 0-1.18.09a12.09 12.09 0 0 1-3.71-.1c-.48-.08-1-.2-1.62-.36a5.51 5.51 0 0 1-2.33-1.28 5.82 5.82 0 0 1-1.58-2.39 7.58 7.58 0 0 1-.34-1.28 7.44 7.44 0 0 1-.12-1.24v-.06a8.37 8.37 0 0 1 .22-1.88 3.69 3.69 0 0 1 .43-1.12.67.67 0 0 1-.1-.05 2.16 2.16 0 0 1 .71-.73 1 1 0 0 0 .29-.27 7.64 7.64 0 0 1 1.4-.18H118.99c.49 0 1 .12 1.51.2a.34.34 0 0 0 .14 0c.69.13 1.41.27 2.15.46a7.09 7.09 0 0 0-.28.81c-.13.4-.26.78-.34 1.14a6.52 6.52 0 0 0-.16 1.18 4.43 4.43 0 0 0 .41 2.02zm.72-2.21a7.81 7.81 0 0 1 .61-2.27l.81-.1c1.64.49 3.32 1.06 5 1.67-2.18.25-4.35.48-6.41.77zm12.49 1.25a47.36 47.36 0 0 0 7 1.35c-5.36.18-12.08.53-17.62.85a4.82 4.82 0 0 1-1.37-1.37c3.97-.3 8.15-.57 12-.76zm-10.37 7.82a2.16 2.16 0 0 1-.75 1.94c-3.66 3-6.56 3.64-13.44 2.72-.7-.1-1.35-.22-2-.37v-4a10.12 10.12 0 0 0 5.74-1.9 7.21 7.21 0 0 1 1.6-.14 10.13 10.13 0 0 0 2.46 1c3.48.93 3.99.95 6.4.82zM113.11 149l-.15.06-1.36-.75c.53-.22 1-.46 1.41-.68a7.35 7.35 0 0 0 .1 1.37zm-4.25.14c3.28.12 5.1 3.36 4.85 3.62-2.39 2.6-7.24 2.73-9.35.1-.36-.51 1.76-3.6 4.5-3.72zm-4.86 1.37c.66.16-.62.61-.62.61a76.9 76.9 0 0 0-8-.77c0-.13-.11-.24-.16-.37s-.13-.39-.19-.59a63.82 63.82 0 0 1 8.97 1.12zm-9.54-3a7.73 7.73 0 0 0-.91-1.85c4.23.63 11 1.77 12.49 2.94-.81.4.14-.21-1.09.88-1.27-.81-5.41-1.48-10.48-1.97zm6.87 4.36c.51.07 1.57.07 1.16.95a42.89 42.89 0 0 0-5.89-.18 11.1 11.1 0 0 1-.58-1c2.59.09 4.51.15 5.32.23zm1.37 2.13c1.9.6 3 1.39 4.84 1.66v3.66a23.94 23.94 0 0 1-3.94-1.78s-1.61-.83-3.79-1.85a7.2 7.2 0 0 1-2.45-2 27 27 0 0 1 5.34.31zM71.26 63.81c.06-.59-.07-.84.92-.82 13.33.23 33.77-4.75 35.66 4.78 0 .38.45 61.18.2 79.87-4.44-1.75-7.87-2.44-15.51-3.4l-1.31-1.82c-1.46-2.15-1.85-3-2.9-3.77L85.49 136c-1.5-1.23-3.26-3-3.63-3.23a31.49 31.49 0 0 0-10.77-4.83c.38-37.94-.15-59.7.17-64.13zM68.86 65c0-2 1.09-1.9 1-.49.12 2.06 0 23.12-.51 63.07-.49-.07-1-.14-1.45-.16.3-23.1.9-59.42.96-62.42zM65 64.49c-.2-1 1-1.42 1.09-.13.14.51-.35 38.58-.42 63.1-.52 0-1 .08-1.48.15.11-24.81.65-62.69.81-63.12zM60.72 64c.11-1.34 2-.71 2 .75-.22 26.58-.52 48.26-.6 63.29l-.46.11h-1c.04-26.49.02-63.59.06-64.15zm-5.36 88.22a3.72 3.72 0 0 1-3.36 1c-.9 0-2.46-1.92-3.36-4a8.55 8.55 0 0 1-.24-3.22 3.53 3.53 0 0 1 .19-1.12 5.14 5.14 0 0 1 .87-1.34 7 7 0 0 0 2.39 1.83l1.94 1.21a8.86 8.86 0 0 0 4 1.51 8.6 8.6 0 0 1-2.43 4.14zm2.36-5.73a7.42 7.42 0 0 1-3.68-.78l-1.77-1c-1-1.26-1.42-1.93-1.42-2.23 0-.05 0-.12.14-.23 1-.87 4.87-.86 7.49-.58 0 1.68 0 3.23.05 4.64a3.86 3.86 0 0 0-.81.19zm3.11 6a49.94 49.94 0 0 1-.24-5.51v-5.3a13.81 13.81 0 0 1 1.51.1c.06 6 .23 9.36.59 9.55s6.44.2 13.78.22l.08.12s.35.54.42.63l.2.44c-8.66.05-16.26.05-16.34-.25zm13.31-4.26c.24.29.55.73.89 1.2-5.85-.24-10.31-.46-10.54-.71a49 49 0 0 1-.25-6.55c.49.11 1 .24 1.5.4a30.25 30.25 0 0 0 .25 5.21c.21.1 3.53.22 8.15.45zm-6.49-4.95c.53.23 1.06.52 1.58.81 0 .08.06.1.1.06a15.89 15.89 0 0 1 3 2.12c-2.88 0-4.71 0-4.65.13-.06-.23-.05-1.4-.03-3.12zM134.21 160a9.9 9.9 0 0 1-.15 1.47c0 .12-.05.23-.07.36a15.72 15.72 0 0 1-.4 1.57c-.17.54-.36 1.06-.56 1.56 0 .1-.07.19-.11.29-.2.5-.41 1-.62 1.41a8.69 8.69 0 0 1-.8 1.34c-1.37 1.75-3.2 3-7.75 5.13-1.29.45-2.58.82-3.84 1.14l-.71.15c-1.06.25-2.1.47-3.12.63l-.45.07c-1.12.17-2.22.29-3.28.38h-.14c-1.15.07-2.27.1-3.36.08a28.8 28.8 0 0 1-3.16-.23l-.57-.07c-.56-.08-1.1-.16-1.63-.27l-1-.24c-.37-.1-.76-.18-1.12-.3a18.41 18.41 0 0 1-2-.74C93.18 171 89 169 87.19 166.54c-.57-.78-1-1.56-1.53-2.34-.32-.49-.65-1-.94-1.5-.54-.93-1.07-1.86-1.62-2.87l-.55-1-.79-1.45c-.56-1.05-1.16-2.12-1.78-3.14-.22-.36-.43-.73-.66-1.08-.08-.16-.79-1.7-.79-1.7l-.06-.12-.47-.64c-.28-.43-.56-.83-.82-1.22s-.55-.8-.8-1.14a13.13 13.13 0 0 0-1.38-1.72c-.11-.12-.31-.26-.45-.4a9.31 9.31 0 0 0-1.2-1h-.06a21.88 21.88 0 0 0-1.9-1.19c-.72-.4-1.48-.8-2.29-1.19-.48-.21-.94-.43-1.43-.63-.65-.29-1.3-.55-2-.79-.5-.17-1-.31-1.48-.46-.75-.23-1.46-.42-2.16-.57-.5-.1-1-.21-1.46-.26a11.35 11.35 0 0 0-1.7-.11h-.44a35.67 35.67 0 0 1-4.64-.17h-.6l-.78.11a8.81 8.81 0 0 0 .55-1.19c.39-1.05.17-2.51.27-3.77a8.42 8.42 0 0 1 1.42-4.19 2.13 2.13 0 0 1 .86-.55l.32-.08c.26-.06.53-.11.82-.15h2.69l1.31-.13h.33l1.1-.25c1.15-.26 2.31-.54 3.54-.71a16.71 16.71 0 0 1 2.15-.17 14.12 14.12 0 0 1 3.21.33 14.38 14.38 0 0 1 1.94.56l.3.1q1 .38 2 .9l.38.2a25.47 25.47 0 0 1 2.33 1.14 3.39 3.39 0 0 1 .34.23c.81.54 1.65 1.15 2.53 1.87h.06l.11.06c.24.13 1.32 1 2.27 1.8L87 139a28.93 28.93 0 0 1 3.61 4.76l1 1.49a20.44 20.44 0 0 1 2 4.37c.07.2.16.4.24.62.19.46.39.93.62 1.41l.51 1c.21.38.42.75.66 1.1s.46.66.71 1c.24.29.48.55.73.8a.69.69 0 0 1 .11.13 8.81 8.81 0 0 0 .75.62l.17.14a5.51 5.51 0 0 0 1 .59l2.13 1.18c.9.49 1.82 1 2.79 1.43l.24.11a19 19 0 0 0 3.24 1.15 12.23 12.23 0 0 0 1.51.31 2.88 2.88 0 0 0 .4.09c7.53 1 13.79 0 16.31-2.68a4.27 4.27 0 0 0 1.21-3.28h.51c2.44-.23 3.37-.31 4.7.86 1.07 1.29 2.06 2.31 2.06 3.8zm21.08-6.71c-.64-.23-14.47-.63-25.56-.89-.74-.38-1.51-.76-2.35-1.16 10.85.11 22.58.19 26.13 0a20.56 20.56 0 0 0 .12-2.31l1.78-.26h.06c-.06 2.33-.12 3.93-.18 4.57zm11.18-25.19a10.64 10.64 0 0 1 2 4.72c.59 3.67.42 6.68-2.54 9.46-.38.37-.75.71-1.09 1l-.64.57c-.12.1-.25.21-.36.32l-.66.52-.3.23-.68.45-.29.18c-.23.14-.48.27-.73.39l-.29.14c-.27.11-.54.23-.84.32a1.51 1.51 0 0 1-.3.1c-.31.1-.63.2-1 .29l-.28.07c-.39.09-.79.18-1.23.26-.48.08-1 .17-1.52.25l-2.08.29c-.78.1-1.54.17-2.31.24-1 .09-2 .15-3 .17h-3.17c-.91-.05-1.79-.1-2.67-.19h-.16a39.13 39.13 0 0 1-11.95-3.07c-.77-.35-1.55-.69-2.33-1s-1.29-.53-1.94-.76a34 34 0 0 0-4.7-1.46 2.3 2.3 0 0 1-.28-.06c-.59-.12-1.17-.21-1.73-.28l-.51-.06a11.84 11.84 0 0 0-1.87 0 9.44 9.44 0 0 0 .72-3.22 3.32 3.32 0 0 0-.05-.64 11 11 0 0 0-.87-2.28c-.27-.59-.55-1.23-.8-1.91a5.36 5.36 0 0 1 2.35-2 18.45 18.45 0 0 1 13.08.49l3.41 1.44a21.9 21.9 0 0 0 8.93 2.7c.86.08 1.63.12 2.42.18l1.55.09h3.76c.81 0 1.57 0 2.28-.1s1.29-.09 1.87-.17 1.17-.13 1.69-.23c.79-.14 1.48-.3 2.1-.47l.33-.09a14.22 14.22 0 0 0 1.57-.54c4.43-1.92 5.11-4.78 5.11-6.39zm-20.25 3.52a9.35 9.35 0 0 0 1.67 0v3.07l-1.64-.13c-.02-.95-.02-1.94-.03-2.99zm3.37 3.22v-3.58a.47.47 0 0 1 .16 0 12.17 12.17 0 0 0 1.83-1c0 1.63 0 3.18-.07 4.67-.51-.07-1.2-.1-1.92-.14zm4.2.08v-6.23c.64-.51 1.29-1.07 2-1.72 0 2.71-.06 5.31-.09 7.77a14.08 14.08 0 0 1-1.91.13zm10.89-7.4c.17 1 .44 4.34-3.75 5.77-1.41.47-2.5.84-3.53 1.11 0-3 0-6 .06-8.79 1.52-1 3.38-1.07 7.07 1.45a4.15 4.15 0 0 1 .15.41zm-.72-2.89c-.73-.14-1.38-.22-2-.29h-.31c-.5 0-1-.07-1.42-.06h-.18c-.47 0-.91.06-1.31.12h-.06a7.5 7.5 0 0 0-1.22.3 7.35 7.35 0 0 0-1.65.78 12.59 12.59 0 0 0-1.76 1.42l-.24.2a10 10 0 0 1-2.18 1.53 11 11 0 0 1-1.73.68 1.27 1.27 0 0 1-.23.08l-.52.19a12.51 12.51 0 0 1-1.25.45 6.72 6.72 0 0 1-3.14.26 4.38 4.38 0 0 1-1.09-.28 5 5 0 0 1-2.88-3.12c-.23-1.2.24-1.4-.2-3.22a9.35 9.35 0 0 0 1.89.35 17.56 17.56 0 0 0 2.31 0 3.84 3.84 0 0 0 .48 0 3.11 3.11 0 0 0 1-.26 11.12 11.12 0 0 0 1.54-.73l.17-.09a12.2 12.2 0 0 1 2.54-1.11 7.76 7.76 0 0 1 1.24-.28 8.11 8.11 0 0 1 1.77 0h1.79a17.77 17.77 0 0 1 3.46.08l.58.1.43.1c.24.06.48.15.73.23l.28.1a6.89 6.89 0 0 1 1 .49c.09 0 .18.12.27.18a8.66 8.66 0 0 1 .74.54c.09.09.19.16.28.24a9.71 9.71 0 0 1 .91.97zm-10.13-4.2v-4.87a18.61 18.61 0 0 0 2.07.83v4.3zm9.18 2.09c-2.72-2-3.9-2-5.5-1.89v-3.82a9 9 0 0 0 1.89.14zm10.66-21a28.21 28.21 0 0 1-1.07 4.5c-.13.4-.26.78-.38 1.09l-.25.64c-1.32 3.34-2.88 5.93-8 7.63a8.06 8.06 0 0 1-1.89.39 8.84 8.84 0 0 1-1.63 0h-.07a18.38 18.38 0 0 1-2-.32l-.79-.18h-.08l-1.06-.24c-.2 0-.37-.12-.55-.17a7 7 0 0 1-4.33-3s-.05 0-.07-.08l-.17-.54v-.22a13.36 13.36 0 0 0 2.52.37 11 11 0 0 0 2.1-.13 9.17 9.17 0 0 0 1.63-.39h.08l.28-.09a6.14 6.14 0 0 0 4.52-4.48c.47-1.56.6-6.33.84-8.9 1.48 3.23 2.26 9.11 2.37 9.72l.33 1.83a12.67 12.67 0 0 0 1.2-1.43c1.49-2.06 2.53-3.5 3.4-4.64.32-.42.62-.79.9-1.12.39-.46.76-.87 1.14-1.24l.09-.08a14 14 0 0 1 1.2-1.07 24.8 24.8 0 0 1-.26 2.09zM56.61 58.9c-.89.45-1.33-.33-.42-.87 2-1.17 33.41-15.25 35.87-16.4 1.48-.7 2.37.27.87 1.08 0 0-34.35 15.19-36.32 16.19zM92.36 39.21s.46.54-.1.69c-.8.2-10.79.66-11.33.66-.37 0-2.88.2-3.67.2-1.8-.22-.53-.61.3-.73 3.19-.47 13.9-1.29 14.8-.82zM158.94 58.8c.88.44 1.32-.33.41-.87-2-1.17-33.41-15.25-35.87-16.4-1.49-.7-2.36.28-.87 1.07 0 0 34.39 15.21 36.33 16.2zM124.3 39.1s-.45.48.12.62c.76.2 10.54.61 11.07.62.36 0 2.82.18 3.59.18 1.76-.2.52-.56-.29-.68-1.02-.14-13.17-1.39-14.49-.74zM91.24 187.18l-.08.3a.5.5 0 0 0-.68.42l-2.59 9.65a.51.51 0 0 0 .39.71l-.09.3-3.82-1 .09-.31c.42.12.67 0 .78-.39l2-7.27c-.39 0-1.23-.08-1.42.41l-.37-.1.73-2.73.37.1c-.07.26.22.38.53.47a.74.74 0 0 0 .93-.61.44.44 0 0 0-.3-.57l.08-.29zM96.6 193.52a2.8 2.8 0 0 1-1.76-2.58c.15-1.66 2.11-3 5.42-2.68 3.58.32 5.3 1.89 5.15 3.49a2.81 2.81 0 0 1-2.27 2.38 3 3 0 0 1 2.17 3.15c-.17 2.06-2.3 3.33-5.91 3s-5.63-2.2-5.47-4a3.19 3.19 0 0 1 2.67-2.76zm2.88 4.89c1.57.13 3-.37 3.12-1.59s-1.23-2-2.8-2.12-3 .38-3.11 1.6 1.23 1.97 2.79 2.11zm.5-5.4c1.75.15 2.6-.39 2.68-1.29s-.66-1.6-2.41-1.75-2.6.38-2.68 1.3.66 1.59 2.43 1.73zM115.59 191.58l-.34-.15c0-.63-1.11-1.26-2.62-1.18-2.19.12-3.31 1.93-3.17 4a5.3 5.3 0 0 1 3.49-1.64c2.68-.13 4.73 1 4.88 3.87.09 1.91-1.69 4-5 4.13-4 .2-5.82-2.39-6-5.23-.19-3.54 1.57-6.62 5.83-6.84a16.62 16.62 0 0 1 3.93.6.54.54 0 0 0 .41-.14l.23.11zm-.41 4.91a2.68 2.68 0 1 0-2.51 2.33 2.41 2.41 0 0 0 2.51-2.33zM121.44 193a2.8 2.8 0 0 1-2.57-1.78c-.46-1.59.9-3.51 4.1-4.43 3.46-1 5.62-.15 6.06 1.4a2.86 2.86 0 0 1-1.27 3.05 3 3 0 0 1 3.16 2.15c.57 2-1 3.93-4.44 4.93s-6-.05-6.54-1.76a3.21 3.21 0 0 1 1.5-3.56zm3-1.69c1.69-.48 2.29-1.29 2-2.17s-1.19-1.24-2.88-.77-2.29 1.3-2 2.18 1.16 1.2 2.85.71zm1.47 5.22c1.5-.43 2.68-1.42 2.34-2.61s-1.86-1.39-3.37-1-2.68 1.41-2.34 2.6 1.83 1.4 3.34.96z"/><path d="M67 137.19l3.21 1.17c.1 0 .16 0 .31-.34h.12l-.92 2.52h-.12c.09-.31.07-.39 0-.42l-4.86-1.78v-.18c.25.06.31 0 .37-.16l2.43-6.71c0-.13.06-.24-.16-.35l.06-.17 1.92.69-.06.18c-.25-.05-.31 0-.36.16zM76.12 140.42h-.09c.07-.19.09-.36-.08-.46l-1.58-1-.74 1.24 2.74 1.63c.09.05.16 0 .38-.3l.11.06-1.38 2.28-.1-.06c.11-.23.12-.31 0-.38l-4.24-2.55.1-.16c.22.1.3 0 .37-.09l3.68-6.11c.07-.12.1-.24-.09-.38l.09-.17 4.24 2.55c.09.06.17 0 .38-.27l.1.06-1.38 2.29-.1-.07c.16-.32.17-.4.07-.45l-2.73-1.64-.65 1.08 1.57 1c.18.11.32 0 .45-.14l.1.06zM77.85 145.51l.12-.14c.2.14.3.09.39 0l4-4.13-1.22-1.18c-.08-.07-.16-.05-.42.18l-.09-.08 1.89-2 .08.08c-.22.28-.24.36-.16.43l3.52 3.41c.08.07.16 0 .43-.19l.08.08-1.89 2-.09-.08c.23-.28.25-.36.17-.44l-1.22-1.18-4 4.12c-.1.1-.15.2 0 .39l-.13.13zM83.48 153.35l.16-.07c.13.21.24.19.37.13l5.2-2.38-.71-1.56c0-.09-.13-.1-.46 0l-.05-.12 2.48-1.13v.11c-.31.17-.37.24-.32.34l2 4.46c0 .1.13.1.46 0l.05.11-2.48 1.15v-.11c.31-.18.36-.26.32-.35l-.71-1.55-5.21 2.39c-.13.06-.21.13-.14.37l-.16.07zM89.4 163.91c-.11.07-.18.17-.06.39l-.15.11-1.19-1.65.15-.11c.17.18.28.14.39.07l2.28-1.72-1.52-2-2.3 1.62c-.11.08-.18.17-.06.39l-.15.11-1.2-1.65.15-.12c.17.18.28.15.39.07l5.77-4.19c.11-.09.18-.17.06-.39l.15-.11 1.2 1.65-.14.11c-.18-.18-.28-.14-.4-.06l-2 1.43 1.56 2.14 2-1.44c.11-.07.18-.16.06-.38l.15-.11 1.2 1.66-.15.1c-.17-.18-.27-.15-.38-.07zM96.41 166.31l-.09-.07c.09-.17.12-.34 0-.46l-1.49-1.09-.83 1.16 2.57 1.87c.09.06.17 0 .43-.26l.08.06-1.56 2.16-.09-.07c.13-.23.14-.31.05-.38l-4-2.91.11-.14c.22.11.31 0 .39-.06l4.2-5.78c.07-.11.11-.22-.07-.39l.11-.14 4 2.91c.09.06.17 0 .4-.24l.1.06-1.57 2.15-.1-.05c.19-.32.2-.4.11-.46l-2.58-1.88-.74 1 1.49 1.08c.16.11.31 0 .45-.11l.1.07zM99.89 170.74c0 .13 0 .23.18.34l-.06.18-1.94-.63.06-.18c.25.05.3 0 .35-.18l2.2-6.78c0-.14 0-.24-.18-.35l.06-.18 3.45 1.13c1.4.45 1.75 1.4 1.21 3.06a2.44 2.44 0 0 1-2.13 1.95l.33 2.77c0 .23.08.33.19.36l-.06.18-2-.64.06-.17c.13 0 .23 0 .29-.21s-.31-2.46-.32-2.8l-.94-.3zm1.3-4l1.58.52a.73.73 0 0 0 1-.56c.14-.44.09-.87-.46-1l-1.59-.52zM110.52 170.26h-.12c0-.21-.07-.37-.27-.38l-1.83-.12-.11 1.42 3.18.21c.11 0 .16-.06.21-.43h.12l-.19 2.66h-.11c0-.26-.05-.34-.16-.34l-4.94-.35v-.19c.24 0 .28-.12.29-.25l.5-7.12c0-.13 0-.25-.26-.29v-.19l4.94.35c.11 0 .15-.08.21-.42h.12l-.18 2.66h-.13c0-.35 0-.43-.14-.43l-3.18-.22-.09 1.26 1.84.13c.2 0 .28-.13.32-.33h.12zM115.9 165.05c0-.12-.1-.21-.34-.18l-.06-.18 3.62-1.1c1-.3 1.95 0 2.39 1.5a1.58 1.58 0 0 1-.42 1.87 1.85 1.85 0 0 1 1.67 1.54 2 2 0 0 1-1.25 2.76l-3.66 1.12-.06-.18c.23-.11.23-.22.19-.35zm2.18 2l1.29-.41c.82-.24 1-.39.82-1s-.42-.6-1.23-.35l-1.29.39zm1 3.24l1.62-.49c.66-.2.86-.52.65-1.16s-.53-.8-1.19-.6l-1.61.5zM128 165.31l-.11.05c-.11-.15-.24-.26-.42-.18l-1.64.84.64 1.28 2.84-1.45c.1 0 .1-.14-.05-.49l.1-.07 1.21 2.38-.1.06c-.15-.22-.22-.26-.31-.22l-4.41 2.25-.09-.17c.21-.14.19-.24.13-.37l-3.25-6.36c-.06-.12-.13-.19-.37-.12l-.08-.15 4.41-2.25c.09-.06.09-.14 0-.47l.1-.05 1.21 2.37-.11.06c-.18-.31-.25-.35-.35-.31l-2.84 1.45.58 1.13 1.64-.83c.18-.1.17-.26.11-.45l.11-.06zM125.29 138.8l3.31.83c.11 0 .17 0 .28-.38h.12l-.65 2.61h-.12c.05-.33 0-.4-.08-.43l-5-1.25V140c.25 0 .31-.08.34-.2l1.73-6.93c0-.14 0-.24-.21-.34v-.18l2 .5v.18c-.24 0-.3.06-.33.2zM129.81 142.23l.07-.17c.24.06.31 0 .36-.15l2.67-6.62c.05-.13.07-.24-.15-.36l.07-.17 1.89.77-.07.16c-.24-.06-.31 0-.36.16l-2.67 6.62c-.06.13-.06.23.15.35l-.06.17zM139.76 142.44l-1.23-.33c-.11 0-.17.08-.23.25h-.11l.56-2.07h.11c0 .19 0 .28.07.3l2.83.76v.18c-.12 0-.18 0-.22.21l-.66 2.45c0 .14-.05.26 0 .28h.05l-.05.19a4.87 4.87 0 0 1-3.39.28c-1.6-.43-2.76-2.14-2-4.82s2.58-3.57 4.18-3.14a3.54 3.54 0 0 1 1.47.77c.28.22.51.55.6.58a.22.22 0 0 0 .16-.09l.1.09-1.15 1.78-.08-.12a.76.76 0 0 0 .05-.16c.08-.28-.75-1-1.54-1.18s-2 .28-2.38 1.88.39 2.57 1.22 2.79a3 3 0 0 0 1.42.07zM149.43 146.08c0 .13 0 .24.26.29v.18l-2-.15v-.16c.26 0 .29-.13.3-.27l.2-2.82-2.57-.19-.2 2.83c0 .13 0 .25.25.29v.18l-2-.13V146c.25 0 .28-.13.29-.26l.5-7.13c0-.13 0-.24-.26-.29v-.18l2 .14v.18c-.24 0-.28.12-.29.26l-.17 2.43 2.57.18.17-2.42c0-.15 0-.26-.26-.3v-.18l2 .13v.18c-.25 0-.29.13-.29.26zM154.48 146v-.18c.25-.08.26-.18.24-.32l-.9-5.66-1.68.28c-.11 0-.14.08-.11.43h-.12l-.43-2.69h.12c.08.35.14.41.24.4l4.84-.77c.11 0 .14-.09.11-.46h.11l.43 2.68h-.11c-.09-.35-.14-.42-.25-.4l-1.68.27.9 5.66c0 .14.06.23.31.23v.18zM54.43 165.62l-.21.23c-.35-.25-.54-.25-.81 0l-6.26 6.48 2.37 2.29c.45.44.66.54 1 .28l.28.26-1.95 2-.28-.27c.18-.3.07-.5-.39-.94l-6.71-6.49c-.46-.43-.66-.53-1-.36l-.28-.26 1.95-2 .27.28c-.25.37-.14.57.32 1l2.37 2.28 6.34-6.4c.27-.27.26-.46-.07-.88l.22-.22zM40.19 158.22l3.71-2.6c.31-.21.34-.41.06-.91l.26-.18 2.4 3.42-.27.18c-.38-.44-.57-.47-.88-.25l-8.18 5.73c-.31.22-.34.4-.06.91l-.26.18-2.39-3.42.25-.18c.38.44.58.48.89.26l3.08-2.16-3.41-4.86-3.08 2.16c-.31.22-.34.41-.06.92l-.26.18-2.39-3.42.25-.18c.39.43.58.47.89.26l8.18-5.74c.31-.22.34-.41.06-.92l.26-.18 2.39 3.41-.25.19c-.38-.43-.58-.46-.89-.25l-3.7 2.6zM34.27 141.93l-2.57-5.77c-.26-.58-.41-.75-.75-.68l-.16-.36 2.46-1.1.16.35c-.28.21-.25.44 0 1l4 9.09-.28.13c-.37-.65-.54-.72-.89-.57l-9.13 4.07c-.35.15-.41.34-.15 1.1l-.29.12-3.91-8.78c-.26-.58-.41-.76-.75-.69l-.16-.36 2.42-1.07.16.35c-.24.2-.21.43.05 1l2.41 5.42L29.6 144l-1.43-3.21c-.25-.58-.41-.75-.75-.69l-.16-.35 2.42-1.08.16.35c-.24.19-.21.43.05 1l1.43 3.22zM16.39 112h.31c.08.51.22.65.6.63l6.64-.23c1.52-.06 2.47-1.16 2.4-3.16s-1.1-3-2.62-3l-6.63.24c-.38 0-.51.15-.56.67h-.32l-.13-3.89h.31c.09.57.23.7.61.69l6.59-.23c2.69-.09 4.49 1.46 4.63 5.55s-1.54 5.77-4.23 5.87l-6.59.22c-.38 0-.51.15-.56.79h-.31zM28.07 99.29h-.31c0-.5-.1-.65-.47-.72L17.42 97c-.38 0-.53 0-.66.43l-.31-.05.71-4.47h.31c0 .38 0 .5.12.52.38.07 7.06-3.69 8.11-3.8v-.06l-6.95-1.1c-.38-.06-.54.06-.67.51h-.31l.58-3.69h.31c0 .47.11.63.48.69L29 87.55c.43.07.52 0 .64-.4h.31l-.62 4-.31-.06c0-.27 0-.53-.23-.56-.38-.06-6.64 3.68-8.78 4.22v.06L27.68 96c.37.06.53-.05.66-.47h.31zM31.35 83.38l-.31-.1c.19-.77.1-.94-.26-1.06l-9.5-3.08c-.36-.12-.53 0-.85.71l-.29-.1 1.42-4.39.3.1c-.18.78-.09 1 .27 1.07l9.5 3.08c.36.12.53 0 .84-.71l.3.1zM35.46 72.39l-.28-.13c.17-.35.12-.68 0-.75s-7.73-.32-10.72-.61c-.48-.05-.91 0-1.11.23L23 71l1.69-3.48.29.14c-.13.42-.09.59.09.68.4.2 5.91.34 8.63.64-2-2.16-5.65-6.21-6-6.36-.12-.05-.24 0-.54.45l-.16-.2 1.62-3.33.29.14c-.09.47.09.66.48 1.09 2.62 2.92 6.68 7.52 7.22 7.79.18.08.4-.06.57-.4l.28.14zM41.51 58.42l3.8-5c.38-.51.46-.72.24-1l.23-.31 2.15 1.62-.23.27c-.32-.13-.5 0-.89.51l-6 7.94-.25-.19c.4-.64.37-.83.07-1.05l-8-6c-.31-.23-.5-.2-1 .4l-.24-.2 5.78-7.67c.38-.51.46-.73.24-1l.23-.3L39.75 48l-.24.31c-.28-.11-.46 0-.84.52L35.1 53.6l2.33 1.76 2.11-2.82c.38-.5.46-.72.24-1l.23-.3 2.12 1.58-.24.31c-.28-.11-.46 0-.85.54l-2.11 2.8zM50.22 50.65l-.22-.23c.3-.37.31-.56.06-.84l-6.7-7.42c-.25-.28-.45-.29-.88 0l-.21-.23 5.1-4.59c2.24-2 4.43-2.31 5.78-.81 1.14 1.26 1.23 2.88-.07 4.55l3.92 1.1c1.13.35 1.48.54 1.94.23l.21.23-3 2.72-.21-.24c.21-.21.35-.43.21-.58s-.17-.15-.71-.29l-4.09-1.14-1.86 1.67 2.67 3c.26.29.45.29.89 0l.21.24zm-2-7.27l2.34-2.11c1.24-1.12 1.38-2 .72-2.77s-1.58-.68-2.82.44l-2.35 2.11zM61.6 36.8l.4-.09a1.44 1.44 0 0 0 .07.22c.41.67 2.63 0 4-.81 2.17-1.3 2.53-2.33 2-3.23-1.27-2.11-7.88 3.76-10 .17-.91-1.52-.39-3.74 2.69-5.59a10.63 10.63 0 0 1 3.08-1.29 8.7 8.7 0 0 0 1.51-.36.81.81 0 0 0 .4-.56h.23l-.31 3.42-.4.08c0-.06-.1-.22-.17-.34-.26-.44-1.72-.51-3.67.66-1.34.81-1.56 1.67-1.17 2.32 1.23 2 7.76-3.92 10.14 0 1 1.57.22 4.2-3.45 6.4a11.46 11.46 0 0 1-3 1.25 7.66 7.66 0 0 0-1.69.44c-.14.08-.17.26-.24.51h-.3zM75.38 33.29l-.12-.29c.71-.36.78-.54.64-.89l-3.74-9.27c-.14-.35-.32-.42-1.08-.2l-.08-.28 4.27-1.73.12.3c-.71.35-.79.53-.64.89l3.74 9.26c.14.35.31.43 1.08.2l.12.28zM86.64 29.21l-.07-.31c.39-.17.49-.32.39-.7l-2.18-8.74-3.19.8c-.62.16-.81.28-.78.73l-.38.09-.68-2.72.38-.09c.16.31.39.32 1 .17l9.06-2.27c.62-.15.81-.26.81-.61l.37-.09.68 2.71-.37.09c-.19-.41-.42-.42-1-.27l-3.2.8 2.18 8.74c.09.36.26.47.78.4l.08.31zM105 26.36l-4.06.29v-.31c.52-.11.65-.25.62-.63l-.28-4-4.68-5.8a1.09 1.09 0 0 0-.71-.43v-.31l4.27-.29v.31c-.42 0-.6.15-.59.35s2 2.48 3.11 3.85c.67-1.39 2.46-3.81 2.43-4.21 0-.22-.15-.28-.68-.29v-.31l4.06-.28v.31a1.16 1.16 0 0 0-.68.56L104 21.54l.28 4c0 .38.17.5.69.53zM137.52 19.28c4 1.37 5.37 4.67 4.27 7.85s-4.22 4.92-8.2 3.54-5.37-4.66-4.27-7.84 4.22-4.91 8.2-3.55zm-3.31 9.62c2.31.79 4.11-.15 5-2.67s0-4.37-2.29-5.16-4.12.13-5 2.66-.03 4.37 2.29 5.17zM142.42 34.06l.15-.27c.69.3.87.25 1.06-.08l4.84-8.71c.19-.32.13-.51-.53-1l.15-.27 8.43 4.67c.47.26.7.31.94.06l.33.19-1.3 2.35-.34-.19c.09-.33-.07-.5-.55-.77l-5.21-2.88-1.39 2.56 3.27 1.8c.55.31.77.36 1 .06l.34.19-1.32 2.36L152 34c.08-.31-.08-.48-.63-.79l-3.26-1.81L146 35c-.18.33-.13.52.56 1l-.15.27zM181.58 52.86l-3.23.34-.09-.25a.5.5 0 0 0 .19-.13c.62-.52.32-2-.6-3.08-1.7-2-3.65-2.47-6-.51a3.9 3.9 0 0 0-.44 5.76c1 1.17 2.49 1.71 3 1.23a2 2 0 0 0 .3-.38l.27.19-.38 3.34h-.3a.76.76 0 0 0-.12-.51c-.41-.49-2.16-.12-4.44-2.85-2.69-3.19-2.15-6.81.29-8.86 3.19-2.67 6.9-1.33 9.16 1.37a6.81 6.81 0 0 1 1.46 2.48 7.17 7.17 0 0 0 .38 1.33 1.43 1.43 0 0 0 .54.33zM174.53 61.77l.27-.16a.72.72 0 0 0 .75.25l10.33-1.14a2.47 2.47 0 0 0 .78-.15c.12-.07.14-.21 0-.66l.27-.15 2.22 4-.28.15c-.21-.35-.41-.43-.61-.32a4.56 4.56 0 0 0-.64.73l-6.24 8c-.28.35-.3.48-.19.77l-.27.15-1.87-3.24.28-.16c.21.29.31.39.45.31a.68.68 0 0 0 .28-.28l1.38-1.77-2.39-4.32-2 .22a.92.92 0 0 0-.41.11c-.18.09-.29.31-.08.73l-.27.15zm8 5l3.23-3.87-5 .72zM192.32 72.63c.36-.12.44-.3.28-1l.3-.11 1.47 4.26-.3.1c-.32-.73-.5-.82-.85-.69l-8.52 2.93 2 5.72c.2.59.33.78.81.71l.12.36-2.66.91-.13-.36c.29-.19.28-.42.08-1l-3.12-9 .3-.09c.27.57.44.66.8.53zM185.83 88.34l.31-.07c.22.78.37.89.75.82l9.81-1.92c.36-.07.47-.23.38-1l.32-.07.88 4.53-.31.07c-.22-.78-.38-.88-.75-.81l-9.81 1.91c-.37.07-.47.23-.39 1l-.31.06zM187.33 96.19h.32c.12.73.26.86.64.84l10-.7c.38 0 .51-.16.52-1h.31l.67 9.61c.05.55.12.77.47.83v.38l-2.68.19v-.38c.32-.11.38-.33.34-.88l-.42-5.95-2.9.21.26 3.72c.05.63.13.85.51.9v.39l-2.7.18v-.38c.3-.11.35-.33.31-1l-.26-3.72-4.2.29c-.38 0-.5.18-.51 1h-.32zM199.1 117.48c-.52 4.17-3.46 6.21-6.79 5.81s-5.69-3.1-5.18-7.28 3.46-6.22 6.8-5.81 5.68 3.11 5.17 7.28zm-10.1-1.24c-.3 2.43 1 4 3.65 4.32s4.28-.88 4.58-3.31-1-4-3.64-4.32-4.29.89-4.59 3.31zM185.6 126.17l.3.1c-.09.47 0 .63.35.76l9.44 3.25c.36.13.53 0 .76-.43l.3.1-2.23 6.49c-1 2.86-2.77 4.17-4.67 3.52-1.62-.56-2.47-1.93-2.15-4l-3.91.92c-1.15.25-1.56.25-1.8.75l-.29-.11 1.32-3.84.3.1c-.08.29-.1.55.09.62s.22 0 .76-.1l4.14-1 .81-2.37-3.77-1.3c-.36-.13-.53 0-.76.44l-.3-.11zm5.3 5.37l-1 3c-.55 1.6-.23 2.46.7 2.78s1.72-.16 2.26-1.75l1-3zM180.13 141.16l.28.16c-.2.47-.15.65.18.85l8.65 5a.52.52 0 0 0 .76-.17l.28.15-2.28 3.92-.27-.15c.17-.35.18-.47.06-.54-.32-.18-7.92.93-8.93.66l6.1 3.52c.32.18.51.14.8-.24l.28.16-1.87 3.23-.28-.15c.18-.44.13-.63-.2-.81l-8.65-5c-.39-.22-.52-.14-.75.14l-.27-.17 2-3.46.28.15c-.1.26-.19.5 0 .61s7.51-1.06 9.71-.79v-.06l-6.71-3.87c-.33-.19-.51-.14-.79.21l-.27-.15zM171.4 154.88l.24.2c-.45.67-.43.86-.14 1.1l7.77 6.28c.3.24.49.22 1-.36l.25.2-2.91 3.59-.24-.2c.44-.66.42-.85.13-1.09l-7.77-6.29c-.3-.23-.48-.21-1 .36l-.24-.2zM166.79 160.66l.21.23a.72.72 0 0 0-.06.78l3.61 9.76a2.53 2.53 0 0 0 .34.72c.1.11.23.09.63-.21l.21.23-3.36 3.12-.21-.23c.29-.29.32-.5.16-.68a5.06 5.06 0 0 0-.87-.44l-9.23-4.14c-.4-.18-.54-.17-.79 0l-.21-.23L160 167l.21.24c-.23.27-.3.4-.19.52a1.12 1.12 0 0 0 .34.2l2.05.9 3.62-3.37-.7-1.88a1.1 1.1 0 0 0-.2-.37c-.14-.15-.38-.2-.73.1l-.22-.24zm-2.9 8.94l4.54 2.21-1.9-4.66zM24.48 122.74a1.85 1.85 0 1 0 1.85 1.85 1.86 1.86 0 0 0-1.85-1.85zM58.47 175.67a1.85 1.85 0 1 0 1.84 1.84 1.85 1.85 0 0 0-1.84-1.84zM80.69 188.26a1.85 1.85 0 1 0 1.85 1.85 1.85 1.85 0 0 0-1.85-1.85zM134.55 187.5a1.85 1.85 0 1 0 1.84 1.84 1.84 1.84 0 0 0-1.84-1.84zM153.65 176.53a1.84 1.84 0 1 0 1.84 1.83 1.84 1.84 0 0 0-1.84-1.83zM163.22 38.51a1.85 1.85 0 1 0 1.85 1.85 1.85 1.85 0 0 0-1.85-1.85zM120 19.47a1.85 1.85 0 1 0 1.83 1.85 1.85 1.85 0 0 0-1.83-1.85zM84.41 134h2.45a17.46 17.46 0 0 1 3 .31c.36.07.6 1.07.13 1-2.69-.24-1.7 0-4.23-.31s-1.35-1-1.35-1zM94 134.4c.71-.13 8 .92 8.52 1.41 0 0 .32.16.13.64-.47.75-1.82-.59-7-.81-1-.15-2.57.12-2.47-.67.08-.3.5-.51.82-.57zM78.9 76c-.33.26-.36 1.33-.49 1.65s-1 0-.92-.15c0 0 .27-1.9.43-2.43-.19-.11 2.14.13 2.06-.08a7.37 7.37 0 0 0-.55-2.37 8.4 8.4 0 0 0-.62 2.45h-.89s.68-4.24 1.4-4.28c.14 0 .58-.16.76.11a52.71 52.71 0 0 1 1.84 6.51c-.27.23-1.19.44-1.22.07a3.23 3.23 0 0 0-.4-1.48 2.65 2.65 0 0 0-1.4 0zM84.48 91.85c-.24.72-1.84.34-2.93.35-2.73 0-5.8.32-5.8-.39-.2-1.18 3.31-.73 4.62-.72 1.95.09 4.47-.33 4.11.76zM88.64 91.73c-.3.52-1.09.48-2.19.39-.36 0-.52-.06-.64-.32 0-.72 1.07-.68 2.39-.66.36.04.61.3.44.59zM93.91 92.05c-.3.18-3.22.42-3.43-.21s1.2-.74 2.52-.73 1.31.72.91.94zM104 94c-.37.39-3.55-1.28-5.14-1.68-1.08-.25-1.94 0-2.85-.1-.64-.12-.33-.77.26-1 1.94-.5 8.36 2.11 7.73 2.78zM82.64 97c-.25.69-1.83.33-2.92.35-2.7 0-3.93.07-4-.9 0-.72 1.52-.2 2.81-.19 1.96.08 4.47-.33 4.11.74zM89.8 97c-.23.71-1.85.34-3 .35-2.67 0-2.72 0-2.8-.4s.3-.71 1.62-.7c2 .11 4.55-.31 4.18.75zM94.5 97.17c-.32.52-1.19.21-2.34.21-.38 0-.55-.06-.67-.32 0-.74 1.12-.69 2.51-.68.37.04.67.49.5.79zM104.15 99.33c-.18.89-1.72-.7-3.22-1.07-1.07-.25-3.53-.41-4.44-.55-.64-.1-.6-.78 0-.88 3.15-.51 7.86 1.62 7.66 2.5zM104.48 104.56c0 1.18-2.36-.28-3.77-.48a19.75 19.75 0 0 0-4.83-.15c-.65.08-.58-1 0-1.05 1.44-.25 8.6.82 8.6 1.68zM93.47 103.2c-.31.49-1.45.37-2.55.28a.83.83 0 0 1-.73-.44c0-.7.65-.74 2-.72s1.44.6 1.28.88zM83.54 102.91c-.29.47-2.11.26-3.13.08-2.68-.48-4.88.78-4.93-.32 0-.82 2.64-.62 3.94-.6 1.96.09 4.77-.24 4.12.84zM88.41 103c-.3.58-1.08.54-2.17.43-.34 0-.58-.06-.7-.34 0-.82 1.13-.79 2.43-.76.36.03.61.33.44.67zM91 69.21c.09.74-1.87.37-3.23.55-2.72.34-3 .59-2.77 0 .44-1.29 5.88-1.55 6-.55zM92.49 69.7c-.15-.1-.39-.38 0-.73a2.86 2.86 0 0 1 3.12.18c.36.43-.14.82-.47.82a11.81 11.81 0 0 1-2.65-.27zM103.68 72.39c-.29.29-2.3-1.06-3.34-1.43-1.63-.58-3.36-.5-3.33-1.35.07-1.61 8.17 1.39 6.67 2.78zM90.3 80.87c-.16.34-1.56.06-2.78.12s-2.14.37-2.23-.42 1.35-.52 2.68-.5 2.85-.21 2.33.8zM91.71 81.05c-.42-.09-.4-.48 0-.8a10.85 10.85 0 0 1 3.3 0c.57.14.35.89-.13.9-2.72-.08-2.43-.02-3.17-.1zM103.68 83.51c-.31.24-1.61-.59-2.87-.88a6.29 6.29 0 0 1-1.92-.58c-.57-.2-.23-.83 0-.94s6.11 1.39 4.79 2.4zM98 81c-.13.9-1 .56-1.42.43a.48.48 0 0 1-.17-.73c.28-.35 1.52.04 1.59.3zM87.06 75.38c.37.82-1.09.91-1.48.79a.5.5 0 0 1-.17-.74c.32-.43 1.4-.28 1.65-.05zM89.19 75.88a.51.51 0 0 1 .07-.8 11.12 11.12 0 0 1 4.66 0c.87.48.37 1 .06 1-2.12-.29-4.36.06-4.79-.2zM101 77.16c-.29.29-2.55-.53-3.66-.63s-1.91-.3-2-.63c0-.8 1.85-.66 3.44-.32s2.98.87 2.22 1.58zM103.86 77.84c-.14.91-1 .43-1.35.3a.66.66 0 0 1-.24-.87c.33-.39 1.73.3 1.59.57zM76.27 85.21c1.65-.38 2.74 1.65.39 1.28-.83-.13-.91-.33-.92-.61s-.02-.55.53-.67zM88.34 85.92c-.25.71-3.74.47-4.85.48-2.74 0-3.75.07-4-.41 0-.73 1.54-.69 2.86-.68s6.36-.45 5.99.61zM94 86.36c-.2.26-.49.13-1.61.18s-2 .06-2.08-.43c0-.71 1.21-.73 2.53-.72s1.5.53 1.16.97zM100.87 87.57c-.82.65-1.26-.41-2.67-.59-1.1-.14-2.22-.11-3.12-.27-.58-.31-.37-.94.23-1.09 3.39-.22 6.38 1.29 5.56 1.95zM103.46 88.71c-.09.73-.7.78-1.28.31-.24-.09-.49-.64-.27-.89s1.38-.03 1.55.58zM103.38 109.86c-.35.77-2.87-.46-4.64-.53-1.24 0-1.92.08-2.09 0a.52.52 0 0 1 0-1c2.02-.33 7.15.59 6.73 1.53zM91.49 108.71c-.31.51-1 .26-2.15.16-.36 0-1.8.42-2.25-.07-.15-.85 1.84-.94 2.58-.89 1.33-.02 1.99.52 1.82.8zM84.18 108.69c-.32.58-4-.06-5.06-.1-2-.08-3.37.67-3.38-.46.33-.7 3.77-.33 4.54-.31 1.94.07 4.41-.03 3.9.87zM95.07 108.22c.37.8-1.09.91-1.48.78a.49.49 0 0 1-.17-.74 1.56 1.56 0 0 1 1.65-.04zM116.28 69.44c1.56 0 1.77.39 1.59.91-.2.36-2.12.21-2.68.23-1.9 0-2.79 1.21-3.49 1s-.37-.9.52-1.27a10.66 10.66 0 0 1 4.06-.87zM120.38 69.28a12.15 12.15 0 0 1 2.71.38c.64.39.51.83.25 1a17.94 17.94 0 0 1-3.35-.25.57.57 0 0 1-.38-.51c-.03-.39.12-.59.77-.62zM140.15 69.65c.67.11.9 1.19.27 1.28-2.36.33-2.81.21-2.84-.13-.67-1.39 2.42-1.17 2.57-1.15zM131.82 70.14a27.47 27.47 0 0 1 3.25.19.63.63 0 0 1 .25 1c-.25.32-3.67.41-3.95-.75 0 0-.11-.41.45-.44zM125.94 69.92s2.37.17 2.94.31c.25.08.89.42.55.88s-3.66.41-4-.75c.05 0-.05-.36.51-.44zM119.94 75.58c.26-.73 2.28-.57 2.82-.15a.57.57 0 0 1-.13.59c-1.28.57-2.86.03-2.69-.44zM125.68 75.88c.6-.45 3 0 2.33.91a4.64 4.64 0 0 1-2.5 0c-.13-.03-.44-.45.17-.91zM134 76.28c.9 1.07-2.12 1.06-2.46 1s-1.05-.15-1.16-.51c-.12-1.01 2.95-1.22 3.62-.49zM140.43 75.75c.43 1.43-2 1.23-2.36 1.23s-1.06-.06-1.2-.41c-.17-1.01 3.27-1.73 3.56-.82zM116.33 74.51c.58 0 1.9 0 2 .7-.47.87-3 .67-3.57.77-2.24.36-2.79 1.22-3.5 1s-.37-.9.53-1.26a15.66 15.66 0 0 1 4.54-1.21zM127.27 81.22a.68.68 0 0 1-.22.7c-.22.31-2.46.2-2.87-.58-.07-.13-.05-.8.71-.64s2.28-.53 2.38.52zM129.68 80.79c.22-.05 4.12 0 3.1 1.14a1.17 1.17 0 0 1-.77.39 9.19 9.19 0 0 1-3-.39c-.16-.14-.15-.41 0-.76a.82.82 0 0 1 .67-.38zM135.15 80.83c2.92.58 5-.35 5.34.33s0 .76 0 .76c-.39.32-6 .47-6.18-.43-.09-.44.55-.71.84-.66zM122.12 80.7c.64 1-1.43.85-1.67.82s-.79-.16-.87-.48c-.06-.96 2.05-1.13 2.54-.34zM115.46 79.94c.59 0 1.55-.28 1.91.55-.53 1.06-1.74.48-3.57.77-2.25.37-2.27 1-2.85.52s0-.84.91-1.2a11.06 11.06 0 0 1 3.6-.64zM118.71 85.75a3 3 0 0 1 1.4.42.48.48 0 0 1 0 .77c-2.81.37-2.7-.26-2.7-.26-.21-.98.89-1.02 1.3-.93zM140.44 86.21c1.3.64-.84 1.36-2.23 1a.94.94 0 0 1-.51-.39c-.23-.82 2.18-.89 2.74-.61zM124.52 85.74a.64.64 0 0 1 0 1.27c-.25.07-2.87.49-3-.38.07-1.47 2.76-.95 3-.89zM136.63 86.53c.22.88-.58.77-1.35.71-1-.08-3.78.25-3.64-.44.11-.54 1.22-.25 1.57-.4.9-.4 3.29-.4 3.42.13zM129.7 87.09c-.3.61-3.11.29-2.71-.64.13-.31 3.01-.75 2.71.64zM114 85.32c.58 0 1.79-.07 2 .82-.85.72-1.78.19-3.6.58-1.66.36-2 .71-2-.2.05-.62 1.98-1.2 3.6-1.2zM118.09 91.26a8 8 0 0 1 3 .11.64.64 0 0 1 .3.95c-.21.34-3.57.44-3.56-.52a.42.42 0 0 1 .26-.54zM123.78 91.7c.75-.28 3.46.4 2.26 1.35a4.33 4.33 0 0 1-2.68-.49c-.13-.1-.36-.56.42-.86zM128.77 91.86c.64-.23 2.93.33 1.91 1.1a2.93 2.93 0 0 1-2.12-.11.6.6 0 0 1 .21-.99zM135.28 92.3c-.86.11-1.93.38-2 .78.09.48.63.39 2.38.32.88 0 3.29.34 3.94.19s.7-.75.45-.77c-1.42-.13-2.69-.82-4.77-.52zM114.29 91.23c.58 0 1.8-.31 1.76.66-.58.87-1.65.53-3.47.9-1.66.37-2.06.62-2-.28.02-.62 2.05-1.28 3.71-1.28zM118.75 98h1.38c.69 0 .41.86.32 1a3.91 3.91 0 0 1-1.9.24c-.38 0-1.08-.25-1.13-.8.14-.59.83-.44 1.33-.44zM123.27 98c.21 0 3.78 0 2.85 1a1.2 1.2 0 0 1-.72.31 9.77 9.77 0 0 1-2.72-.31c-.15-.12-.14-.35 0-.64a.76.76 0 0 1 .59-.36zM128.8 98.21c.7-.31 3 .66 2.07 1.39a4.53 4.53 0 0 1-2.45-.5c-.11-.1-.31-.6.38-.89zM133.75 98.66c.22 0 4.12 0 3.1 1.15a1.13 1.13 0 0 1-.78.37 9.28 9.28 0 0 1-3-.37c-.16-.15-.16-.43 0-.77a.81.81 0 0 1 .68-.38zM114 97.66c.81-.06 2-.39 2 .59-.58.87-1.23.49-3.06.88-1.66.36-2.06.62-2-.3.06-.61 1.44-1.05 3.06-1.17zM138.75 99c.64-.24 2.92.33 1.91 1.11a3 3 0 0 1-2.13-.11c-.1-.12-.43-.8.22-1zM125.61 104.24c.2 0 3.79 0 2.85 1a1.12 1.12 0 0 1-.71.32 9.91 9.91 0 0 1-2.74-.32c-.13-.12-.13-.34 0-.63a.77.77 0 0 1 .6-.37zM131.47 104.8c1.12-.14 3.21.19 2.95 1.14-.11.65-.75.12-1.18.14-.79 0-3.24.38-3-.71.06-.45.97-.53 1.23-.57zM135.88 106c0 .67 2.74 1.47 2.74.46 0-.34-2.46-1.85-2.74-.46zM122.63 104.1a7.85 7.85 0 0 0-2.74-.27.65.65 0 0 0-.32.9c.16.32 3.25.73 3.27-.14a.41.41 0 0 0-.21-.49zM115.2 103.7c.59 0 3.1 0 3.07 1-.34.81-2.32 0-4.8.34-1.68.22-2.06.63-2-.29.02-.6 2.08-1.04 3.73-1.05zM121.19 109.56c.75-.28 3.66.3 2.46 1.25a4.81 4.81 0 0 1-2.89-.39c-.13-.1-.35-.56.43-.86zM126.79 110.3c.64-.24 2.92.32 1.91 1.1a3.78 3.78 0 0 1-2.26-.41c-.11-.07-.3-.46.35-.69zM133.84 111.41c.6 1.14-1.82.87-2.08.81s-.83-.24-.88-.61c.04-1.01 2.54-.98 2.96-.2zM135.41 112.18c0 .67 1.6 1.11 1.6.09-.01-.34-1.33-1.5-1.6-.09zM112 109.86c.21-.07 6.63-1 6.35.24 0 .21.26.47-3.26.6-.89 0-3.47.55-3.73.32s-.48-.72.64-1.16zM119.16 120.4a8 8 0 0 1 2.94.27.63.63 0 0 1 .25 1c-.23.32-3.59.25-3.52-.71a.41.41 0 0 1 .33-.56zM125.5 121.18c.2 0 3.78.22 2.79 1.09a1.16 1.16 0 0 1-.73.29 9.24 9.24 0 0 1-2.71-.46c-.13-.13-.12-.36 0-.65a.85.85 0 0 1 .65-.27zM132.05 123.09c-.94-.19-2.54-.59-2.22-1.21s1.26.12 1.64.09c2.06-.2 2.34 1.48.58 1.12zM137.21 123.62c-1 0-2.61-.34-2.44-1s1-.09 1.35-.21c2.55-.85 2.88 1.17 1.09 1.21zM116.38 120.76c.13.69-.81.54-2.52.51s-2.88 1.37-3.29.4c-.14-.33.22-.65 1.11-1s4.55-.61 4.7.09zM120.25 114.92c.15 0 2.79 0 2.1.93a.74.74 0 0 1-.53.31 5.18 5.18 0 0 1-2-.31.61.61 0 0 1 0-.62.5.5 0 0 1 .43-.31zM124.47 115.27c.69-.3 4.46.3 3.27 1.55-.19.05-3.13-.19-3.66-.65-.08-.11-.31-.6.39-.9zM132.66 116.32c.62 0 3.42.45 3.25 1.38 0 .21-1 .17-1.43.07a14.52 14.52 0 0 0-3.51-.57c-.5 0-.48-.48-.32-.83s1.71-.03 2.01-.05zM117.49 115.51c.1 1-1.39.57-3.1.53s-2.86 1.18-3.27.22c-.14-.35.22-.67 1.1-1s5.2-.47 5.27.25zM135.2 126.85c.23 0 4.11.25 3 1.31a1.18 1.18 0 0 1-.79.34 9.23 9.23 0 0 1-2.94-.53c-.15-.16-.13-.43.05-.77a.77.77 0 0 1 .68-.35zM132.55 127.61c-.32.6-3.12.13-2.67-.78.12-.31 3.04-.6 2.67.78zM125.43 126c.2 0 3.77.21 2.78 1.1a1.21 1.21 0 0 1-.72.29 9.45 9.45 0 0 1-2.71-.47c-.14-.12-.12-.35 0-.64a.81.81 0 0 1 .65-.28zM121.9 125.75c.6 1.08-1.46.77-1.71.73s-.78-.19-.83-.52c-.01-.96 2.1-1.02 2.54-.21zM114.44 125.3c.58 0 1.9-.4 1.85.58-.57.87-1.64.52-3.47.92-1.65.34-2 .6-2-.31.03-.61 1.96-1.19 3.62-1.19zM111.66 131a7.63 7.63 0 0 1 3-.35c.25.06.52.28.25.79a9 9 0 0 0-3.3.58s-.32-.79.05-1.02zM88 113.61c1-.23 3.45 1 .8 1.21a5 5 0 0 1-1.8-.12c-1-.96.69-1.03 1-1.09zM85 114.25c0 .57-2.82.54-5 .4-2.65-.18-4.27.09-4.25-.67.14-1 2.66-.33 4-.32 1.91.11 5.3-.66 5.25.59zM100.09 115.18c-.18 1-4-.29-5.76-.36-1.23 0-2.31-.1-2.48-.13a.52.52 0 0 1 0-1c1.34-.27 8.37.76 8.24 1.49zM103.57 117.2c-.32.49-.8 0-1.72-.26-.35-.09-.79-.29-.63-.86.46-.64 1.27-.1 1.58.12.8.41.93.72.77 1zM96.79 126.24c0 .9-4.07-.41-5.83-.48h-3.5a.56.56 0 0 1 0-1.1c1.94-.32 9.39.34 9.33 1.58zM85.14 125.28c0 .5-2.56.34-5 .2-4.12 0-4.42-.2-4.26-.75.27-.92 2.61-.61 3.93-.71 1.98.1 5.44-.02 5.33 1.26zM103.78 128.35c-.33.49-1.71-.55-2.82-.64-.36 0-1.6-.14-1.54-.71 0-.72 1-.67 2.35-.28s2.41 1.05 2.01 1.63zM100 121.06c-.25 1.37-1.78-.2-5.75-.37-1.24 0-2.32-.09-2.49-.12a.53.53 0 0 1 0-1c2.03-.42 8.44.48 8.24 1.49zM88.29 119.06c1-.19 3.47 1 .78 1.2a6.61 6.61 0 0 1-1.83-.11c-.92-.81.76-1.03 1.05-1.09zM85 119.55c0 .92-4.44.37-5.47.29-2.65-.16-3.7.3-3.75-.8.14-1 2.66-.32 4-.31 1.88.1 5.22-.44 5.22.82zM102.52 121.6c1 .32 2.58 2.53.12 1.42a7 7 0 0 1-1.55-.94c-.44-1.16 1.16-.55 1.43-.48zM103.24 141.16c.14.07.65.06.3.73s-7.3-.67-7.66-.73c-.7-.12-.66-.26-.64-.78.19-.41.73-.29.82-.3.26-.08 7.05 1.01 7.18 1.08zM92.93 140.35c-.25.34-3.29.42-3.19-.3s.79-.41 2.09-.39c1.45 0 1.37.34 1.1.69zM115 140.19c.59-.06 1.16-.42 1.12.56-.19.59-1 .39-2.84.78-1.65.34-2.07.75-1.89-.14.06-.39 1.94-1.02 3.61-1.2zM114.94 135.18c.58 0 1.4-.29 1.35.68-.32.42-1.37.22-3.19.61-1.65.36-1.92.9-1.88 0 .04-.64 2.07-1.29 3.72-1.29z"/><path d="M76.18 70c-.09 0-.12.5-.12 1.26s0 1.77.06 2.87v4.94h.14c-.13-.24-.14-4.95-.14-4.95 0-1.08-.06-2.13-.06-2.9s0-1.2.1-1.22c1.46-.32 5.58-.85 6.59-.37.28.13.38 1.48.38 3.11a44.26 44.26 0 0 1-.35 6c-.09.24-1.54.39-3.06.47 1.53-.07 3-.23 3.07-.47a43.16 43.16 0 0 0 .37-6c0-1.63-.1-3-.4-3.13-1-.48-5.12.06-6.58.39zm.1 9.14a21.85 21.85 0 0 0 3.46.05 18.75 18.75 0 0 1-3.46-.11z"/><path d="M76.06 69.46c-.57.12-.6.37-.48 4.38v5.29c.1.86 1.06.75 2 .64l1.42-.12h1.47c2.71 0 3.21-.07 3.41-.58v-1.62l-.17-3.34c.11-4.59-.35-4.81-.69-5-1.32-.6-5.86.12-6.96.35zm6.48.65v.07c0 .23.08 1 .08 2.55v1.32l.18 3.47s0 .57.06.9l-2.36.11H79l-1.5.13-.94.06a7.24 7.24 0 0 0 .13-1.89v-3.06-3.33c1.71-.31 5.1-.68 5.85-.33z"/><path d="M205.92 101.3a92.59 92.59 0 0 1-1.1-13.37c-.09-3.72-.16-6.41-1.06-8.05l.06.13L196 60.65v.08c-1.61-5.73-15.4-21.8-16.09-22.64-1.59-2.52-11-9.54-13.57-10.88l-10.27-7.1c-4.19-3-11-5.69-16.65-7.48l-6.57-2.31c-8.16-2.82-21-3.16-22.69-3h-4.57c-1.7-.13-14.53.21-22.2 3.13l-4.8 1.69c-6.17 1.7-11.77 3.43-16 6.45l-12 8.36C48 28.28 36 36.93 34.61 39.35l.09-.12C34.09 40 21.63 54.78 20 60.52v-.08L12 80l.06-.13c-.9 1.64-.72 4.89-.82 8.63a86.43 86.43 0 0 1-1.38 12.8c-.71 4.19-.15 7.88.38 12.37s.73 9.8 1.56 13.75c.69 3.34 1.62 6.21 1.82 8.33 1.12 5.33 3.79 12.3 5.15 14.24 1 1.42 2.84 4 2.84 4 1.63 2.21 3.54 4.83 4.71 6.71s1.58 3.07 2.52 4.71c1.3 2.29 2.47 4.36 3.78 6.21a24.44 24.44 0 0 0 4.71 5.08c.5.4 4.78 3.28 6.84 4.64a35.84 35.84 0 0 1 3.74 2.66l1.5 1.51c4.19 4.22 7.31 7.49 10 9a15.05 15.05 0 0 0 4.59 1.3 4.28 4.28 0 0 0 2.28-.55 4.9 4.9 0 0 0 2.28-3.51c.06-.22.61-1.49 1.18-2.83.91.19 2 1.32 2.9 2.1l-.57 2a5.2 5.2 0 0 0 .94 4.79c4.48 5.82 21.13 8 35.65 7.6 15 .46 33.72-4 36.21-9.69a2.69 2.69 0 0 0-.63-3.11 10 10 0 0 1-.68-.89 1.12 1.12 0 0 1 .5-.45 4.87 4.87 0 0 1 1.91-.13c.62 1.1 1.27 2.29 2 3.61a1.84 1.84 0 0 0 1.41 1c4.35.73 18.35-11.6 18.48-11.73a55.45 55.45 0 0 1 5.52-4.31c2.06-1.36 3.83-2.55 4.34-3a37.14 37.14 0 0 0 9.28-11.27 106.71 106.71 0 0 1 7.18-11.44l.28-.37c3-4.09 7.09-12.11 7.72-17.88a83.11 83.11 0 0 1 1.48-8.34c1.65-7.88 3.69-17.71 2.26-26.11zM73.24 189.09a6.67 6.67 0 0 0-2.85-1.61c3-7 4.3-10.38 4.57-12a1.32 1.32 0 0 0 0-.28 1.77 1.77 0 0 0 0-.3 1.23 1.23 0 0 0 0-.36l-.54-1.19c-.32-.64-1.3-1.92-1.3-2.94 0-1.45.51-1.19 1.11-1.16a20.23 20.23 0 0 1 5.42 1.59 9.53 9.53 0 0 1 3.15 2.87.91.91 0 0 1-.2 1.2 3.86 3.86 0 0 1-1.45.79 13.48 13.48 0 0 0-2.56 1.7c-1.77.72-2.92 3.55-4.54 8.9 0 .12-.07.23-.11.36-.17.54-.35 1.13-.52 1.73zM71.64 172a22.29 22.29 0 0 1-3.33-2c-2-1.47-7-5.41-9.17-6.71-1.47-.88-1.61-1.73-3.39-3.59a41.34 41.34 0 0 0-4.52-4.32c-1.84-1.39-5-6.29-6.1-8.07-3.69-6-9.58-17.63-10.91-29.13-.17-1.48-.19-5.3-.23-8.67 0-2.9-.06-5.4-.15-6.52.17-2.35.75-8.64 1.37-10.3.44-1.17.79-3.63 1.24-5.61.39-1.73.84-4.31 1.17-5.17a57.81 57.81 0 0 1 2.79-6.85l5.25-9.93c0-.1 2.73-5.71 4.73-7.81l2-2.16a58 58 0 0 1 6.51-6.39 82.43 82.43 0 0 1 13.38-8.41l6.37-3.15a30 30 0 0 1 5.39-2.37c.12 0 12.9-4.09 21.4-4.59-.74 1.84-1.35 3.53-1.56 4.31a32 32 0 0 1-4.68.5c-1.46 0-5.87.82-5.87.82a56.36 56.36 0 0 0 7 8.86s-1.54 9-1.5 10c.16 0 4.89-2.46 6.43-3.33a12.56 12.56 0 0 1 3.6-1.41c.09 0 4.45 1.84 5.51 2.48a36.41 36.41 0 0 0 4.71 2.52v-.1s-2.28-9.55-2.24-10c0-.06 1.18-1.19 2-2.15 1.27-1.6 2.63-2.7 3.48-3.68s2.43-2.79 2.48-2.88-10.32-1.26-11-1.53c0 0-1-2.23-1.82-4.24a57.3 57.3 0 0 1 5.78.7h.11c6.19 1 13.12 3.66 16.07 4.77l2.78 1.11c.12.07 4.4 1.82 4.4 1.82a62.76 62.76 0 0 1 6.58 3.94l1.56 1.1c3.17 2.22 10 6.81 11.15 8.62l1.75 2.35a16.43 16.43 0 0 1 2.15 4.32c1 2.4 3.25 5.18 5.45 7.86a47.93 47.93 0 0 1 3.86 5.11s2.82 4 3.39 7.63c.71 4.57 1.88 11.61 2.49 13.66 3.31 11.13 2.36 17 1.06 22.87-.4 1.8-1.28 4.31-1.49 6a20.86 20.86 0 0 1-1.8 7 46.34 46.34 0 0 0-1.86 4.58 20 20 0 0 1-2.52 5.87c-.47.65-1.35 2-2.57 4a174.85 174.85 0 0 1-11 16.11 64.33 64.33 0 0 1-7 6.17c-1.62 1.3-3 2.44-3.71 3.11a54.07 54.07 0 0 1-5 3.93 2.77 2.77 0 0 0 .1-.5 2.71 2.71 0 0 0-.12-.79 2.56 2.56 0 0 0-1.9-1.68c-1.4-.39-2.72.23-4.57 1a14.79 14.79 0 0 0-4.91 3.11c-.82.73-2 1.94-1.61 2.9a4.09 4.09 0 0 0 1.86 1.87c-4.43 1.36-8.77 2.66-10.32 3-1 .2-4.65 1.28-7 1.67a63.06 63.06 0 0 1-6.59.91c-5.42.13-13.25-1.82-14.85-2.71h-.13c-3.72-1.4-8.71-3.24-11.89-4.05l.2-.1a3.58 3.58 0 0 0 2.39-2.23 2.78 2.78 0 0 0-.76-2.52 12.18 12.18 0 0 0-4-3 22.89 22.89 0 0 0-5.3-1.55 4 4 0 0 0-2.17.19h-.08a1.71 1.71 0 0 0-.84 1.6 5.73 5.73 0 0 0 .52 1.83zM108.4 40.24c-1.13-.88-3.53-5.07-3.53-5.07.14-.55 3.53-8 3.53-8a33.88 33.88 0 0 1 .14 6.59c-.09 2.64-.23 5.24-.14 6.48zm-12.8-2.89c1.1.26 4.48 1.31 4.48 1.31a74.61 74.61 0 0 0 7.25 2.51c-.37.78-1.18 2.24-1.18 2.24s-5.58 8.67-6 9.29c0 0 1.67-8.88 1.6-9-.36-.52-3.75-3.47-6.15-6.35zM118.82 40a22.82 22.82 0 0 1-2.11 2.77 63.22 63.22 0 0 1-7.34-1.77s2.54-4.76 3.51-5.24l9.1.92c-.73.25-3.35 1-5.71 1.76-2.71 1.07-5.29 2-5.29 2s7.02-.35 7.84-.44zm-2.11 12.8c-.71-.19-6.86-3.57-6.86-3.57a46.46 46.46 0 0 1-1.06-7.91zm26.39 142.1c-1.56 3.55-17.09 9.53-32.7 9-16.37.46-32.36-2-35.76-6.45a6.44 6.44 0 0 1-.8-3 3.32 3.32 0 0 1 .15-1l.79-2.72.1-.34v-.11c1.48-5.08 3.14-10.83 4.48-11.18 1.22-.08 1.17-.72 7.47 1.64 2.34 1.22 14.45 4.75 17.07 4.93a79.58 79.58 0 0 0 11.49-.52c2.27-.39 4-1 5-1.11 2.19-.14 13.76-3.67 15.79-4.3a.36.36 0 0 1 .19.13 9.61 9.61 0 0 1 1.26 3c.11.36.21.71.3 1 .21.73.45 1.5.7 2.3.07.21.15.42.22.62.2.6.42 1.19.66 1.79.13.31.27.59.4.88.24.53.51 1 .8 1.55.17.29.34.57.53.86s.23.4.37.59l1.48 2a1.29 1.29 0 0 1 .01.44zm.42-5.15a5.33 5.33 0 0 0-.91.54 19.66 19.66 0 0 1-1.51-3.29c-.07-.16-.13-.32-.19-.49a31.947 31.947 0 0 1-.79-2.44c-.1-.35-.15-.45-.21-.68-.79-2.73-1.45-4.94-3-5.47a.47.47 0 0 0-.1-.05 2.42 2.42 0 0 0-.47 0 1.27 1.27 0 0 0-.28 0c-1.78.09-3.73-.7-4-1.37a1.73 1.73 0 0 1 .39-1c1.8-1.65 2.68-2.7 3.84-3.17a7.66 7.66 0 0 1 4.85-.77c.47.12.53.77.55.83a.83.83 0 0 1 0 .22 5.93 5.93 0 0 1-1.38 2.79 3.63 3.63 0 0 0-1.47 2.73c0 1.61 1.19 3.47 2.9 6.17.86 1.36 1.92 3 3.09 5.05a6.7 6.7 0 0 0-1.31.4zM201.74 127a83.15 83.15 0 0 0-1.52 8.55c-.89 8.15-3.74 12-7.35 16.9l-.27.37a105.94 105.94 0 0 0-7.36 11.62c-2.5 4.41-4.48 7.88-8 10.72-.43.34-2.35 1.62-4.2 2.86-3.56 2.37-5.94 4-6.5 4.51-3.51 3.37-14.94 11.89-16.81 11.21-2.49-4.83-4.61-8.19-6.16-10.63-1.82-2.87-2.58-4.2-2.58-5.06 0-.55.31-.92.85-1.38s5.16-3.95 7.18-5.93c.61-.61 3-2 4.54-3.26a83.13 83.13 0 0 0 8.76-9.14 110.44 110.44 0 0 0 8.9-12.91c1.15-1.82 3.07-5 3.49-5.54a16.17 16.17 0 0 0 2.61-5.48 29.17 29.17 0 0 1 1.65-3.56 27.85 27.85 0 0 0 2.08-8.34 30.62 30.62 0 0 1 .5-4.05c.7-3.2 1.94-7.79 1.94-12.35 0-3.72-.64-6.7-2.2-11.93-.59-2-1.89-9.17-2.58-13.67-.62-4-3.24-9.14-3.35-9.36-1-1.66-2.82-3.32-4.4-5.24a32.38 32.38 0 0 1-4.8-7.52 20.09 20.09 0 0 0-3-4.61l-1.63-2.18c-1.24-2-6-5.39-10.75-8.72l-1.52-1.08a78.78 78.78 0 0 0-7.5-4.33l-4.12-2.27h-.06l-2.93-1.2a111.4 111.4 0 0 0-13.53-4.12H121a79.89 79.89 0 0 0-9.7-1.17c-.2-.52-.37-1-.46-1.24-.29-.86-1.38-2.83-1.8-4-.73.52-1.89 2.83-2.94 5.24-8.71.58-20.81 3.92-21.42 4.09a30.3 30.3 0 0 0-5.75 2.51l-9.21 4.53a51.33 51.33 0 0 0-11 7 43.21 43.21 0 0 0-6.21 5.42l-2 2.14c-2.21 2.33-6.2 10.14-6.31 10.38l-3.56 6.07C39.48 73 35.9 82.2 35.81 82.45c-.35 1-.74 2.72-1.16 4.58s-1.21 3.85-1.29 5c-.52 7.33-1 10.57-1 11.46v.15c.09 1-.39 3.72-.31 5.91.14 3.57.1 7.28.25 8.84.69 6.8 4.56 18.09 8.42 24.39a67.25 67.25 0 0 0 9.82 14.33c1 1.21 3.68 3.49 5.16 5 1.87 2 2.48 2.93 4.17 3.95 2.11 1.28 4.18 2.75 6.18 4.2 2.23 1.6 4.54 3.25 6.94 4.65h.08a.08.08 0 0 0 0 .06 4 4 0 0 1-.13.66l-.06.21c-.08.3-.2.65-.34 1 0 .13-.08.24-.12.36-.14.4-.3.82-.47 1.27q0 .1-.09.24c-.19.47-.38 1-.58 1.48-.07.15-.12.3-.19.45-.19.5-.4 1-.6 1.49l-.36.86-.41 1c-.11.25-.21.5-.31.75s-.2.45-.29.68c-.34.79-.65 1.52-.9 2.09l-.1.22-.12.27a31.6 31.6 0 0 0-1.33 3.26 3.23 3.23 0 0 1-1.32 2.23 3.45 3.45 0 0 1-3.3.21c-2.23-.7-4.05-2.7-6.31-4.78-1.87-1.73-3.69-3.58-4.92-4.82L48.3 182a50.09 50.09 0 0 0-5.55-4c-.85-.57-1.67-.94-2.39-1.43a36.21 36.21 0 0 1-3-2.81c-3.55-2.83-4.31-4.92-6.81-9.33-1.88-3.34-4.62-8.19-5.49-9.26l-2.14-2.73c-3.61-4.89-6.46-8.75-7.34-16.92-.2-2.21-1-4.17-1.75-7.55-.32-1.57-.44-4.17-.76-5.86-1.29-6.67-2.35-14.1-1.26-20.53a75.38 75.38 0 0 0 .86-12.53c.08-3.32.15-5.94.82-7.14l.3-1.16 6.93-18.23c.75-2.67 6.32-11.64 8.47-14.65s7.75-9 7.82-9.14v-.13c1-1.78 10.45-8.26 13.28-9.67h.07l12-8.44c4-2.83 11.56-5.23 17.11-7l3.94-1.28c7.75-2.69 19.26-3.63 20.84-3.51.77.06 4.09.06 4.87 0 1.57-.12 15.21.82 23 3.51l5 1.08c5.55 1.76 12.13 4.35 16.09 7.18L166.17 29h.07c-1.66-.83 10.81 6.15 13.36 10.55v.08h.05c.15.19 13.87 17.44 15.38 22.79l6.8 17.19v.06c.66 1.2.86 4.86.94 8.18a108.8 108.8 0 0 0 1.66 14c1.45 8.15-1.09 17.44-2.69 25.15z"/><path d="M103.06 131.6c-.18.87-4-.72-5.74-.78-1.24 0-4.48-.17-4.65-.19-.64-.1-.92-.84-.31-.94 1.98-.32 10.89.94 10.7 1.91zM84.77 130c0 .76 0 0-3.92.07-4.12-.06-4.42 0-4.26-.54.26-.93 2.68-.37 4-.47 1.96.04 4.23-.37 4.18.94zM87.25 129.76c.26-.34 2.73-.47 2.64.26s-.38.42-1.67.41c-1.45 0-1.22-.3-.97-.67zM108.06 3.71a2 2 0 0 1-1.94-2 2 2 0 0 1 3.95.07 2 2 0 0 1-2.01 1.93zM101.05 3.9A2 2 0 0 1 99 2.05 2 2 0 0 1 100.82 0a2 2 0 1 1 .23 4zM94 4.57a1.94 1.94 0 0 1-2.2-1.7A1.94 1.94 0 0 1 93.45.66 2 2 0 1 1 94 4.57zM87 5.72a2 2 0 0 1-2.32-1.54A2 2 0 1 1 87 5.72zM80 7.36A1.93 1.93 0 0 1 77.6 6 2 2 0 1 1 80 7.36zM73.2 9.49A2 2 0 1 1 74.42 7a2 2 0 0 1-1.22 2.49zM66.6 12.06A1.93 1.93 0 0 1 64 11a2 2 0 1 1 2.58 1zM60.16 15.11a2 2 0 0 1-1.81-3.51 2 2 0 1 1 1.81 3.51zM54 18.57a2 2 0 0 1-2-3.38 2 2 0 0 1 2.72.67 2 2 0 0 1-.72 2.71zM48 22.48a1.93 1.93 0 0 1-2.76-.48 2 2 0 1 1 2.74.47zM42.3 26.79a2 2 0 1 1 .29-2.79 1.95 1.95 0 0 1-.29 2.79zM36.92 31.47a2 2 0 0 1-2.7-2.88 2 2 0 1 1 2.7 2.88zM31.89 36.5a2 2 0 1 1-.09-2.78 1.95 1.95 0 0 1 .09 2.78zM27.2 41.88a2 2 0 0 1-3.06-2.5 2 2 0 0 1 2.79-.28 2 2 0 0 1 .27 2.78zM22.94 47.5a2 2 0 0 1-3.23-2.27 2 2 0 0 1 2.77-.47 2 2 0 0 1 .46 2.74zM19 53.49a1.94 1.94 0 0 1-2.7.66 2 2 0 1 1 2.7-.66zM15.55 59.68a1.93 1.93 0 0 1-2.65.84 2 2 0 0 1-.9-2.65 2 2 0 1 1 3.51 1.81zM12.51 66.12a2 2 0 0 1-3.63-1.57 2 2 0 1 1 3.63 1.57zM9.93 72.72a2 2 0 1 1-1.2-2.52 1.95 1.95 0 0 1 1.2 2.52zM7.8 79.53a1.93 1.93 0 0 1-2.42 1.37 2 2 0 1 1 1-3.8 2 2 0 0 1 1.42 2.43zM6.15 86.46A1.94 1.94 0 0 1 3.83 88a2 2 0 0 1-1.55-2.32 2 2 0 1 1 3.87.78zM5 93.47a1.93 1.93 0 0 1-2.2 1.7 2 2 0 1 1 .51-3.91A2 2 0 0 1 5 93.47zM4.32 100.56a2 2 0 0 1-2.09 1.85 2 2 0 1 1 .24-3.94 2 2 0 0 1 1.85 2.09zM4.12 107.65a1.94 1.94 0 0 1-1.94 2 2 2 0 1 1-.06-4 2 2 0 0 1 2 2zM4.41 114.82a2 2 0 0 1-1.81 2.11 2 2 0 1 1-.3-3.93 2 2 0 0 1 2.11 1.82zM5.19 121.88A2 2 0 1 1 3 120.21a2 2 0 0 1 2.19 1.67zM6.45 128.86a2 2 0 1 1-2.34-1.51 1.94 1.94 0 0 1 2.34 1.51zM8.19 135.75a2 2 0 1 1-2.44-1.36 2 2 0 0 1 2.44 1.36zM10.41 142.53a2 2 0 0 1-3.71 1.36 2 2 0 1 1 3.71-1.36zM13.07 149.09a1.94 1.94 0 0 1-1 2.59 2 2 0 0 1-2.62-1 2 2 0 1 1 3.6-1.61zM16.2 155.47a1.93 1.93 0 0 1-.81 2.66 2 2 0 0 1-2.67-.8 2 2 0 0 1 .81-2.68 2 2 0 0 1 2.67.82zM19.8 161.67a2 2 0 1 1-2.72-.63 2 2 0 0 1 2.72.63zM23.75 167.54a2 2 0 0 1-3.19 2.31 2 2 0 1 1 3.19-2.31zM28.14 173.15a2 2 0 0 1-3 2.54 2 2 0 1 1 3-2.54zM32.89 178.46a2 2 0 0 1-2.84 2.73 2 2 0 1 1 2.84-2.73zM38 183.43a1.94 1.94 0 0 1 .14 2.78 2 2 0 1 1-.14-2.78zM43.45 188a2 2 0 1 1-2.78.32 2 2 0 0 1 2.78-.32zM49.19 192.26a2 2 0 1 1-2.75.51 2 2 0 0 1 2.75-.51zM55.16 196.06a1.94 1.94 0 0 1 .71 2.69 2 2 0 1 1-.71-2.69zM61.41 199.43a2 2 0 1 1-2.65.89 2 2 0 0 1 2.65-.89zM67.9 202.39a2 2 0 0 1-1.51 3.61 2 2 0 1 1 1.51-3.65zM74.55 204.88a1.93 1.93 0 0 1 1.24 2.48 2 2 0 0 1-2.49 1.26 2 2 0 0 1-1.25-2.51 1.94 1.94 0 0 1 2.5-1.23zM81.4 206.9a2 2 0 1 1-2.4 1.41 2 2 0 0 1 2.4-1.41zM88.37 208.46a1.93 1.93 0 0 1 1.57 2.29 2 2 0 0 1-2.3 1.59 2 2 0 0 1-1.59-2.34 2 2 0 0 1 2.32-1.54zM95.34 209.51a2 2 0 0 1-.46 3.92 2 2 0 1 1 .46-3.92zM102.46 210.09a1.94 1.94 0 0 1 1.87 2 2 2 0 1 1-1.87-2zM109.62 210.18a1.93 1.93 0 0 1 2 1.92 2 2 0 1 1-2-1.92zM116.71 209.78a2 2 0 0 1 .35 3.94 2 2 0 1 1-.35-3.94zM123.74 208.91a1.94 1.94 0 0 1 2.25 1.63 2 2 0 1 1-2.25-1.63zM130.76 207.54a2 2 0 1 1 .89 3.84 2 2 0 0 1-2.37-1.48 2 2 0 0 1 1.48-2.36zM137.62 205.69a2 2 0 0 1 1.15 3.79 2 2 0 0 1-2.48-1.32 2 2 0 0 1 1.33-2.47zM144.34 203.38a2 2 0 1 1-1.14 2.55 2 2 0 0 1 1.14-2.55zM150.85 200.63a1.94 1.94 0 0 1 2.61.94 2 2 0 1 1-3.58 1.66 1.94 1.94 0 0 1 .97-2.6zM157.26 197.37a1.93 1.93 0 0 1 2.67.77 2 2 0 0 1-.76 2.69 2 2 0 0 1-2.7-.78 2 2 0 0 1 .79-2.68zM163.34 193.72a1.94 1.94 0 0 1 2.72.59 2 2 0 1 1-2.72-.59zM169.2 189.64a2 2 0 0 1 2.37 3.17 2 2 0 0 1-2.78-.4 2 2 0 0 1 .41-2.77zM174.7 185.23a1.94 1.94 0 0 1 2.77.2 2 2 0 1 1-3 2.58 1.94 1.94 0 0 1 .23-2.78zM179.93 180.39a2 2 0 1 1 0 2.79 2 2 0 0 1 0-2.79zM184.82 175.22a2 2 0 0 1 2.78-.18 2 2 0 1 1-2.78.18zM189.35 169.72a2 2 0 0 1 3.14 2.39 2 2 0 1 1-3.14-2.39zM193.51 163.9a1.93 1.93 0 0 1 2.72-.55 2 2 0 0 1 .57 2.73 2 2 0 1 1-3.29-2.18zM197.21 157.87a2 2 0 1 1 3.43 2 2 2 0 0 1-2.7.74 2 2 0 0 1-.73-2.74zM200.5 151.57a2 2 0 1 1 .92 2.65 2 2 0 0 1-.92-2.65zM203.36 145a2 2 0 0 1 3.68 1.46 2 2 0 0 1-2.58 1.11 2 2 0 0 1-1.1-2.57zM205.76 138.34a2 2 0 0 1 3.77 1.19 2 2 0 1 1-3.77-1.19zM207.69 131.44a2 2 0 0 1 3.84.94 2 2 0 1 1-3.84-.94zM209.13 124.52a1.93 1.93 0 0 1 2.26-1.61 2 2 0 1 1-2.26 1.61zM210.09 117.43a2 2 0 0 1 3.93.4 2 2 0 1 1-3.93-.4zM210.55 110.37a2 2 0 0 1 3.95.13 2 2 0 1 1-3.95-.13zM210.55 103.2a1.92 1.92 0 0 1 1.89-2 2 2 0 0 1 2.06 1.89 2 2 0 0 1-1.92 2.06 2 2 0 0 1-2.03-1.95zM210.06 96.15a2 2 0 0 1 3.92-.41 2 2 0 1 1-3.92.41zM209.07 89.07a2 2 0 0 1 3.9-.68 2 2 0 0 1-1.62 2.3 2 2 0 0 1-2.28-1.62zM207.62 82.15a1.94 1.94 0 0 1 1.43-2.38 2 2 0 1 1 .95 3.84 2 2 0 0 1-2.38-1.46zM205.66 75.27a2 2 0 1 1 2.48 1.28 1.95 1.95 0 0 1-2.48-1.28zM203.25 68.59a2 2 0 0 1 3.66-1.47 2 2 0 1 1-3.66 1.47zM200.36 62.05A2 2 0 1 1 203 63a2 2 0 0 1-2.64-.95zM197.05 55.77a2 2 0 1 1 2.7.74 2 2 0 0 1-2.7-.74zM193.33 49.75a1.94 1.94 0 0 1 .55-2.73 2 2 0 1 1-.55 2.73zM189.16 44a2 2 0 0 1 .35-2.76 2 2 0 1 1-.35 2.76zM184.62 38.46a2 2 0 1 1 2.78.17 1.95 1.95 0 0 1-2.78-.17zM179.72 33.29a1.94 1.94 0 0 1 0-2.78 2 2 0 0 1 2.79 0 2 2 0 0 1 0 2.81 2 2 0 0 1-2.79-.03zM174.46 28.47a2 2 0 1 1 2.79-.2 2 2 0 0 1-2.79.2zM168.88 24a2 2 0 0 1 2.36-3.17 2 2 0 1 1-2.36 3.17zM163.08 20a2 2 0 0 1-.6-2.72 2 2 0 1 1 .6 2.72zM156.92 16.35a2 2 0 0 1 1.9-3.46 2 2 0 1 1-1.9 3.46zM150.56 13.15a2 2 0 1 1 2.63-1 2 2 0 0 1-2.63 1zM144.05 10.41a1.94 1.94 0 0 1-1.15-2.54 2 2 0 0 1 2.55-1.15 2 2 0 0 1 1.15 2.56 2 2 0 0 1-2.55 1.13zM137.31 8.11A1.94 1.94 0 0 1 136 5.66a2 2 0 0 1 2.46-1.33 2 2 0 0 1 1.32 2.48 2 2 0 0 1-2.47 1.3zM130.45 6.3A1.94 1.94 0 0 1 129 3.94a2 2 0 1 1 3.84.88 2 2 0 0 1-2.39 1.48zM123.42 5a2 2 0 1 1 2.26-1.65A2 2 0 0 1 123.42 5zM116.38 4.1a2 2 0 0 1-1.79-2.1 2 2 0 1 1 3.93.34 2 2 0 0 1-2.14 1.76z"/></g></svg>