<?xml version="1.0" encoding="utf-8"?>
<!-- Generator: Adobe Illustrator 15.0.0, SVG Export Plug-In . SVG Version: 6.00 Build 0)  -->
<!DOCTYPE svg PUBLIC "-//W3C//DTD SVG 1.1//EN" "http://www.w3.org/Graphics/SVG/1.1/DTD/svg11.dtd">
<svg version="1.1" id="Layer_1" xmlns="http://www.w3.org/2000/svg" xmlns:xlink="http://www.w3.org/1999/xlink" x="0px" y="0px"
	 width="200px" height="61px" viewBox="0 0 200 61" enable-background="new 0 0 200 61" xml:space="preserve">
<rect fill="#FFFFFF" width="200" height="61"/>
<path d="M60.169,30.861c0,1.082-0.888,1.954-1.992,1.954c-1.096,0-1.989-0.872-1.989-1.954c0-1.08,0.893-1.954,1.989-1.954
	C59.28,28.908,60.169,29.783,60.169,30.861"/>
<path d="M56.971,13.732c-0.058-0.974,0.334-1.153,1.21-1.151c0.871,0.002,1.266,0.18,1.203,1.155l-0.83,11.92
	c-0.035,0.268-0.155,0.855-0.396,0.855c-0.244,0-0.362-0.592-0.394-0.855L56.971,13.732"/>
<path d="M69.665,17.911c0.665-0.729,1.068-0.582,1.687,0.027c0.616,0.606,0.766,1.003,0.018,1.651l-9.176,7.854
	c-0.216,0.165-0.728,0.499-0.896,0.331c-0.173-0.169,0.171-0.67,0.338-0.878L69.665,17.911"/>
<path d="M75.63,29.676c0.994-0.054,1.175,0.328,1.175,1.189c-0.002,0.853-0.184,1.238-1.179,1.179L63.48,31.23
	c-0.272-0.034-0.873-0.153-0.873-0.388c0-0.24,0.605-0.354,0.875-0.388L75.63,29.676"/>
<path d="M71.372,42.134c0.743,0.649,0.595,1.048-0.025,1.654c-0.618,0.604-1.024,0.75-1.684,0.017l-8.001-9.003
	c-0.166-0.214-0.508-0.713-0.336-0.883c0.171-0.169,0.683,0.171,0.896,0.335L71.372,42.134"/>
<path d="M59.384,47.988c0.057,0.978-0.333,1.154-1.21,1.154c-0.871-0.003-1.265-0.181-1.204-1.156l0.832-11.921
	c0.034-0.268,0.153-0.857,0.396-0.857c0.243,0,0.361,0.594,0.394,0.859L59.384,47.988"/>
<path d="M44.985,19.586c-0.744-0.647-0.597-1.046,0.023-1.653c0.618-0.604,1.024-0.75,1.684-0.018l8.001,9.005
	c0.168,0.21,0.509,0.712,0.338,0.877c-0.173,0.171-0.684-0.169-0.897-0.331L44.985,19.586"/>
<path d="M60.366,25.375c-0.114,0.367-0.152,0.761-0.269,1.124c-0.109,0.341-0.178,0.444-0.519,0.338
	c-0.547-0.173,0.074-2.089,0.167-2.371c0.797-2.45,4.329-4.853,5.029-6.997c0.394-1.214-0.214-2.551-1.509-2.956
	c-1.12-0.35-1.59,0.312-1.987,0.185c-0.117-0.035-0.165-0.176-0.127-0.29c0.172-0.535,1.371-1.306,3.559-0.624
	c1.778,0.559,2.813,2.436,2.242,4.183C65.99,20.927,61.622,21.514,60.366,25.375"/>
<path d="M63.68,28.501c-0.349,0.18-0.657,0.433-1.001,0.607c-0.324,0.165-0.446,0.192-0.611-0.12
	c-0.261-0.501,1.56-1.424,1.827-1.56c2.329-1.179,6.556-0.428,8.597-1.458c1.15-0.584,1.687-1.952,1.062-3.134
	c-0.538-1.026-1.347-0.886-1.54-1.251c-0.057-0.104,0.009-0.239,0.12-0.294c0.507-0.258,1.911,0.028,2.966,2.031
	c0.853,1.63,0.235,3.674-1.428,4.512C70.859,29.256,67.35,26.641,63.68,28.501"/>
<path d="M63.769,33.01c-0.375-0.114-0.776-0.15-1.147-0.266c-0.348-0.105-0.451-0.172-0.343-0.507
	c0.174-0.539,2.127,0.074,2.414,0.161c2.497,0.784,4.947,4.249,7.132,4.937c1.233,0.387,2.597-0.21,3.008-1.48
	c0.36-1.096-0.313-1.559-0.187-1.95c0.036-0.113,0.181-0.164,0.298-0.123c0.544,0.168,1.333,1.345,0.634,3.493
	c-0.571,1.747-2.483,2.759-4.263,2.198C68.298,38.526,67.704,34.242,63.769,33.01"/>
<path d="M60.583,36.258c-0.183-0.34-0.44-0.644-0.619-0.983c-0.169-0.314-0.195-0.436,0.122-0.599
	c0.51-0.258,1.452,1.528,1.59,1.793c1.2,2.287,0.435,6.437,1.487,8.437c0.595,1.131,1.988,1.658,3.194,1.043
	c1.044-0.527,0.899-1.321,1.274-1.511c0.105-0.055,0.243,0.012,0.297,0.119c0.264,0.497-0.027,1.874-2.069,2.911
	c-1.658,0.836-3.741,0.226-4.599-1.403C59.811,43.305,62.476,39.862,60.583,36.258"/>
<path d="M55.988,36.349c0.117-0.367,0.153-0.764,0.271-1.126c0.109-0.34,0.177-0.444,0.518-0.337
	c0.546,0.172-0.075,2.088-0.168,2.369c-0.799,2.453-4.328,4.854-5.027,6.997c-0.393,1.213,0.213,2.553,1.509,2.952
	c1.118,0.354,1.587-0.306,1.987-0.184c0.115,0.036,0.165,0.176,0.129,0.294c-0.173,0.532-1.375,1.309-3.562,0.618
	c-1.779-0.557-2.811-2.434-2.242-4.18C50.366,40.796,54.731,40.209,55.988,36.349"/>
<path d="M52.585,28.712c0.378,0.115,0.777,0.151,1.148,0.266c0.347,0.106,0.453,0.173,0.343,0.508
	c-0.175,0.537-2.128-0.073-2.415-0.164c-2.498-0.784-4.945-4.248-7.131-4.935c-1.233-0.386-2.599,0.209-3.009,1.479
	c-0.358,1.098,0.315,1.561,0.189,1.954c-0.036,0.112-0.182,0.16-0.297,0.123c-0.546-0.171-1.334-1.347-0.636-3.492
	c0.571-1.747,2.481-2.759,4.261-2.201C48.057,23.196,48.65,27.479,52.585,28.712"/>
<path d="M55.771,25.461c0.185,0.344,0.441,0.646,0.619,0.984c0.169,0.314,0.195,0.437-0.123,0.598
	c-0.511,0.26-1.451-1.529-1.588-1.792c-1.202-2.289-0.436-6.436-1.486-8.438c-0.594-1.129-1.987-1.654-3.195-1.041
	c-1.044,0.526-0.902,1.32-1.273,1.511c-0.105,0.053-0.244-0.013-0.297-0.12c-0.264-0.5,0.027-1.876,2.066-2.91
	c1.662-0.837,3.743-0.23,4.6,1.402C56.543,18.417,53.879,21.861,55.771,25.461"/>
<path d="M55.059,33.95c-0.17-0.169-0.68,0.164-0.895,0.329l-5.331,4.562c-0.141,1.382-0.55,2.686-1.159,3.87l7.045-7.882
	C54.885,34.618,55.231,34.116,55.059,33.95"/>
<path d="M52.874,31.267c0.269-0.032,0.875-0.148,0.874-0.387c0-0.235-0.601-0.354-0.874-0.388l-7.175-0.481
	c0.495,0.501,0.942,1.045,1.334,1.629L52.874,31.267"/>
<path d="M52.461,34.292c0.268-0.133,2.088-1.057,1.825-1.557c-0.164-0.315-0.287-0.289-0.61-0.121
	c-0.344,0.174-0.653,0.427-1.003,0.607c-1.547,0.783-3.066,0.769-4.517,0.598c0.153,0.4,0.283,0.808,0.388,1.229
	C49.987,34.961,51.415,34.822,52.461,34.292"/>
<path d="M37.702,25.953c1.654,0,3.198,0.282,4.631,0.839c1.429,0.56,2.687,1.347,3.776,2.366c1.085,1.016,1.939,2.227,2.558,3.634
	c0.621,1.406,0.932,2.941,0.932,4.6c0,1.763-0.328,3.375-0.98,4.831c-0.657,1.461-1.553,2.704-2.691,3.738
	c-1.138,1.034-2.45,1.83-3.932,2.392c-1.485,0.558-3.052,0.837-4.709,0.837c-1.307,0-2.549-0.176-3.722-0.533
	c-1.171-0.355-2.269-0.85-3.287-1.478c-1.017-0.628-1.913-1.39-2.689-2.286c-0.774-0.898-1.421-1.892-1.939-2.972l1.499-0.512
	c0.933,1.831,2.302,3.315,4.113,4.452c1.81,1.134,3.82,1.704,6.026,1.704c1.448,0,2.821-0.248,4.114-0.738
	c1.296-0.492,2.414-1.188,3.364-2.086c0.945-0.898,1.696-1.976,2.251-3.229c0.55-1.255,0.827-2.626,0.827-4.121
	c0-1.421-0.267-2.736-0.802-3.938c-0.533-1.205-1.268-2.239-2.199-3.101c-0.93-0.867-2.017-1.544-3.259-2.037
	c-1.241-0.49-2.569-0.737-3.982-0.737c-1.863,0-3.632,0.406-5.302,1.221c-1.673,0.814-3.043,1.984-4.113,3.509h-1.811
	c0.034-0.272,0.129-0.765,0.284-1.478c0.157-0.709,0.337-1.549,0.543-2.515c0.208-0.965,0.421-2.025,0.647-3.178
	c0.227-1.152,0.457-2.321,0.699-3.509c0.55-2.71,1.172-5.727,1.863-9.048h15.774l-0.878,1.678h-13.5L28.65,29.715
	c1.139-1.182,2.49-2.108,4.059-2.769C34.278,26.285,35.942,25.953,37.702,25.953"/>
<path d="M90.103,37.242c-0.331,0-1.485,0.044-1.747,0.044v-0.3c0.497-0.114,0.802-0.556,0.802-0.925v-3.477h-5.602v3.477
	c0,0.369,0.309,0.788,0.827,0.925v0.3c-0.26,0-1.439-0.044-1.767-0.044c-0.285,0-1.392,0.044-1.653,0.044v-0.3
	c0.494-0.114,0.802-0.556,0.802-0.925v-7.256c0-0.348-0.283-0.789-0.802-0.926v-0.301c0.262,0,1.368,0.046,1.653,0.046
	c0.328,0,1.507-0.046,1.767-0.046v0.301c-0.495,0.117-0.827,0.556-0.827,0.926v2.851h5.602v-2.851c0-0.371-0.282-0.81-0.802-0.926
	v-0.301c0.261,0,1.417,0.046,1.747,0.046c0.284,0,1.415-0.046,1.675-0.046v0.301c-0.494,0.117-0.827,0.556-0.827,0.926v7.256
	c0,0.345,0.306,0.788,0.827,0.925v0.3C91.518,37.286,90.387,37.242,90.103,37.242"/>
<path d="M102.228,37.033c-0.379,0.253-0.874,0.646-0.874,0.646c-0.331-0.3-0.966-0.926-1.085-1.783
	c-0.826,0.813-1.981,1.552-3.445,1.552c-2.027,0-2.901-1.272-2.901-2.824v-4.583c0-0.741-0.424-1.087-1.204-1.251v-0.253
	l2.736-1.064h0.26v5.853c0,1.646,0.355,2.942,2.028,2.942c1.063,0,1.982-0.693,2.456-1.273v-4.953c0-0.741-0.424-1.087-1.204-1.251
	v-0.253l2.736-1.064h0.26v7.778c0,0.741,0.237,0.926,0.517,0.926c0.169,0,0.426-0.024,0.545-0.093l0.165,0.368
	C103.217,36.452,102.723,36.71,102.228,37.033"/>
<path d="M117.93,37.242c-0.302,0-1.627,0.044-1.908,0.044V37.01c0.494-0.21,1.039-0.466,1.039-0.902v-4.515
	c0-1.644-0.097-2.942-1.772-2.942c-0.94,0-1.862,0.535-2.406,1.066c0.023,0.184,0.023,0.394,0.023,0.577v5.812
	c0,0.461,0.497,0.671,1.061,0.902v0.276c-0.306,0-1.673-0.044-1.981-0.044c-0.306,0-1.628,0.044-1.91,0.044v-0.276
	c0.494-0.21,1.034-0.465,1.034-0.902v-4.514c0-1.645-0.092-2.943-1.767-2.943c-1.062,0-1.888,0.696-2.357,1.273v6.183
	c0,0.461,0.496,0.671,1.062,0.902v0.276c-0.309,0-1.676-0.044-1.98-0.044c-0.307,0-1.63,0.044-1.914,0.044v-0.276
	c0.496-0.21,1.04-0.465,1.04-0.902v-6.065c0-0.741-0.425-1.088-1.205-1.251v-0.253l2.642-1.064h0.26l0.097,1.504
	c0.851-0.786,1.818-1.504,3.276-1.504c1.396,0,2.127,0.625,2.434,1.504c0.85-0.786,2.075-1.504,3.514-1.504
	c2.03,0,2.642,1.272,2.642,2.822v5.812c0,0.461,0.497,0.671,1.063,0.902v0.276C119.607,37.286,118.238,37.242,117.93,37.242"/>
<path d="M126.73,32.425h-1.392c-1.391,0-2.617,0.742-2.617,2.223c0,1.065,0.731,1.687,1.626,1.687c0.946,0,1.889-0.505,2.383-1.294
	V32.425 M128.76,37.033c-0.377,0.253-0.871,0.646-0.871,0.646c-0.329-0.3-0.731-0.809-0.966-1.458
	c-0.686,0.741-1.793,1.228-3.044,1.228c-1.791,0-3.066-0.835-3.066-2.708c0-1.761,1.698-2.663,3.42-2.965
	c0.473-0.068,1.981-0.092,2.499-0.092v-1.506c0-1.04-0.657-1.898-2.099-1.898c-1.156,0-1.935,0.555-2.503,1.529h-0.305v-1.876
	c0.897-0.252,1.934-0.461,3.328-0.461c2.809,0,3.372,1.411,3.372,2.965v4.812c0,0.741,0.234,0.927,0.519,0.927
	c0.166,0,0.426-0.025,0.545-0.094l0.163,0.369C129.752,36.452,129.257,36.71,128.76,37.033"/>
<path d="M138.884,37.242c-0.308,0-1.629,0.044-1.909,0.044V37.01c0.494-0.21,1.035-0.466,1.035-0.902v-4.515
	c0-1.644-0.661-2.942-2.334-2.942c-1.062,0-1.985,0.697-2.452,1.273v6.183c0,0.46,0.492,0.67,1.059,0.902v0.276
	c-0.307,0-1.673-0.044-1.981-0.044c-0.307,0-1.627,0.044-1.911,0.044V37.01c0.497-0.21,1.041-0.466,1.041-0.902v-6.065
	c0-0.741-0.427-1.088-1.204-1.251v-0.253l2.642-1.065h0.258l0.099,1.505c0.849-0.786,1.905-1.505,3.37-1.505
	c2.03,0,3.209,1.273,3.209,2.822v5.813c0,0.46,0.498,0.67,1.062,0.902v0.276C140.556,37.286,139.188,37.242,138.884,37.242"/>
<path d="M143.885,37.242c-0.305,0-1.627,0.044-1.909,0.044V37.01c0.495-0.21,1.036-0.466,1.036-0.902v-6.065
	c0-0.741-0.423-1.088-1.203-1.251v-0.253l2.738-1.065h0.259v8.635c0,0.46,0.494,0.67,1.06,0.902v0.276
	C145.562,37.286,144.191,37.242,143.885,37.242"/>
<path d="M150.468,37.449c-1.132,0-2.241-0.531-2.241-2.708v-6.228h-1.459v-0.556l1.271-0.37c0.68-0.602,1.013-1.529,1.2-2.617h0.779
	v2.662h2.902v0.879h-2.902v5.926c0,1.228,0.403,1.645,1.135,1.645c0.703,0,1.153-0.347,1.459-0.673l0.38,0.346
	C152.733,36.245,151.811,37.449,150.468,37.449"/>
<path d="M156.133,37.242c-0.309,0-1.632,0.044-1.914,0.044V37.01c0.497-0.21,1.04-0.466,1.04-0.902v-6.065
	c0-0.741-0.426-1.088-1.204-1.251v-0.253l2.734-1.065h0.26v8.635c0,0.46,0.499,0.67,1.063,0.902v0.276
	C157.806,37.286,156.436,37.242,156.133,37.242"/>
<path d="M163.94,28.304c-1.557,0-2.477,1.413-2.688,2.594h4.764C166.182,29.74,165.427,28.304,163.94,28.304 M167.856,31.683h-6.701
	c-0.304,2.663,1.203,4.651,3.443,4.651c1.276,0,2.148-0.205,2.738-0.806l0.401,0.438c-0.52,0.601-1.581,1.481-3.444,1.481
	c-3.326,0-5.095-1.991-5.095-5.001c0-3.056,2.145-4.977,4.718-4.977c2.498,0,4.128,1.738,4.01,3.727
	C167.927,31.362,167.902,31.569,167.856,31.683"/>
<path d="M172.646,37.449c-0.969,0-2.167-0.23-2.972-0.463v-2.038h0.308c0.658,1.159,1.415,1.666,2.642,1.666
	c1.345,0,2.074-0.483,2.074-1.342c0-0.555-0.28-0.927-0.779-1.156l-2.921-1.412c-0.946-0.465-1.535-1.182-1.535-2.315
	c0-1.899,1.747-2.917,3.608-2.917c0.967,0,2.169,0.232,2.972,0.461v1.97h-0.309c-0.513-0.904-1.389-1.599-2.615-1.599
	c-1.156,0-1.888,0.603-1.888,1.46c0,0.741,0.284,1.11,1.062,1.48l2.971,1.416c0.52,0.254,1.159,0.877,1.159,1.943
	C176.423,36.431,174.958,37.449,172.646,37.449"/>
<polyline points="81.583,21.918 82.34,21.918 83.417,23.647 83.426,23.647 83.426,21.918 83.985,21.918 83.985,24.405 
	83.253,24.405 82.146,22.636 82.14,22.636 82.14,24.405 81.583,24.405 81.583,21.918 "/>
<path d="M85.657,22.643l-0.308,0.772h0.619L85.657,22.643 M85.443,21.918h0.462l1.104,2.487h-0.633l-0.217-0.527h-0.985
	l-0.211,0.527h-0.614L85.443,21.918z"/>
<polyline points="87.535,22.403 86.811,22.403 86.811,21.918 88.817,21.918 88.817,22.403 88.095,22.403 88.095,24.405 
	87.535,24.405 87.535,22.403 "/>
<rect x="89.202" y="21.918" width="0.557" height="2.487"/>
<path d="M91.609,23.963c0.475,0,0.787-0.337,0.787-0.801c0-0.464-0.312-0.804-0.787-0.804c-0.479,0-0.788,0.339-0.788,0.804
	C90.821,23.626,91.131,23.963,91.609,23.963 M91.609,21.853c0.789,0,1.368,0.51,1.368,1.309c0,0.797-0.579,1.307-1.368,1.307
	c-0.792,0-1.37-0.51-1.37-1.307C90.24,22.363,90.818,21.853,91.609,21.853"/>
<polyline points="93.463,21.918 94.225,21.918 95.301,23.647 95.309,23.647 95.309,21.918 95.868,21.918 95.868,24.405 
	95.138,24.405 94.029,22.636 94.023,22.636 94.023,24.405 93.463,24.405 93.463,21.918 "/>
<path d="M97.54,22.643l-0.307,0.772h0.62L97.54,22.643 M97.326,21.918h0.462l1.103,2.487h-0.63l-0.219-0.527h-0.986l-0.209,0.527
	h-0.618L97.326,21.918z"/>
<polyline points="99.276,21.918 99.834,21.918 99.834,23.901 100.868,23.901 100.868,24.405 99.276,24.405 99.276,21.918 "/>
<polyline points="102.186,21.918 103.909,21.918 103.909,22.423 102.743,22.423 102.743,22.888 103.844,22.888 103.844,23.393 
	102.743,23.393 102.743,23.901 103.973,23.901 103.973,24.405 102.186,24.405 102.186,21.918 "/>
<polyline points="104.527,21.918 105.286,21.918 106.363,23.647 106.373,23.647 106.373,21.918 106.932,21.918 106.932,24.405 
	106.199,24.405 105.093,22.636 105.087,22.636 105.087,24.405 104.527,24.405 104.527,21.918 "/>
<path d="M108.114,23.901h0.288c0.52,0,0.91-0.196,0.91-0.761c0-0.487-0.397-0.717-0.87-0.717h-0.328V23.901 M107.555,21.918h0.836
	c0.817,0,1.504,0.34,1.504,1.25c0,0.805-0.672,1.237-1.427,1.237h-0.913V21.918z"/>
<path d="M111.614,23.963c0.475,0,0.788-0.337,0.788-0.801c0-0.464-0.313-0.804-0.788-0.804c-0.479,0-0.791,0.339-0.791,0.804
	C110.823,23.626,111.136,23.963,111.614,23.963 M111.614,21.853c0.79,0,1.367,0.51,1.367,1.309c0,0.797-0.576,1.307-1.367,1.307
	c-0.792,0-1.37-0.51-1.37-1.307C110.244,22.363,110.822,21.853,111.614,21.853"/>
<polyline points="113.204,21.918 113.812,21.918 114.218,23.514 114.226,23.514 114.754,21.918 115.273,21.918 115.801,23.553 
	115.809,23.553 116.234,21.918 116.802,21.918 116.058,24.405 115.56,24.405 115.002,22.684 114.994,22.684 114.438,24.405 
	113.956,24.405 113.204,21.918 "/>
<polyline points="117.155,21.918 118.001,21.918 118.585,23.542 118.592,23.542 119.179,21.918 120.021,21.918 120.021,24.405 
	119.462,24.405 119.462,22.497 119.454,22.497 118.787,24.405 118.364,24.405 117.72,22.497 117.714,22.497 117.714,24.405 
	117.155,24.405 117.155,21.918 "/>
<polyline points="120.666,21.918 122.387,21.918 122.387,22.423 121.225,22.423 121.225,22.888 122.324,22.888 122.324,23.393 
	121.225,23.393 121.225,23.901 122.454,23.901 122.454,24.405 120.666,24.405 120.666,21.918 "/>
<polyline points="123.009,21.918 123.766,21.918 124.846,23.647 124.853,23.647 124.853,21.918 125.414,21.918 125.414,24.405 
	124.681,24.405 123.576,22.636 123.568,22.636 123.568,24.405 123.009,24.405 123.009,21.918 "/>
<polyline points="126.526,22.403 125.802,22.403 125.802,21.918 127.809,21.918 127.809,22.403 127.085,22.403 127.085,24.405 
	126.526,24.405 126.526,22.403 "/>
<polyline points="129.105,21.918 130.806,21.918 130.806,22.423 129.665,22.423 129.665,22.929 130.722,22.929 130.722,23.435 
	129.665,23.435 129.665,24.405 129.105,24.405 129.105,21.918 "/>
<path d="M132.548,23.963c0.478,0,0.788-0.337,0.788-0.801c0-0.464-0.311-0.804-0.788-0.804c-0.477,0-0.787,0.339-0.787,0.804
	C131.76,23.626,132.071,23.963,132.548,23.963 M132.548,21.853c0.792,0,1.37,0.51,1.37,1.309c0,0.797-0.576,1.307-1.37,1.307
	c-0.79,0-1.367-0.51-1.367-1.307C131.181,22.363,131.758,21.853,132.548,21.853"/>
<path d="M134.965,22.946h0.326c0.204,0,0.473-0.006,0.473-0.278c0-0.249-0.231-0.288-0.436-0.288h-0.363V22.946 M134.404,21.918
	h0.98c0.521,0,0.957,0.174,0.957,0.755c0,0.348-0.19,0.619-0.546,0.68l0.643,1.051h-0.671l-0.528-0.993h-0.274v0.993h-0.561V21.918z
	"/>
<polyline points="138.206,22.403 137.481,22.403 137.481,21.918 139.486,21.918 139.486,22.403 138.767,22.403 138.767,24.405 
	138.206,24.405 138.206,22.403 "/>
<polyline points="139.88,21.918 140.438,21.918 140.438,22.844 141.521,22.844 141.521,21.918 142.08,21.918 142.08,24.405 
	141.521,24.405 141.521,23.331 140.438,23.331 140.438,24.405 139.88,24.405 139.88,21.918 "/>
<polyline points="142.727,21.918 144.45,21.918 144.45,22.423 143.283,22.423 143.283,22.888 144.385,22.888 144.385,23.393 
	143.283,23.393 143.283,23.901 144.516,23.901 144.516,24.405 142.727,24.405 142.727,21.918 "/>
<polyline points="130.337,40.514 132.917,40.514 132.917,41.133 131.032,41.133 131.032,42.246 132.701,42.246 132.701,42.845 
	131.032,42.845 131.032,44.332 130.337,44.332 130.337,40.514 "/>
<rect x="134.799" y="40.514" width="0.698" height="3.818"/>
<polyline points="137.709,40.514 140.288,40.514 140.288,41.133 138.403,41.133 138.403,42.246 140.074,42.246 140.074,42.845 
	138.403,42.845 138.403,44.332 137.709,44.332 137.709,40.514 "/>
<polyline points="141.667,40.514 145.005,40.514 145.005,41.133 143.699,41.133 143.699,44.332 142.994,44.332 142.994,41.133 
	141.667,41.133 141.667,40.514 "/>
<polyline points="149.809,40.514 148.353,42.821 148.353,44.332 147.646,44.332 147.646,42.816 146.192,40.514 146.997,40.514 
	148.01,42.204 149.02,40.514 149.809,40.514 "/>
<polyline points="157.672,40.514 156.216,42.821 156.216,44.332 155.51,44.332 155.51,42.816 154.055,40.514 154.859,40.514 
	155.871,42.204 156.884,40.514 157.672,40.514 "/>
<polyline points="159.366,40.514 161.95,40.514 161.95,41.133 160.066,41.133 160.066,42.204 161.772,42.204 161.772,42.802 
	160.066,42.802 160.066,43.713 161.95,43.713 161.95,44.332 159.366,44.332 159.366,40.514 "/>
<path d="M164.805,43.035h1.209l-0.604-1.315L164.805,43.035 M164.214,44.332h-0.734l1.86-3.851h0.159l1.862,3.851h-0.748
	l-0.354-0.761h-1.704L164.214,44.332z"/>
<path d="M169.723,41.133v1.494h0.519c0.656,0,0.881-0.335,0.881-0.755c0-0.418-0.22-0.739-0.881-0.739H169.723 M169.021,40.514
	h1.273c1.055,0,1.585,0.56,1.585,1.358c0,0.527-0.228,0.944-0.724,1.168l1.017,1.292h-0.818l-0.841-1.124
	c-0.115,0.01-0.231,0.016-0.355,0.016h-0.435v1.108h-0.702V40.514z"/>
<path d="M174.985,44.397c-0.469,0-0.938-0.152-1.299-0.364l0.241-0.608c0.329,0.212,0.725,0.342,1.081,0.342
	c0.468,0,0.683-0.223,0.683-0.468c0-0.255-0.147-0.406-0.863-0.66c-0.773-0.273-1.04-0.627-1.04-1.083
	c0-0.574,0.487-1.106,1.333-1.106c0.423,0,0.842,0.119,1.095,0.259l-0.224,0.6c-0.234-0.125-0.581-0.258-0.89-0.258
	c-0.416,0-0.609,0.224-0.609,0.49c0,0.241,0.215,0.396,0.775,0.591c0.888,0.331,1.14,0.67,1.14,1.168
	C176.408,43.979,175.872,44.397,174.985,44.397"/>
</svg>
