<svg enable-background="new 0 0 200 61" height="61" viewBox="0 0 200 61" width="200" xmlns="http://www.w3.org/2000/svg"><path d="m0 0h200v61h-200z" fill="#fff"/><path d="m77.911 39.273h.533v-5.187h-.533v-.576h1.989v.577h-.56v5.187h.56v.559h-1.989z"/><path d="m81.578 33.51h1.119l1.835 4.065c0 .009.25.62.258.629.043.11.224.61.258.714.018 0 .035.01.052.01.034-.034.034-.044.034-.13 0-.094-.034-.523-.034-.611-.017-.396-.017-.724-.017-.939v-3.738h.723v6.322h-1.103l-1.843-4.107c-.232-.526-.465-1.207-.508-1.345-.009-.008-.034-.008-.043-.017-.051.043-.051.052-.051.094 0 .183.042 1.129.042 1.173v4.202h-.723v-6.322z"/><path d="m90.652 35.164c-.292-.586-.568-1.017-1.3-1.017-.388 0-.964.225-.964.834 0 .57.482.811.689.906l1.257.568c.216.104.681.362.947.825.077.148.215.39.215.854 0 .594-.215 1.085-.619 1.431-.517.446-1.033.446-1.37.446-.387 0-1.007-.129-1.446-.498-.405-.337-.56-.655-.707-.958l.758-.473c.181.508.603 1.137 1.456 1.137.534 0 1.11-.327 1.11-1.017 0-.293-.111-.662-.774-.964l-1.119-.508c-.388-.173-.845-.491-1.043-.845-.085-.154-.189-.439-.189-.879 0-.956.809-1.629 1.8-1.629.965 0 1.653.484 2.04 1.346z"/><path d="m96.98 33.51v.801h-1.834v5.521h-.905v-5.521h-1.843v-.801z"/><path d="m97.994 39.273h.533v-5.187h-.533v-.576h1.989v.577h-.56v5.187h.56v.559h-1.989z"/><path d="m105.589 33.51v.801h-1.834v5.521h-.904v-5.521h-1.844v-.801z"/><path d="m107.904 33.51v4.212c0 .681.154 1.499 1.188 1.499.291 0 .741-.13.964-.543.172-.345.188-.827.188-1.172v-3.996h.793v4.246c0 .621-.128 1.259-.559 1.696-.51.527-1.12.569-1.585.569-.312 0-1.025-.104-1.466-.74-.353-.518-.404-1.035-.404-1.602v-4.17h.881z"/><path d="m117.065 33.51v.801h-1.836v5.521h-.904v-5.521h-1.844v-.801z"/><path d="m118.433 33.51h3.927v.776h-3.023v1.833h2.23v.803h-2.213v2.107h3.17v.803h-4.091z"/><path d="m126.42 33.51h3.893v.801h-2.989v1.913h2.155v.802h-2.155v2.807h-.903v-6.323z"/><path d="m135.289 34.949c.189.56.24 1.299.24 1.739 0 1.507-.42 3.333-2.127 3.333-1.55 0-2.135-1.559-2.135-3.247 0-.965.152-1.844.517-2.421.525-.844 1.153-.938 1.618-.938 1.07.001 1.628.775 1.887 1.534zm-1.868-.774c-.543 0-.88.378-1.06.972-.121.38-.189.938-.189 1.604 0 .799.112 2.486 1.214 2.486.896 0 1.24-.922 1.24-2.521 0-.838-.078-2.541-1.205-2.541z"/><path d="m137.062 33.51h1.945c1.766 0 2.144 1.068 2.144 1.715 0 1.188-.782 1.508-1.352 1.688l1.655 2.92h-1.034l-1.499-2.807h-.973v2.807h-.887v-6.323zm.876.742v2.093c.484.007 1.103.007 1.431-.061.345-.078.888-.259.888-.965 0-.741-.5-1.067-1.447-1.067z"/><path d="m83.067 42.766h.878v2.651h2.256v-2.651h.879v6.321h-.879v-2.912h-2.256v2.912h-.878z"/><path d="m90.161 42.766v4.212c0 .68.155 1.496 1.188 1.496.293 0 .74-.128.965-.54.172-.346.188-.827.188-1.173v-3.995h.793v4.245c0 .621-.129 1.257-.561 1.697-.508.524-1.118.566-1.583.566-.312 0-1.025-.101-1.465-.738-.354-.518-.405-1.034-.405-1.604v-4.167h.88z"/><path d="m97.521 49.087-1.532-5.771c-.009-.027-.026-.052-.061-.052s-.077.035-.077.086v5.736h-.715v-6.321h1.317l1.343 4.908c.018.052.044.077.078.077.052 0 .094-.032.104-.084l1.31-4.901h1.335v6.321h-.716v-5.701c0-.052-.034-.079-.06-.079-.034 0-.069.018-.086.062l-1.517 5.719z"/><path d="m105.813 47.769h-2.499l-.396 1.318h-.922l2.042-6.321h.99l2.136 6.321h-.921zm-.251-.732-1-3.222c-.007-.017-.017-.033-.041-.033-.027 0-.035.024-.043.044l-.94 3.211z"/><path d="m108.445 42.766h1.12l1.835 4.064c0 .01.248.62.258.629.042.112.224.611.258.715.018 0 .035.007.051.007.036-.033.036-.041.036-.128 0-.095-.036-.523-.036-.609-.016-.397-.016-.725-.016-.94v-3.737h.723v6.321h-1.102l-1.844-4.109c-.231-.524-.465-1.206-.508-1.343-.009-.008-.034-.008-.044-.016-.051.042-.051.052-.051.093 0 .181.044 1.129.044 1.173v4.202h-.725v-6.322z"/><path d="m114.343 48.526h.534v-5.186h-.534v-.575h1.989v.575h-.56v5.186h.56v.561h-1.989z"/><path d="m121.938 42.766v.803h-1.837v5.519h-.903v-5.519h-1.842v-.803z"/><path d="m122.95 48.526h.535v-5.186h-.535v-.575h1.989v.575h-.559v5.186h.559v.561h-1.989z"/><path d="m126.653 42.766h3.928v.774h-3.023v1.834h2.23v.801h-2.213v2.109h3.168v.803h-4.09z"/><path d="m135.22 44.419c-.293-.585-.568-1.016-1.3-1.016-.389 0-.966.224-.966.834 0 .568.483.81.689.903l1.258.571c.215.104.681.359.948.825.076.147.215.389.215.852 0 .596-.215 1.085-.621 1.431-.517.448-1.033.448-1.368.448-.389 0-1.008-.13-1.448-.5-.403-.335-.559-.655-.704-.956l.757-.475c.181.51.603 1.137 1.456 1.137.532 0 1.11-.326 1.11-1.015 0-.292-.112-.663-.774-.964l-1.12-.508c-.388-.172-.845-.491-1.042-.847-.086-.152-.189-.438-.189-.877 0-.957.81-1.626 1.8-1.626.965 0 1.651.481 2.04 1.341z"/><path d="m140.021 42.766h1.947c1.766 0 2.145 1.068 2.145 1.713 0 1.189-.783 1.509-1.353 1.688l1.655 2.92h-1.034l-1.499-2.809h-.973v2.809h-.889v-6.321zm.879.74v2.093c.482.01 1.103.01 1.431-.059.345-.079.889-.26.889-.965 0-.741-.503-1.069-1.448-1.069z"/><path d="m145.766 42.766h3.926v.774h-3.021v1.834h2.229v.801h-2.214v2.109h3.169v.803h-4.089z"/><path d="m154.331 44.419c-.292-.585-.567-1.016-1.3-1.016-.389 0-.965.224-.965.834 0 .568.482.81.689.903l1.257.571c.215.104.681.359.948.825.077.147.215.389.215.852 0 .596-.215 1.085-.62 1.431-.517.448-1.034.448-1.37.448-.388 0-1.006-.13-1.447-.5-.404-.335-.559-.655-.705-.956l.757-.475c.183.51.604 1.137 1.457 1.137.532 0 1.111-.326 1.111-1.015 0-.292-.113-.663-.777-.964l-1.118-.508c-.387-.172-.845-.491-1.044-.847-.085-.152-.188-.438-.188-.877 0-.957.808-1.626 1.8-1.626.966 0 1.652.481 2.041 1.341z"/><path d="m156.767 42.766h3.928v.774h-3.024v1.834h2.231v.801h-2.214v2.109h3.17v.803h-4.091z"/><path d="m165.584 47.769h-2.499l-.396 1.318h-.921l2.041-6.321h.992l2.135 6.321h-.921zm-.252-.732-.997-3.222c-.01-.017-.017-.033-.043-.033-.028 0-.035.024-.043.044l-.94 3.211z"/><path d="m168.251 42.766h1.946c1.764 0 2.145 1.068 2.145 1.713 0 1.189-.784 1.509-1.353 1.688l1.653 2.92h-1.034l-1.496-2.809h-.975v2.809h-.887v-6.321zm.878.74v2.093c.481.01 1.103.01 1.432-.059.342-.079.886-.26.886-.965 0-.741-.5-1.069-1.448-1.069z"/><path d="m176.705 44.6c-.068-.613-.361-1.162-1.052-1.162-.627 0-.894.49-1.03.826-.234.569-.262 1.448-.262 1.515 0 1.389.252 2.739 1.292 2.739.501 0 .76-.361.838-.48.172-.294.207-.656.224-.863l.861.155c-.036.5-.216 1.042-.595 1.421-.544.544-1.162.544-1.403.544-.518 0-2.075-.269-2.075-3.307 0-1.457.369-3.299 2.15-3.299.404 0 .932.119 1.318.515.431.44.517.94.561 1.241z"/><path d="m179.32 42.766h.88v2.651h2.254v-2.651h.88v6.321h-.88v-2.912h-2.254v2.912h-.88z"/><path d="m56.152 33.436 8.365-.023 8.354 15.651h5.761l-9.217-16.274c3.167-1.008 7.537-2.784 7.537-9.409 0-3.6-2.11-9.554-11.954-9.554h-6.966v4.129h5.861c5.282 0 8.066 1.824 8.066 5.953 0 3.936-3.024 4.944-4.945 5.376-1.747.368-2.903.382-5.535.341z"/><path d="m59.739 29.632-5.334.001v-15.807h-4.898v15.799h-12.578v-15.799h-4.895v15.807l-5.099 3.803h5.099v15.627h4.895v-15.627h12.578v15.627h4.898v-15.653.004z"/><path d="m30.432 29.633h-5.145v-12.584h3.121v-3.216h-11.09v3.216h2.976v28.89h-2.976v3.122h11.09v-3.122h-3.121v-12.529z"/></svg>