<?xml version="1.0" encoding="utf-8"?>
<!-- Generator: Adobe Illustrator 15.0.0, SVG Export Plug-In . SVG Version: 6.00 Build 0)  -->
<!DOCTYPE svg PUBLIC "-//W3C//DTD SVG 1.1//EN" "https://www.w3.org/Graphics/SVG/1.1/DTD/svg11.dtd">
<svg version="1.1" id="Layer_1" xmlns="https://www.w3.org/2000/svg" xmlns:xlink="https://www.w3.org/1999/xlink" x="0px" y="0px"
	 width="200px" height="61px" viewBox="0 0 200 61" enable-background="new 0 0 200 61" xml:space="preserve">
<rect fill="#FFFFFF" width="200" height="61"/>
<g>
	<g>
		<path d="M77.911,39.273h0.533v-5.187h-0.533V33.51H79.9v0.577H79.34v5.187H79.9v0.559h-1.989V39.273z"/>
		<path d="M81.578,33.51h1.119l1.835,4.065c0,0.009,0.25,0.62,0.258,0.629c0.043,0.11,0.224,0.61,0.258,0.714
			c0.018,0,0.035,0.01,0.052,0.01c0.034-0.034,0.034-0.044,0.034-0.13c0-0.094-0.034-0.523-0.034-0.611
			c-0.017-0.396-0.017-0.724-0.017-0.939V33.51h0.723v6.322h-1.103l-1.843-4.107c-0.232-0.526-0.465-1.207-0.508-1.345
			c-0.009-0.008-0.034-0.008-0.043-0.017c-0.051,0.043-0.051,0.052-0.051,0.094c0,0.183,0.042,1.129,0.042,1.173v4.202h-0.723V33.51
			z"/>
		<path d="M90.652,35.164c-0.292-0.586-0.568-1.017-1.3-1.017c-0.388,0-0.964,0.225-0.964,0.834c0,0.57,0.482,0.811,0.689,0.906
			l1.257,0.568c0.216,0.104,0.681,0.362,0.947,0.825c0.077,0.148,0.215,0.39,0.215,0.854c0,0.594-0.215,1.085-0.619,1.431
			c-0.517,0.446-1.033,0.446-1.37,0.446c-0.387,0-1.007-0.129-1.446-0.498c-0.405-0.337-0.56-0.655-0.707-0.958l0.758-0.473
			c0.181,0.508,0.603,1.137,1.456,1.137c0.534,0,1.11-0.327,1.11-1.017c0-0.293-0.111-0.662-0.774-0.964l-1.119-0.508
			c-0.388-0.173-0.845-0.491-1.043-0.845c-0.085-0.154-0.189-0.439-0.189-0.879c0-0.956,0.809-1.629,1.8-1.629
			c0.965,0,1.653,0.484,2.04,1.346L90.652,35.164z"/>
		<path d="M96.98,33.51v0.801h-1.834v5.521h-0.905v-5.521h-1.843V33.51H96.98z"/>
		<path d="M97.994,39.273h0.533v-5.187h-0.533V33.51h1.989v0.577h-0.56v5.187h0.56v0.559h-1.989V39.273z"/>
		<path d="M105.589,33.51v0.801h-1.834v5.521h-0.904v-5.521h-1.844V33.51H105.589z"/>
		<path d="M107.904,33.51v4.212c0,0.681,0.154,1.499,1.188,1.499c0.291,0,0.741-0.13,0.964-0.543
			c0.172-0.345,0.188-0.827,0.188-1.172V33.51h0.793v4.246c0,0.621-0.128,1.259-0.559,1.696c-0.51,0.527-1.12,0.569-1.585,0.569
			c-0.312,0-1.025-0.104-1.466-0.74c-0.353-0.518-0.404-1.035-0.404-1.602v-4.17H107.904z"/>
		<path d="M117.065,33.51v0.801h-1.836v5.521h-0.904v-5.521h-1.844V33.51H117.065z"/>
		<path d="M118.433,33.51h3.927v0.776h-3.023v1.833h2.23v0.803h-2.213v2.107h3.17v0.803h-4.091V33.51z"/>
		<path d="M126.42,33.51h3.893v0.801h-2.989v1.913h2.155v0.802h-2.155v2.807h-0.903V33.51z"/>
		<path d="M135.289,34.949c0.189,0.56,0.24,1.299,0.24,1.739c0,1.507-0.42,3.333-2.127,3.333c-1.55,0-2.135-1.559-2.135-3.247
			c0-0.965,0.152-1.844,0.517-2.421c0.525-0.844,1.153-0.938,1.618-0.938C134.472,33.416,135.03,34.19,135.289,34.949z
			 M133.421,34.175c-0.543,0-0.88,0.378-1.06,0.972c-0.121,0.38-0.189,0.938-0.189,1.604c0,0.799,0.112,2.486,1.214,2.486
			c0.896,0,1.24-0.922,1.24-2.521C134.626,35.878,134.548,34.175,133.421,34.175z"/>
		<path d="M137.062,33.51h1.945c1.766,0,2.144,1.068,2.144,1.715c0,1.188-0.782,1.508-1.352,1.688l1.655,2.92h-1.034l-1.499-2.807
			h-0.973v2.807h-0.887V33.51z M137.938,34.252v2.093c0.484,0.007,1.103,0.007,1.431-0.061c0.345-0.078,0.888-0.259,0.888-0.965
			c0-0.741-0.5-1.067-1.447-1.067H137.938z"/>
		<path d="M83.067,42.766h0.878v2.651h2.256v-2.651h0.879v6.321h-0.879v-2.912h-2.256v2.912h-0.878V42.766z"/>
		<path d="M90.161,42.766v4.212c0,0.68,0.155,1.496,1.188,1.496c0.293,0,0.74-0.128,0.965-0.54c0.172-0.346,0.188-0.827,0.188-1.173
			v-3.995h0.793v4.245c0,0.621-0.129,1.257-0.561,1.697c-0.508,0.524-1.118,0.566-1.583,0.566c-0.312,0-1.025-0.101-1.465-0.738
			c-0.354-0.518-0.405-1.034-0.405-1.604v-4.167H90.161z"/>
		<path d="M97.521,49.087l-1.532-5.771c-0.009-0.027-0.026-0.052-0.061-0.052s-0.077,0.035-0.077,0.086v5.736h-0.715v-6.321h1.317
			l1.343,4.908c0.018,0.052,0.044,0.077,0.078,0.077c0.052,0,0.094-0.032,0.104-0.084l1.31-4.901h1.335v6.321h-0.716v-5.701
			c0-0.052-0.034-0.079-0.06-0.079c-0.034,0-0.069,0.018-0.086,0.062l-1.517,5.719H97.521z"/>
		<path d="M105.813,47.769h-2.499l-0.396,1.318h-0.922l2.042-6.321h0.99l2.136,6.321h-0.921L105.813,47.769z M105.562,47.037
			l-1-3.222c-0.007-0.017-0.017-0.033-0.041-0.033c-0.027,0-0.035,0.024-0.043,0.044l-0.94,3.211H105.562z"/>
		<path d="M108.445,42.766h1.12l1.835,4.064c0,0.01,0.248,0.62,0.258,0.629c0.042,0.112,0.224,0.611,0.258,0.715
			c0.018,0,0.035,0.007,0.051,0.007c0.036-0.033,0.036-0.041,0.036-0.128c0-0.095-0.036-0.523-0.036-0.609
			c-0.016-0.397-0.016-0.725-0.016-0.94v-3.737h0.723v6.321h-1.102l-1.844-4.109c-0.231-0.524-0.465-1.206-0.508-1.343
			c-0.009-0.008-0.034-0.008-0.044-0.016c-0.051,0.042-0.051,0.052-0.051,0.093c0,0.181,0.044,1.129,0.044,1.173v4.202h-0.725
			V42.766z"/>
		<path d="M114.343,48.526h0.534v-5.186h-0.534v-0.575h1.989v0.575h-0.56v5.186h0.56v0.561h-1.989V48.526z"/>
		<path d="M121.938,42.766v0.803h-1.837v5.519h-0.903v-5.519h-1.842v-0.803H121.938z"/>
		<path d="M122.95,48.526h0.535v-5.186h-0.535v-0.575h1.989v0.575h-0.559v5.186h0.559v0.561h-1.989V48.526z"/>
		<path d="M126.653,42.766h3.928v0.774h-3.023v1.834h2.23v0.801h-2.213v2.109h3.168v0.803h-4.09V42.766z"/>
		<path d="M135.22,44.419c-0.293-0.585-0.568-1.016-1.3-1.016c-0.389,0-0.966,0.224-0.966,0.834c0,0.568,0.483,0.81,0.689,0.903
			l1.258,0.571c0.215,0.104,0.681,0.359,0.948,0.825c0.076,0.147,0.215,0.389,0.215,0.852c0,0.596-0.215,1.085-0.621,1.431
			c-0.517,0.448-1.033,0.448-1.368,0.448c-0.389,0-1.008-0.13-1.448-0.5c-0.403-0.335-0.559-0.655-0.704-0.956l0.757-0.475
			c0.181,0.51,0.603,1.137,1.456,1.137c0.532,0,1.11-0.326,1.11-1.015c0-0.292-0.112-0.663-0.774-0.964l-1.12-0.508
			c-0.388-0.172-0.845-0.491-1.042-0.847c-0.086-0.152-0.189-0.438-0.189-0.877c0-0.957,0.81-1.626,1.8-1.626
			c0.965,0,1.651,0.481,2.04,1.341L135.22,44.419z"/>
		<path d="M140.021,42.766h1.947c1.766,0,2.145,1.068,2.145,1.713c0,1.189-0.783,1.509-1.353,1.688l1.655,2.92h-1.034l-1.499-2.809
			h-0.973v2.809h-0.889V42.766z M140.9,43.506v2.093c0.482,0.01,1.103,0.01,1.431-0.059c0.345-0.079,0.889-0.26,0.889-0.965
			c0-0.741-0.503-1.069-1.448-1.069H140.9z"/>
		<path d="M145.766,42.766h3.926v0.774h-3.021v1.834h2.229v0.801h-2.214v2.109h3.169v0.803h-4.089V42.766z"/>
		<path d="M154.331,44.419c-0.292-0.585-0.567-1.016-1.3-1.016c-0.389,0-0.965,0.224-0.965,0.834c0,0.568,0.482,0.81,0.689,0.903
			l1.257,0.571c0.215,0.104,0.681,0.359,0.948,0.825c0.077,0.147,0.215,0.389,0.215,0.852c0,0.596-0.215,1.085-0.62,1.431
			c-0.517,0.448-1.034,0.448-1.37,0.448c-0.388,0-1.006-0.13-1.447-0.5c-0.404-0.335-0.559-0.655-0.705-0.956l0.757-0.475
			c0.183,0.51,0.604,1.137,1.457,1.137c0.532,0,1.111-0.326,1.111-1.015c0-0.292-0.113-0.663-0.777-0.964l-1.118-0.508
			c-0.387-0.172-0.845-0.491-1.044-0.847c-0.085-0.152-0.188-0.438-0.188-0.877c0-0.957,0.808-1.626,1.8-1.626
			c0.966,0,1.652,0.481,2.041,1.341L154.331,44.419z"/>
		<path d="M156.767,42.766h3.928v0.774h-3.024v1.834h2.231v0.801h-2.214v2.109h3.17v0.803h-4.091V42.766z"/>
		<path d="M165.584,47.769h-2.499l-0.396,1.318h-0.921l2.041-6.321h0.992l2.135,6.321h-0.921L165.584,47.769z M165.332,47.037
			l-0.997-3.222c-0.01-0.017-0.017-0.033-0.043-0.033c-0.028,0-0.035,0.024-0.043,0.044l-0.94,3.211H165.332z"/>
		<path d="M168.251,42.766h1.946c1.764,0,2.145,1.068,2.145,1.713c0,1.189-0.784,1.509-1.353,1.688l1.653,2.92h-1.034l-1.496-2.809
			h-0.975v2.809h-0.887V42.766z M169.129,43.506v2.093c0.481,0.01,1.103,0.01,1.432-0.059c0.342-0.079,0.886-0.26,0.886-0.965
			c0-0.741-0.5-1.069-1.448-1.069H169.129z"/>
		<path d="M176.705,44.6c-0.068-0.613-0.361-1.162-1.052-1.162c-0.627,0-0.894,0.49-1.03,0.826
			c-0.234,0.569-0.262,1.448-0.262,1.515c0,1.389,0.252,2.739,1.292,2.739c0.501,0,0.76-0.361,0.838-0.48
			c0.172-0.294,0.207-0.656,0.224-0.863l0.861,0.155c-0.036,0.5-0.216,1.042-0.595,1.421c-0.544,0.544-1.162,0.544-1.403,0.544
			c-0.518,0-2.075-0.269-2.075-3.307c0-1.457,0.369-3.299,2.15-3.299c0.404,0,0.932,0.119,1.318,0.515
			c0.431,0.44,0.517,0.94,0.561,1.241L176.705,44.6z"/>
		<path d="M179.32,42.766h0.88v2.651h2.254v-2.651h0.88v6.321h-0.88v-2.912H180.2v2.912h-0.88V42.766z"/>
	</g>
	<path d="M56.152,33.436l8.365-0.023l8.354,15.651h5.761l-9.217-16.274c3.167-1.008,7.537-2.784,7.537-9.409
		c0-3.6-2.11-9.554-11.954-9.554h-6.966v4.129h5.861c5.282,0,8.066,1.824,8.066,5.953c0,3.936-3.024,4.944-4.945,5.376
		c-1.747,0.368-2.903,0.382-5.535,0.341L56.152,33.436z"/>
	<polygon points="59.739,29.632 54.405,29.633 54.405,13.826 49.507,13.826 49.507,29.625 36.929,29.625 36.929,13.826 
		32.034,13.826 32.034,29.633 32.034,29.633 26.935,33.436 32.034,33.436 32.034,49.063 36.929,49.063 36.929,33.436 49.507,33.436 
		49.507,49.063 54.405,49.063 54.405,33.41 54.405,33.414 	"/>
	<polygon points="30.432,29.633 25.287,29.633 25.287,17.049 28.408,17.049 28.408,13.833 17.318,13.833 17.318,17.049 
		20.294,17.049 20.294,45.939 17.318,45.939 17.318,49.061 28.408,49.061 28.408,45.939 25.287,45.939 25.287,33.41 25.287,33.41 	
		"/>
</g>
</svg>
