<svg enable-background="new 0 0 200 61" height="61" viewBox="0 0 200 61" width="200" xmlns="http://www.w3.org/2000/svg"><path d="m0 0h200v61h-200z" fill="#fff"/><path d="m60.169 30.861c0 1.082-.888 1.954-1.992 1.954-1.096 0-1.989-.872-1.989-1.954 0-1.08.893-1.954 1.989-1.954 1.103.001 1.992.876 1.992 1.954"/><path d="m56.971 13.732c-.058-.974.334-1.153 1.21-1.151.871.002 1.266.18 1.203 1.155l-.83 11.92c-.035.268-.155.855-.396.855-.244 0-.362-.592-.394-.855z"/><path d="m69.665 17.911c.665-.729 1.068-.582 1.687.027.616.606.766 1.003.018 1.651l-9.176 7.854c-.216.165-.728.499-.896.331-.173-.169.171-.67.338-.878z"/><path d="m75.63 29.676c.994-.054 1.175.328 1.175 1.189-.002.853-.184 1.238-1.179 1.179l-12.146-.814c-.272-.034-.873-.153-.873-.388 0-.24.605-.354.875-.388z"/><path d="m71.372 42.134c.743.649.595 1.048-.025 1.654-.618.604-1.024.75-1.684.017l-8.001-9.003c-.166-.214-.508-.713-.336-.883.171-.169.683.171.896.335z"/><path d="m59.384 47.988c.057.978-.333 1.154-1.21 1.154-.871-.003-1.265-.181-1.204-1.156l.832-11.921c.034-.268.153-.857.396-.857s.361.594.394.859z"/><path d="m44.985 19.586c-.744-.647-.597-1.046.023-1.653.618-.604 1.024-.75 1.684-.018l8.001 9.005c.168.21.509.712.338.877-.173.171-.684-.169-.897-.331z"/><path d="m60.366 25.375c-.114.367-.152.761-.269 1.124-.109.341-.178.444-.519.338-.547-.173.074-2.089.167-2.371.797-2.45 4.329-4.853 5.029-6.997.394-1.214-.214-2.551-1.509-2.956-1.12-.35-1.59.312-1.987.185-.117-.035-.165-.176-.127-.29.172-.535 1.371-1.306 3.559-.624 1.778.559 2.813 2.436 2.242 4.183-.962 2.96-5.33 3.547-6.586 7.408"/><path d="m63.68 28.501c-.349.18-.657.433-1.001.607-.324.165-.446.192-.611-.12-.261-.501 1.56-1.424 1.827-1.56 2.329-1.179 6.556-.428 8.597-1.458 1.15-.584 1.687-1.952 1.062-3.134-.538-1.026-1.347-.886-1.54-1.251-.057-.104.009-.239.12-.294.507-.258 1.911.028 2.966 2.031.853 1.63.235 3.674-1.428 4.512-2.813 1.422-6.322-1.193-9.992.667"/><path d="m63.769 33.01c-.375-.114-.776-.15-1.147-.266-.348-.105-.451-.172-.343-.507.174-.539 2.127.074 2.414.161 2.497.784 4.947 4.249 7.132 4.937 1.233.387 2.597-.21 3.008-1.48.36-1.096-.313-1.559-.187-1.95.036-.113.181-.164.298-.123.544.168 1.333 1.345.634 3.493-.571 1.747-2.483 2.759-4.263 2.198-3.017-.947-3.611-5.231-7.546-6.463"/><path d="m60.583 36.258c-.183-.34-.44-.644-.619-.983-.169-.314-.195-.436.122-.599.51-.258 1.452 1.528 1.59 1.793 1.2 2.287.435 6.437 1.487 8.437.595 1.131 1.988 1.658 3.194 1.043 1.044-.527.899-1.321 1.274-1.511.105-.055.243.012.297.119.264.497-.027 1.874-2.069 2.911-1.658.836-3.741.226-4.599-1.403-1.449-2.76 1.216-6.203-.677-9.807"/><path d="m55.988 36.349c.117-.367.153-.764.271-1.126.109-.34.177-.444.518-.337.546.172-.075 2.088-.168 2.369-.799 2.453-4.328 4.854-5.027 6.997-.393 1.213.213 2.553 1.509 2.952 1.118.354 1.587-.306 1.987-.184.115.036.165.176.129.294-.173.532-1.375 1.309-3.562.618-1.779-.557-2.811-2.434-2.242-4.18.963-2.956 5.328-3.543 6.585-7.403"/><path d="m52.585 28.712c.378.115.777.151 1.148.266.347.106.453.173.343.508-.175.537-2.128-.073-2.415-.164-2.498-.784-4.945-4.248-7.131-4.935-1.233-.386-2.599.209-3.009 1.479-.358 1.098.315 1.561.189 1.954-.036.112-.182.16-.297.123-.546-.171-1.334-1.347-.636-3.492.571-1.747 2.481-2.759 4.261-2.201 3.019.946 3.612 5.229 7.547 6.462"/><path d="m55.771 25.461c.185.344.441.646.619.984.169.314.195.437-.123.598-.511.26-1.451-1.529-1.588-1.792-1.202-2.289-.436-6.436-1.486-8.438-.594-1.129-1.987-1.654-3.195-1.041-1.044.526-.902 1.32-1.273 1.511-.105.053-.244-.013-.297-.12-.264-.5.027-1.876 2.066-2.91 1.662-.837 3.743-.23 4.6 1.402 1.449 2.762-1.215 6.206.677 9.806"/><path d="m55.059 33.95c-.17-.169-.68.164-.895.329l-5.331 4.562c-.141 1.382-.55 2.686-1.159 3.87l7.045-7.882c.166-.211.512-.713.34-.879"/><path d="m52.874 31.267c.269-.032.875-.148.874-.387 0-.235-.601-.354-.874-.388l-7.175-.481c.495.501.942 1.045 1.334 1.629z"/><path d="m52.461 34.292c.268-.133 2.088-1.057 1.825-1.557-.164-.315-.287-.289-.61-.121-.344.174-.653.427-1.003.607-1.547.783-3.066.769-4.517.598.153.4.283.808.388 1.229 1.443-.087 2.871-.226 3.917-.756"/><path d="m37.702 25.953c1.654 0 3.198.282 4.631.839 1.429.56 2.687 1.347 3.776 2.366 1.085 1.016 1.939 2.227 2.558 3.634.621 1.406.932 2.941.932 4.6 0 1.763-.328 3.375-.98 4.831-.657 1.461-1.553 2.704-2.691 3.738s-2.45 1.83-3.932 2.392c-1.485.558-3.052.837-4.709.837-1.307 0-2.549-.176-3.722-.533-1.171-.355-2.269-.85-3.287-1.478-1.017-.628-1.913-1.39-2.689-2.286-.774-.898-1.421-1.892-1.939-2.972l1.499-.512c.933 1.831 2.302 3.315 4.113 4.452 1.81 1.134 3.82 1.704 6.026 1.704 1.448 0 2.821-.248 4.114-.738 1.296-.492 2.414-1.188 3.364-2.086.945-.898 1.696-1.976 2.251-3.229.55-1.255.827-2.626.827-4.121 0-1.421-.267-2.736-.802-3.938-.533-1.205-1.268-2.239-2.199-3.101-.93-.867-2.017-1.544-3.259-2.037-1.241-.49-2.569-.737-3.982-.737-1.863 0-3.632.406-5.302 1.221-1.673.814-3.043 1.984-4.113 3.509h-1.811c.034-.272.129-.765.284-1.478.157-.709.337-1.549.543-2.515.208-.965.421-2.025.647-3.178.227-1.152.457-2.321.699-3.509.55-2.71 1.172-5.727 1.863-9.048h15.774l-.878 1.678h-13.5l-3.158 15.457c1.139-1.182 2.49-2.108 4.059-2.769s3.233-.993 4.993-.993"/><path d="m90.103 37.242c-.331 0-1.485.044-1.747.044v-.3c.497-.114.802-.556.802-.925v-3.477h-5.602v3.477c0 .369.309.788.827.925v.3c-.26 0-1.439-.044-1.767-.044-.285 0-1.392.044-1.653.044v-.3c.494-.114.802-.556.802-.925v-7.256c0-.348-.283-.789-.802-.926v-.301c.262 0 1.368.046 1.653.046.328 0 1.507-.046 1.767-.046v.301c-.495.117-.827.556-.827.926v2.851h5.602v-2.851c0-.371-.282-.81-.802-.926v-.301c.261 0 1.417.046 1.747.046.284 0 1.415-.046 1.675-.046v.301c-.494.117-.827.556-.827.926v7.256c0 .345.306.788.827.925v.3c-.26 0-1.391-.044-1.675-.044"/><path d="m102.228 37.033c-.379.253-.874.646-.874.646-.331-.3-.966-.926-1.085-1.783-.826.813-1.981 1.552-3.445 1.552-2.027 0-2.901-1.272-2.901-2.824v-4.583c0-.741-.424-1.087-1.204-1.251v-.253l2.736-1.064h.26v5.853c0 1.646.355 2.942 2.028 2.942 1.063 0 1.982-.693 2.456-1.273v-4.953c0-.741-.424-1.087-1.204-1.251v-.253l2.736-1.064h.26v7.778c0 .741.237.926.517.926.169 0 .426-.024.545-.093l.165.368c-.001-.001-.495.257-.99.58"/><path d="m117.93 37.242c-.302 0-1.627.044-1.908.044v-.276c.494-.21 1.039-.466 1.039-.902v-4.515c0-1.644-.097-2.942-1.772-2.942-.94 0-1.862.535-2.406 1.066.023.184.023.394.023.577v5.812c0 .461.497.671 1.061.902v.276c-.306 0-1.673-.044-1.981-.044-.306 0-1.628.044-1.91.044v-.276c.494-.21 1.034-.465 1.034-.902v-4.514c0-1.645-.092-2.943-1.767-2.943-1.062 0-1.888.696-2.357 1.273v6.183c0 .461.496.671 1.062.902v.276c-.309 0-1.676-.044-1.98-.044-.307 0-1.63.044-1.914.044v-.276c.496-.21 1.04-.465 1.04-.902v-6.065c0-.741-.425-1.088-1.205-1.251v-.253l2.642-1.064h.26l.097 1.504c.851-.786 1.818-1.504 3.276-1.504 1.396 0 2.127.625 2.434 1.504.85-.786 2.075-1.504 3.514-1.504 2.03 0 2.642 1.272 2.642 2.822v5.812c0 .461.497.671 1.063.902v.276c-.31.002-1.679-.042-1.987-.042"/><path d="m126.73 32.425h-1.392c-1.391 0-2.617.742-2.617 2.223 0 1.065.731 1.687 1.626 1.687.946 0 1.889-.505 2.383-1.294zm2.03 4.608c-.377.253-.871.646-.871.646-.329-.3-.731-.809-.966-1.458-.686.741-1.793 1.228-3.044 1.228-1.791 0-3.066-.835-3.066-2.708 0-1.761 1.698-2.663 3.42-2.965.473-.068 1.981-.092 2.499-.092v-1.506c0-1.04-.657-1.898-2.099-1.898-1.156 0-1.935.555-2.503 1.529h-.305v-1.876c.897-.252 1.934-.461 3.328-.461 2.809 0 3.372 1.411 3.372 2.965v4.812c0 .741.234.927.519.927.166 0 .426-.025.545-.094l.163.369c0 .001-.495.259-.992.582"/><path d="m138.884 37.242c-.308 0-1.629.044-1.909.044v-.276c.494-.21 1.035-.466 1.035-.902v-4.515c0-1.644-.661-2.942-2.334-2.942-1.062 0-1.985.697-2.452 1.273v6.183c0 .46.492.67 1.059.902v.276c-.307 0-1.673-.044-1.981-.044-.307 0-1.627.044-1.911.044v-.275c.497-.21 1.041-.466 1.041-.902v-6.065c0-.741-.427-1.088-1.204-1.251v-.253l2.642-1.065h.258l.099 1.505c.849-.786 1.905-1.505 3.37-1.505 2.03 0 3.209 1.273 3.209 2.822v5.813c0 .46.498.67 1.062.902v.276c-.312-.001-1.68-.045-1.984-.045"/><path d="m143.885 37.242c-.305 0-1.627.044-1.909.044v-.276c.495-.21 1.036-.466 1.036-.902v-6.065c0-.741-.423-1.088-1.203-1.251v-.253l2.738-1.065h.259v8.635c0 .46.494.67 1.06.902v.276c-.304-.001-1.675-.045-1.981-.045"/><path d="m150.468 37.449c-1.132 0-2.241-.531-2.241-2.708v-6.228h-1.459v-.556l1.271-.37c.68-.602 1.013-1.529 1.2-2.617h.779v2.662h2.902v.879h-2.902v5.926c0 1.228.403 1.645 1.135 1.645.703 0 1.153-.347 1.459-.673l.38.346c-.259.49-1.181 1.694-2.524 1.694"/><path d="m156.133 37.242c-.309 0-1.632.044-1.914.044v-.276c.497-.21 1.04-.466 1.04-.902v-6.065c0-.741-.426-1.088-1.204-1.251v-.253l2.734-1.065h.26v8.635c0 .46.499.67 1.063.902v.276c-.306-.001-1.676-.045-1.979-.045"/><path d="m163.94 28.304c-1.557 0-2.477 1.413-2.688 2.594h4.764c.166-1.158-.589-2.594-2.076-2.594m3.916 3.379h-6.701c-.304 2.663 1.203 4.651 3.443 4.651 1.276 0 2.148-.205 2.738-.806l.401.438c-.52.601-1.581 1.481-3.444 1.481-3.326 0-5.095-1.991-5.095-5.001 0-3.056 2.145-4.977 4.718-4.977 2.498 0 4.128 1.738 4.01 3.727.001.166-.024.373-.07.487"/><path d="m172.646 37.449c-.969 0-2.167-.23-2.972-.463v-2.038h.308c.658 1.159 1.415 1.666 2.642 1.666 1.345 0 2.074-.483 2.074-1.342 0-.555-.28-.927-.779-1.156l-2.921-1.412c-.946-.465-1.535-1.182-1.535-2.315 0-1.899 1.747-2.917 3.608-2.917.967 0 2.169.232 2.972.461v1.97h-.309c-.513-.904-1.389-1.599-2.615-1.599-1.156 0-1.888.603-1.888 1.46 0 .741.284 1.11 1.062 1.48l2.971 1.416c.52.254 1.159.877 1.159 1.943 0 1.828-1.465 2.846-3.777 2.846"/><path d="m81.583 21.918h.757l1.077 1.729h.009v-1.729h.559v2.487h-.732l-1.107-1.769h-.006v1.769h-.557z"/><path d="m85.657 22.643-.308.772h.619zm-.214-.725h.462l1.104 2.487h-.633l-.217-.527h-.985l-.211.527h-.614z"/><path d="m87.535 22.403h-.724v-.485h2.006v.485h-.722v2.002h-.56z"/><path d="m89.202 21.918h.557v2.487h-.557z"/><path d="m91.609 23.963c.475 0 .787-.337.787-.801s-.312-.804-.787-.804c-.479 0-.788.339-.788.804 0 .464.31.801.788.801m0-2.11c.789 0 1.368.51 1.368 1.309 0 .797-.579 1.307-1.368 1.307-.792 0-1.37-.51-1.37-1.307.001-.799.579-1.309 1.37-1.309"/><path d="m93.463 21.918h.762l1.076 1.729h.008v-1.729h.559v2.487h-.73l-1.109-1.769h-.006v1.769h-.56z"/><path d="m97.54 22.643-.307.772h.62zm-.214-.725h.462l1.103 2.487h-.63l-.219-.527h-.986l-.209.527h-.618z"/><path d="m99.276 21.918h.558v1.983h1.034v.504h-1.592z"/><path d="m102.186 21.918h1.723v.505h-1.166v.465h1.101v.505h-1.101v.508h1.23v.504h-1.787z"/><path d="m104.527 21.918h.759l1.077 1.729h.01v-1.729h.559v2.487h-.733l-1.106-1.769h-.006v1.769h-.56z"/><path d="m108.114 23.901h.288c.52 0 .91-.196.91-.761 0-.487-.397-.717-.87-.717h-.328zm-.559-1.983h.836c.817 0 1.504.34 1.504 1.25 0 .805-.672 1.237-1.427 1.237h-.913z"/><path d="m111.614 23.963c.475 0 .788-.337.788-.801s-.313-.804-.788-.804c-.479 0-.791.339-.791.804 0 .464.313.801.791.801m0-2.11c.79 0 1.367.51 1.367 1.309 0 .797-.576 1.307-1.367 1.307-.792 0-1.37-.51-1.37-1.307 0-.799.578-1.309 1.37-1.309"/><path d="m113.204 21.918h.608l.406 1.596h.008l.528-1.596h.519l.528 1.635h.008l.425-1.635h.568l-.744 2.487h-.498l-.558-1.721h-.008l-.556 1.721h-.482z"/><path d="m117.155 21.918h.846l.584 1.624h.007l.587-1.624h.842v2.487h-.559v-1.908h-.008l-.667 1.908h-.423l-.644-1.908h-.006v1.908h-.559z"/><path d="m120.666 21.918h1.721v.505h-1.162v.465h1.099v.505h-1.099v.508h1.229v.504h-1.788z"/><path d="m123.009 21.918h.757l1.08 1.729h.007v-1.729h.561v2.487h-.733l-1.105-1.769h-.008v1.769h-.559z"/><path d="m126.526 22.403h-.724v-.485h2.007v.485h-.724v2.002h-.559z"/><path d="m129.105 21.918h1.701v.505h-1.141v.506h1.057v.506h-1.057v.97h-.56z"/><path d="m132.548 23.963c.478 0 .788-.337.788-.801s-.311-.804-.788-.804-.787.339-.787.804c-.001.464.31.801.787.801m0-2.11c.792 0 1.37.51 1.37 1.309 0 .797-.576 1.307-1.37 1.307-.79 0-1.367-.51-1.367-1.307 0-.799.577-1.309 1.367-1.309"/><path d="m134.965 22.946h.326c.204 0 .473-.006.473-.278 0-.249-.231-.288-.436-.288h-.363zm-.561-1.028h.98c.521 0 .957.174.957.755 0 .348-.19.619-.546.68l.643 1.051h-.671l-.528-.993h-.274v.993h-.561z"/><path d="m138.206 22.403h-.725v-.485h2.005v.485h-.719v2.002h-.561z"/><path d="m139.88 21.918h.558v.926h1.083v-.926h.559v2.487h-.559v-1.074h-1.083v1.074h-.558z"/><path d="m142.727 21.918h1.723v.505h-1.167v.465h1.102v.505h-1.102v.508h1.233v.504h-1.789z"/><path d="m130.337 40.514h2.58v.619h-1.885v1.113h1.669v.599h-1.669v1.487h-.695z"/><path d="m134.799 40.514h.698v3.818h-.698z"/><path d="m137.709 40.514h2.579v.619h-1.885v1.113h1.671v.599h-1.671v1.487h-.694z"/><path d="m141.667 40.514h3.338v.619h-1.306v3.199h-.705v-3.199h-1.327z"/><path d="m149.809 40.514-1.456 2.307v1.511h-.707v-1.516l-1.454-2.302h.805l1.013 1.69 1.01-1.69z"/><path d="m157.672 40.514-1.456 2.307v1.511h-.706v-1.516l-1.455-2.302h.804l1.012 1.69 1.013-1.69z"/><path d="m159.366 40.514h2.584v.619h-1.884v1.071h1.706v.598h-1.706v.911h1.884v.619h-2.584z"/><path d="m164.805 43.035h1.209l-.604-1.315zm-.591 1.297h-.734l1.86-3.851h.159l1.862 3.851h-.748l-.354-.761h-1.704z"/><path d="m169.723 41.133v1.494h.519c.656 0 .881-.335.881-.755 0-.418-.22-.739-.881-.739zm-.702-.619h1.273c1.055 0 1.585.56 1.585 1.358 0 .527-.228.944-.724 1.168l1.017 1.292h-.818l-.841-1.124c-.115.01-.231.016-.355.016h-.435v1.108h-.702z"/><path d="m174.985 44.397c-.469 0-.938-.152-1.299-.364l.241-.608c.329.212.725.342 1.081.342.468 0 .683-.223.683-.468 0-.255-.147-.406-.863-.66-.773-.273-1.04-.627-1.04-1.083 0-.574.487-1.106 1.333-1.106.423 0 .842.119 1.095.259l-.224.6c-.234-.125-.581-.258-.89-.258-.416 0-.609.224-.609.49 0 .241.215.396.775.591.888.331 1.14.67 1.14 1.168 0 .679-.536 1.097-1.423 1.097"/></svg>