<svg id="_x2014_ÎÓÈ_x5F_1" xmlns="http://www.w3.org/2000/svg" viewBox="0 0 612 333"><style>.st0{opacity:.41}.st1{opacity:.23}.st2{fill:#FFF}.st3{opacity:.16;fill:#4d4d4d;enable-background:new}.st4{fill:#303030}.st5{fill:#212121}.st6{opacity:.61}.st7{fill:#56b3db}.st8{fill:#78c2e2}.st9{opacity:.26;fill:#999}.st9,.st10{enable-background:new}.st10{opacity:.67;fill:#e5e5e5}.st11{fill:#ddb01f}.st12{fill:#f2f2f2}.st13{fill:#DDD}.st14{fill:#ffcc29}.st15{fill:#ffd45c}.st16{fill:#fd1a16}</style><g class="st0"><path class="st1 st2" d="M261.3 205.3c-2.1 0-3.8 1.7-3.8 3.8s1.7 3.8 3.8 3.8 3.8-1.7 3.8-3.8-1.7-3.8-3.8-3.8zm0 6.8c-1.6 0-2.9-1.3-2.9-2.9s1.3-2.9 2.9-2.9 2.9 1.3 2.9 2.9-1.3 2.9-2.9 2.9zm29-182.2c-2.1 0-3.8 1.7-3.8 3.8 0 2.1 1.7 3.8 3.8 3.8s3.8-1.7 3.8-3.8-1.7-3.8-3.8-3.8zm0 6.7c-1.6 0-2.9-1.3-2.9-2.9 0-1.6 1.3-2.9 2.9-2.9s2.9 1.3 2.9 2.9c0 1.6-1.3 2.9-2.9 2.9zm-170.2 3.6c-3.3 0-5.9 2.6-5.9 5.9 0 3.3 2.6 5.9 5.9 5.9s5.9-2.6 5.9-5.9c0-3.3-2.6-5.9-5.9-5.9zm0 10.4c-2.5 0-4.5-2-4.5-4.5s2-4.5 4.5-4.5 4.5 2 4.5 4.5-2 4.5-4.5 4.5zm-11.3 131.2c-1.4 0-2.5 1.1-2.5 2.5s1.1 2.5 2.5 2.5 2.5-1.1 2.5-2.5-1.1-2.5-2.5-2.5zm0 4.5c-1.1 0-1.9-.9-1.9-1.9s.9-1.9 1.9-1.9 1.9.9 1.9 1.9-.9 1.9-1.9 1.9zm23.4 18c-2.2 0-4 1.8-4 4s1.8 4 4 4 4-1.8 4-4-1.8-4-4-4zm0 7c-1.7 0-3-1.4-3-3s1.4-3 3-3c1.7 0 3 1.4 3 3s-1.3 3-3 3zm76.2-17.8c-.9 0-1.7.8-1.7 1.7s.8 1.7 1.7 1.7 1.7-.8 1.7-1.7-.7-1.7-1.7-1.7zm0 3c-.7 0-1.3-.6-1.3-1.3s.6-1.3 1.3-1.3 1.3.6 1.3 1.3-.6 1.3-1.3 1.3zM176.7 39.3c-.9 0-1.7.8-1.7 1.7s.8 1.7 1.7 1.7 1.7-.8 1.7-1.7-.8-1.7-1.7-1.7zm0 3c-.7 0-1.3-.6-1.3-1.3 0-.7.6-1.3 1.3-1.3s1.3.6 1.3 1.3c0 .7-.6 1.3-1.3 1.3zm-119.8 52c-1.4 0-2.5 1.1-2.5 2.5s1.1 2.5 2.5 2.5 2.5-1.1 2.5-2.5-1.1-2.5-2.5-2.5zm0 4.5c-1.1 0-1.9-.9-1.9-1.9s.9-1.9 1.9-1.9 1.9.9 1.9 1.9-.9 1.9-1.9 1.9zm210.3 9.2c-2.8 0-5 2.2-5 5s2.2 5 5 5 5-2.2 5-5c.1-2.8-2.2-5-5-5zm0 8.9c-2.1 0-3.9-1.7-3.9-3.9 0-2.1 1.7-3.9 3.9-3.9 2.1 0 3.9 1.7 3.9 3.9 0 2.1-1.7 3.9-3.9 3.9zM267 63l-1.8 1.3-1.3-1.8c-.2-.3-.5-.3-.8-.1-.3.2-.3.5-.1.8l1.3 1.8-1.8 1.3c-.3.2-.3.5-.1.8.2.3.5.3.8.1l1.8-1.3 1.3 1.8c.2.3.5.3.8.1.3-.2.3-.5.1-.8l-1.3-1.8 1.8-1.3c.3-.2.3-.5.1-.8-.2-.2-.5-.3-.8-.1zM42.4 42.3l-1.8 1.3-1.3-1.9c-.2-.3-.5-.3-.8-.1-.3.2-.3.5-.1.8l1.3 1.8-1.9 1.3c-.3.2-.3.5-.1.8s.5.3.8.1l1.8-1.3 1.3 1.8c.2.3.5.3.8.1s.3-.5.1-.8l-1.3-1.7 1.8-1.3c.3-.2.3-.5.1-.8-.1-.2-.4-.3-.7-.1zm247.5 99l-1.8 1.3-1.3-1.8c-.2-.3-.5-.3-.8-.1-.3.2-.3.5-.1.8l1.3 1.8-1.9 1.2c-.3.2-.3.5-.1.8.2.3.5.3.8.1l1.8-1.3 1.3 1.8c.2.3.5.3.8.1s.3-.5.1-.8l-1.3-1.8 1.8-1.3c.3-.2.3-.5.1-.8-.1-.1-.4-.2-.7 0zm2.4 77l-1.8 1.3-1.3-1.8c-.2-.3-.5-.3-.8-.1s-.3.5-.1.8l1.3 1.8-1.8 1.3c-.3.2-.3.5-.1.8.2.3.5.3.8.1l1.8-1.3 1.3 1.8c.2.3.5.3.8.1s.3-.5.1-.8l-1.3-1.8 1.8-1.3c.3-.2.3-.5.1-.8-.2-.2-.5-.2-.8-.1zM226.5 38.6l-.6 3.2-3.2-.6c-.4-.1-.9.2-1 .7-.1.4.2.9.7 1l3.2.6-.6 3.2c-.1.4.2.9.7 1 .4.1.9-.2 1-.7l.6-3.2 3.2.6c.4.1.9-.2 1-.7.1-.4-.2-.9-.7-1l-3.2-.6.6-3.2c.1-.4-.2-.9-.7-1-.5-.1-.9.2-1 .7zM36 171.7l-1.8 1.3-1.3-1.8c-.2-.3-.5-.3-.8-.1-.3.2-.3.5-.1.8l1.3 1.8-1.8 1.3c-.3.2-.3.5-.1.8.2.3.5.3.8.1l1.8-1.3 1.3 1.8c.2.3.5.3.8.1s.3-.5.1-.8l-1.3-1.8 1.8-1.3c.3-.2.3-.5.1-.8-.2-.2-.5-.3-.8-.1zm16.6 39.2l-1.8 1.3-1.3-1.8c-.2-.3-.5-.3-.8-.1s-.3.5-.1.8l1.3 1.8-1.8 1.3c-.3.2-.3.5-.1.8.2.3.5.3.8.1l1.8-1.3 1.3 1.8c.2.3.5.3.8.1s.3-.5.1-.8l-1.3-1.8 1.8-1.3c.3-.2.3-.5.1-.8-.2-.2-.6-.3-.8-.1zM71.4 76.4L69.1 72l4.4-2.3c.6-.3.9-1.1.5-1.7-.3-.6-1.1-.9-1.7-.5l-4.4 2.3-2.3-4.4c-.3-.6-1.1-.9-1.7-.5-.6.3-.9 1.1-.5 1.7l2.3 4.4-4.4 2.2c-.6.3-.9 1.1-.5 1.7.3.6 1.1.9 1.7.5l4.4-2.3 2.3 4.4c.3.6 1.1.9 1.7.5.6-.2.9-1 .5-1.6zM247.2 282.2c-3.2 0-5.8 2.6-5.8 5.8s2.6 5.8 5.8 5.8 5.8-2.6 5.8-5.8-2.6-5.8-5.8-5.8zm0 10.2c-2.5 0-4.5-2-4.5-4.5s2-4.5 4.5-4.5 4.5 2 4.5 4.5-2 4.5-4.5 4.5zm43.1-176.8c-2.1 0-3.8 1.7-3.8 3.8 0 2.1 1.7 3.8 3.8 3.8s3.8-1.7 3.8-3.8c0-2.1-1.7-3.8-3.8-3.8zm0 6.7c-1.6 0-2.9-1.3-2.9-2.9s1.3-2.9 2.9-2.9 2.9 1.3 2.9 2.9-1.3 2.9-2.9 2.9zM120.1 96.8c-3.3 0-5.9 2.6-5.9 5.9s2.6 5.9 5.9 5.9 5.9-2.6 5.9-5.9c0-3.2-2.6-5.9-5.9-5.9zm0 10.5c-2.5 0-4.5-2-4.5-4.5s2-4.5 4.5-4.5 4.5 2 4.5 4.5c0 2.4-2 4.5-4.5 4.5zm-11.3 160.2c-1.4 0-2.5 1.1-2.5 2.5s1.1 2.5 2.5 2.5 2.5-1.1 2.5-2.5-1.1-2.5-2.5-2.5zm0 4.4c-1.1 0-1.9-.9-1.9-1.9s.9-1.9 1.9-1.9 1.9.9 1.9 1.9-.9 1.9-1.9 1.9zm23.4 18.1c-2.2 0-4 1.8-4 4s1.8 4 4 4 4-1.8 4-4-1.8-4-4-4zm0 7c-1.7 0-3-1.4-3-3s1.4-3 3-3c1.7 0 3 1.4 3 3s-1.3 3-3 3zm76.2-17.8c-.9 0-1.7.8-1.7 1.7 0 .9.8 1.7 1.7 1.7s1.7-.8 1.7-1.7c0-1-.7-1.7-1.7-1.7zm0 3c-.7 0-1.3-.6-1.3-1.3 0-.7.6-1.3 1.3-1.3s1.3.6 1.3 1.3c0 .7-.6 1.3-1.3 1.3zM176.7 125c-.9 0-1.7.8-1.7 1.7 0 .9.8 1.7 1.7 1.7s1.7-.8 1.7-1.7c0-1-.8-1.7-1.7-1.7zm0 3c-.7 0-1.3-.6-1.3-1.3 0-.7.6-1.3 1.3-1.3s1.3.6 1.3 1.3c0 .7-.6 1.3-1.3 1.3zM56.9 180c-1.4 0-2.5 1.1-2.5 2.5s1.1 2.5 2.5 2.5 2.5-1.1 2.5-2.5-1.1-2.5-2.5-2.5zm0 4.5c-1.1 0-1.9-.9-1.9-1.9s.9-1.9 1.9-1.9 1.9.9 1.9 1.9-.9 1.9-1.9 1.9zm121.5-18.6c-2.8 0-5 2.2-5 5s2.2 5 5 5 5-2.2 5-5-2.2-5-5-5zm0 8.8c-2.1 0-3.9-1.7-3.9-3.9 0-2.1 1.7-3.9 3.9-3.9 2.1 0 3.9 1.7 3.9 3.9-.1 2.2-1.8 3.9-3.9 3.9zm88.6-26l-1.8 1.3-1.3-1.8c-.2-.3-.5-.3-.8-.1-.3.2-.3.5-.1.8l1.3 1.8-1.8 1.3c-.3.2-.3.5-.1.8.2.3.5.3.8.1l1.8-1.3 1.3 1.8c.2.3.5.3.8.1.3-.2.3-.5.1-.8l-1.3-1.8 1.8-1.3c.3-.2.3-.5.1-.8-.2-.3-.5-.3-.8-.1zM42.4 128l-1.8 1.3-1.3-1.8c-.2-.3-.5-.3-.8-.1-.3.2-.3.5-.1.8l1.3 1.8-1.8 1.3c-.3.2-.3.5-.1.8.2.3.5.3.8.1l1.8-1.3 1.3 1.8c.2.3.5.3.8.1.3-.2.3-.5.1-.8l-1.3-1.8 1.8-1.3c.3-.2.3-.5.1-.8-.2-.2-.5-.3-.8-.1zm189 109.5l-1.8 1.3-1.3-1.8c-.2-.3-.5-.3-.8-.1s-.3.5-.1.8l1.3 1.8-1.8 1.3c-.3.2-.3.5-.1.8s.5.3.8.1l1.8-1.3 1.3 1.8c.2.3.5.3.8.1s.3-.5.1-.8l-1.3-1.8 1.8-1.3c.3-.2.3-.5.1-.8-.2-.2-.5-.3-.8-.1zm60.9 66.5l-1.8 1.3-1.3-1.8c-.2-.3-.5-.3-.8-.1-.3.2-.3.5-.1.8l1.3 1.8-1.8 1.3c-.3.2-.3.5-.1.8.2.3.5.3.8.1l1.8-1.3 1.3 1.8c.2.3.5.3.8.1.3-.2.3-.5.1-.8l-1.3-1.8 1.8-1.3c.3-.2.3-.5.1-.8-.2-.2-.5-.2-.8-.1zm-65.8-179.8l-.6 3.2-3.2-.6c-.4-.1-.9.2-1 .7-.1.4.2.9.7 1l3.2.6-.6 3.2c-.1.4.2.9.7 1 .4.1.9-.2 1-.7l.6-3.2 3.2.6c.4.1.9-.2 1-.7.1-.4-.2-.9-.7-1l-3.2-.6.6-3.2c.1-.4-.2-.9-.7-1-.5 0-.9.3-1 .7zM36 257.4l-1.8 1.3-1.3-1.8c-.2-.3-.5-.3-.8-.1-.3.2-.3.5-.1.8l1.3 1.8-1.8 1.3c-.3.2-.3.5-.1.8.2.3.5.3.8.1l1.8-1.3 1.3 1.8c.2.3.5.3.8.1s.3-.5.1-.8l-1.3-1.8 1.8-1.3c.3-.2.3-.5.1-.8-.2-.2-.5-.3-.8-.1zm16.6 39.2l-1.8 1.3-1.3-1.8c-.2-.3-.5-.3-.8-.1-.3.2-.3.5-.1.8l1.3 1.8-1.8 1.3c-.3.2-.3.5-.1.8.2.3.5.3.8.1l1.8-1.3 1.3 1.8c.2.3.5.3.8.1.3-.2.3-.5.1-.8l-1.3-1.8 1.8-1.3c.3-.2.3-.5.1-.8-.2-.2-.6-.3-.8-.1zm63.1-58.8l-4.1 2.8-2.8-4.1c-.4-.6-1.2-.7-1.8-.3-.6.4-.7 1.2-.3 1.8l2.8 4.1-4.1 2.8c-.6.4-.7 1.2-.3 1.8.4.6 1.2.7 1.8.3l4.1-2.8 2.8 4.1c.4.6 1.2.7 1.8.3.6-.4.7-1.2.3-1.8l-2.8-4.1 4.1-2.8c.6-.4.7-1.2.3-1.8-.4-.5-1.2-.7-1.8-.3z"/></g><path class="st3" d="M210.7 68.5h-82.6c-7 0-12.7 5.7-12.7 12.7v12.9h-3c-4.8 0-8.6 3.9-8.6 8.6V170c0 3 1.5 5.6 3.9 7.2 1.6 2.2 4.1 3.7 7 3.7h.7v79.8c0 7 5.7 12.7 12.7 12.7h82.6c7 0 12.7-5.7 12.7-12.7V81.2c0-7-5.7-12.7-12.7-12.7z"/><path class="st4" d="M207.6 270H125c-7 0-12.7-5.7-12.7-12.7V77.9c0-7 5.7-12.7 12.7-12.7h82.6c7 0 12.7 5.7 12.7 12.7v179.4c0 7.1-5.7 12.7-12.7 12.7z"/><path class="st2" d="M210.7 80.3h-88.8c-2.9 0-5.3 2.3-5.3 5.2v166.4c0 2.9 2.4 5.2 5.3 5.2h88.8c2.9 0 5.3-2.3 5.3-5.2V85.5c0-2.9-2.4-5.2-5.3-5.2z"/><path class="st5" d="M178 71.3h-23.4c-.8 0-1.5.7-1.5 1.5s.7 1.5 1.5 1.5H178c.8 0 1.5-.7 1.5-1.5 0-.9-.7-1.5-1.5-1.5z"/><circle class="st5" cx="146.7" cy="72.8" r="1.8"/><g class="st6"><path class="st7" d="M121.9 80.3c-2.9 0-5.3 2.3-5.3 5.2v66.9l61.8-72.1h-56.5z"/><path class="st8" d="M216 85.5c0-2.9-2.4-5.2-5.3-5.2h-32.3l-61.8 72.1v58L216 94.5v-9z"/><path class="st7" d="M163 257.2h47.7c2.9 0 5.3-2.3 5.3-5.2v-56.6l-53 61.8zm53-162.8l-99.4 115.9v41.6c0 2.9 2.4 5.2 5.3 5.2h7.2L216 155.7V94.4z"/><path class="st8" d="M216 155.8l-86.9 101.4H163l53-61.9v-39.5z"/></g><path class="st9" d="M197.3 93h-85.7c-4.8 0-8.6 3.9-8.6 8.6v67.3c0 4.8 3.9 8.6 8.6 8.6h41.5l21.6 19.9 21.9-19.9h.6c4.8 0 8.6-3.9 8.6-8.6v-67.3c.1-4.7-3.7-8.6-8.5-8.6z"/><path class="st2" d="M195 90.8h-85.7c-4.8 0-8.6 3.9-8.6 8.6v67.3c0 4.8 3.9 8.6 8.6 8.6h41.5l21.6 19.9 21.9-19.9h.6c4.8 0 8.6-3.9 8.6-8.6V99.4c.1-4.8-3.7-8.6-8.5-8.6z"/><path class="st10" d="M187.5 127c0-4.1-3.3-7.4-7.4-7.4-1.2 0-2.3.3-3.3.8v-13.9h-18.7l-1.2-1c-1.6-1.3-3.9-1.3-5.4 0l-1.2 1h-18.8v15.9L126 127v36.3h56.3V134c3.1-1 5.2-3.7 5.2-7z"/><path class="st11" d="M149.4 103.5L123.9 125v36.3h56.4V125l-25.4-21.5c-1.6-1.3-3.9-1.3-5.5 0z"/><path class="st12" d="M129.5 104.5h45.3V160h-45.3v-55.5z"/><path class="st13" d="M132.7 154.8h38.7v1.5h-38.7v-1.5zm.2-4h38.6v1.5h-38.6v-1.5zm-.2-5.6h38.7v1.5h-38.7v-1.5zm0-4h38.7v1.5h-38.7v-1.5zm0-8.8h38.7v1.5h-38.7v-1.5zm0-4h38.7v1.5h-38.7v-1.5zm.1-4.1h38.7v1.5h-38.7v-1.5zm.1-16.2h38.6v1.5h-38.6v-1.5zm-.2 12.2h38.7v1.5h-38.7v-1.5zm0-4.1h38.7v1.5h-38.7v-1.5zm0-4h38.7v1.5h-38.7v-1.5zm2.7 25h36.1v1.5h-36.1v-1.5z"/><path class="st14" d="M124 125l28.2 18.2-28.2 18.1V125zm56.3 36.3l-28.1-18.1 28.1-18.2v36.3z"/><path class="st15" d="M124 161.3l26.1-21.9c1.2-1 3-1 4.2 0l26.1 21.9H124z"/><circle class="st16" cx="178.4" cy="125.8" r="7.4"/><path class="st2" d="M178 130v-6.7h-1v-1.7h2.8v8.4H178z"/></svg>