<svg xmlns="http://www.w3.org/2000/svg" viewBox="0 0 300 50"><style>.st0{fill:#eaeaea}.st1{fill:#0076b3}.st2{fill:#e32e27}.st2,.st3{fill-rule:evenodd;clip-rule:evenodd}.st3{fill:#FFF}.st4{fill:#0276b3}</style><path class="st0" d="M300 40c0 5.5-4.5 10-10 10H10C4.5 50 0 45.5 0 40V10C0 4.5 4.5 0 10 0h280c5.5 0 10 4.5 10 10v30z" id="background"/><path class="st1" d="M279.4 9.4h-7.9l9.1 15.8-9.1 15.9h7.9l9.1-15.9z" id="Layer_2"/><g id="Layer_3"><g id="Layer_x0020_1"><path class="st2" d="M62.9 10c-1-.9-2.3-1.5-3.6-1.7-3-.3-6-.5-9.1-.6-3-.1-6.1-.1-9.1-.1s-6.1 0-9.1.1-6.1.3-9.1.6c-1.4.2-2.6.7-3.6 1.7-1 .9-1.7 2.1-2 3.5-.4 1.9-.6 3.8-.8 5.8-.1 2-.1 3.9-.1 5.8s0 3.8.1 5.8.3 3.9.8 5.8c.3 1.4 1 2.6 2 3.5 1 .9 2.3 1.5 3.6 1.7 3 .3 6 .5 9.1.6 3 .1 6.1.1 9.1.1s6.1 0 9.1-.1 6.1-.3 9.1-.6c1.4-.2 2.6-.7 3.6-1.7 1-.9 1.7-2.1 2-3.5.4-1.9.6-3.8.8-5.8.1-1.9.1-3.9.1-5.8V25c0-3.8 0-7.8-.8-11.5-.4-1.4-1.1-2.6-2.1-3.5z"/><path class="st3" d="M50.4 24.1c-2.8-1.5-5.6-2.9-8.4-4.4-2.3-1.2-4.6-2.4-7-3.6l-.8-.4V33.5l.8-.4c2.6-1.3 5.1-2.7 7.7-4l7.7-4 .9-.5-.9-.5z"/></g><path class="st4" d="M94 18.7l1.5-8.4h2.3L95.3 22H93l-1.9-7.9-1.9 7.9h-2.4l-2.5-11.7h2.3l1.5 8.3 1.9-8.3h2l2 8.4zM105.3 19.7h-4.1l-.8 2.4h-2.5l4.3-11.7h2.2l4.3 11.7h-2.5l-.9-2.4zm-3.5-2h2.9l-1.4-4.4-1.5 4.4zM117.3 12.3h-3.5v9.8h-2.4v-9.8H108v-2h9.3v2zM127.4 18.2c-.1 1.3-.5 2.3-1.4 3-.8.7-1.9 1.1-3.2 1.1-1.5 0-2.6-.5-3.5-1.5-.8-1-1.3-2.4-1.3-4.2v-.7c0-1.1.2-2.1.6-3 .4-.9.9-1.5 1.7-2s1.6-.7 2.5-.7c1.3 0 2.4.4 3.2 1.1.8.7 1.3 1.7 1.4 3.1H125c-.1-.8-.3-1.3-.6-1.6-.4-.3-.9-.5-1.6-.5-.8 0-1.4.3-1.8.9-.4.6-.6 1.5-.6 2.7v.9c0 1.3.2 2.2.6 2.8.4.6 1 .9 1.8.9.7 0 1.3-.2 1.6-.5.4-.3.6-.9.6-1.6h2.4zM138.2 22.1h-2.4v-5h-4.6v5h-2.4V10.3h2.4v4.8h4.6v-4.8h2.4v11.8zM87.5 36.4v4.1h-2.4V28.8h4.5c.9 0 1.6.2 2.3.5.7.3 1.2.8 1.5 1.4.4.6.5 1.3.5 2 0 1.2-.4 2.1-1.1 2.7-.8.7-1.8 1-3.2 1h-2.1zm0-2h2.1c.6 0 1.1-.2 1.4-.5.3-.3.5-.7.5-1.3 0-.6-.2-1-.5-1.4-.3-.4-.8-.5-1.4-.5h-2.2v3.7zM100.5 38.1h-4.1l-.8 2.4h-2.5l4.3-11.7h2.2l4.3 11.7h-2.5l-.9-2.4zm-3.5-2h2.9l-1.4-4.4-1.5 4.4zM110.8 37.4c0-.5-.2-.8-.5-1.1-.3-.2-.9-.5-1.7-.8s-1.5-.5-1.9-.8c-1.3-.7-1.9-1.7-1.9-2.9 0-.6.2-1.2.5-1.7s.8-.9 1.5-1.2c.7-.3 1.4-.4 2.2-.4.8 0 1.5.2 2.2.5.6.3 1.1.7 1.5 1.3.4.6.5 1.2.5 1.9h-2.4c0-.5-.2-1-.5-1.3-.3-.3-.8-.4-1.4-.4-.6 0-1 .1-1.3.4-.3.2-.5.6-.5 1s.2.7.6 1c.4.3.9.5 1.7.7 1.3.4 2.3.9 2.9 1.5.6.6.9 1.4.9 2.3 0 1-.4 1.8-1.1 2.4-.7.6-1.8.9-3 .9-.9 0-1.7-.2-2.4-.5s-1.3-.8-1.7-1.4c-.4-.6-.6-1.2-.6-2h2.4c0 1.3.8 1.9 2.3 1.9.6 0 1-.1 1.3-.4.2-.1.4-.4.4-.9zM123.4 30.7h-3.5v9.8h-2.4v-9.8H114v-2h9.3v2zM135.1 35.4h-4.5v3.1h5.3v1.9h-7.7V28.8h7.6v2h-5.3v2.8h4.5v1.8zM141.5 37.6l2.6-8.8h2.6l-4 11.7h-2.5l-4-11.7h2.6l2.7 8.8zM154.6 35.4h-4.5v3.1h5.3v1.9h-7.7V28.8h7.6v2H150v2.8h4.5v1.8zM166.1 40.5h-2.4l-4.6-7.7v7.7h-2.4V28.8h2.4l4.6 7.7v-7.7h2.3v11.7zM176.5 30.7H173v9.8h-2.4v-9.8h-3.5v-2h9.3v2zM183.7 37.4c0-.5-.2-.8-.5-1.1-.3-.2-.9-.5-1.7-.8-.8-.3-1.5-.5-1.9-.8-1.3-.7-1.9-1.7-1.9-2.9 0-.6.2-1.2.5-1.7s.8-.9 1.5-1.2c.7-.3 1.4-.4 2.2-.4.8 0 1.5.2 2.2.5.6.3 1.1.7 1.5 1.3.4.6.5 1.2.5 1.9h-2.4c0-.5-.2-1-.5-1.3-.3-.3-.8-.4-1.4-.4-.6 0-1 .1-1.3.4-.3.2-.5.6-.5 1s.2.7.6 1c.4.3.9.5 1.7.7 1.3.4 2.3.9 2.9 1.5.6.6.9 1.4.9 2.3 0 1-.4 1.8-1.1 2.4-.7.6-1.8.9-3 .9-.9 0-1.7-.2-2.4-.5s-1.3-.8-1.7-1.4c-.4-.6-.6-1.2-.6-2h2.4c0 1.3.8 1.9 2.3 1.9.6 0 1-.1 1.3-.4.2-.1.4-.4.4-.9z"/><text transform="matrix(.9727 0 0 1 112.083 -73.05)"><tspan x="0" y="0" class="st4" font-family="Roboto-Bold" font-size="16.519">WATCH</tspan><tspan x="0" y="18.4" class="st4" font-family="Roboto-Bold" font-size="16.519">PAST EVENTS</tspan></text></g></svg>