<svg id="Layer_1" xmlns="http://www.w3.org/2000/svg" viewBox="0 0 612 333"><style>.st0{fill:#003c6c}.st1{opacity:.41}.st2{opacity:.23}.st3{fill:#FFF}.st4{fill:#033951}.st5{fill:#f7c123}.st6{fill:#fd1a16}</style><g id="_x2014_ÎÓÈ_x5F_1"><path class="st0" d="M-4-112.8h620v620H-4v-620z"/><g class="st1"><path class="st2 st3" d="M502.3 277.5c-4.3 0-7.9 3.5-7.9 7.9s3.5 7.9 7.9 7.9c4.3 0 7.9-3.5 7.9-7.9s-3.6-7.9-7.9-7.9zm0 13.8c-3.3 0-6-2.7-6-6s2.7-6 6-6 6 2.7 6 6-2.7 6-6 6zm60-376.5c-4.3 0-7.9 3.5-7.9 7.9 0 4.3 3.5 7.9 7.9 7.9 4.3 0 7.9-3.5 7.9-7.9s-3.5-7.9-7.9-7.9zm0 13.9c-3.3 0-6-2.7-6-6s2.7-6 6-6 6 2.7 6 6c.1 3.3-2.6 6-6 6zm-351.8 7.4c-6.7 0-12.2 5.5-12.2 12.2s5.5 12.2 12.2 12.2 12.2-5.5 12.2-12.2c0-6.8-5.5-12.2-12.2-12.2zm0 21.5c-5.2 0-9.4-4.2-9.4-9.4s4.2-9.4 9.4-9.4 9.4 4.2 9.4 9.4c0 5.3-4.2 9.4-9.4 9.4zm-23.4 271.1c-2.9 0-5.3 2.4-5.3 5.3s2.4 5.3 5.3 5.3 5.3-2.4 5.3-5.3-2.4-5.3-5.3-5.3zm0 9.3c-2.2 0-4-1.8-4-4s1.8-4 4-4 4 1.8 4 4-1.8 4-4 4zm48.5 37.3c-4.5 0-8.2 3.7-8.2 8.2s3.7 8.2 8.2 8.2 8.2-3.7 8.2-8.2-3.7-8.2-8.2-8.2zm0 14.5c-3.5 0-6.3-2.8-6.3-6.3s2.8-6.3 6.3-6.3 6.3 2.8 6.3 6.3-2.8 6.3-6.3 6.3zM393 253c-2 0-3.5 1.6-3.5 3.5 0 2 1.6 3.5 3.5 3.5s3.5-1.6 3.5-3.5c.1-1.9-1.5-3.5-3.5-3.5zm0 6.2c-1.5 0-2.7-1.2-2.7-2.7s1.2-2.7 2.7-2.7 2.7 1.2 2.7 2.7c.1 1.5-1.2 2.7-2.7 2.7zM327.4-65.7c-2 0-3.5 1.6-3.5 3.5 0 2 1.6 3.5 3.5 3.5 2 0 3.5-1.6 3.5-3.5.1-1.9-1.5-3.5-3.5-3.5zm0 6.2c-1.5 0-2.7-1.2-2.7-2.7s1.2-2.7 2.7-2.7 2.7 1.2 2.7 2.7-1.2 2.7-2.7 2.7zM79.8 48c-2.9 0-5.3 2.4-5.3 5.3s2.4 5.3 5.3 5.3 5.3-2.4 5.3-5.3c0-3-2.4-5.3-5.3-5.3zm0 9.2c-2.2 0-4-1.8-4-4s1.8-4 4-4 4 1.8 4 4-1.8 4-4 4zm434.8 19.1c-5.7 0-10.4 4.6-10.4 10.4 0 5.7 4.6 10.4 10.4 10.4 5.7 0 10.4-4.6 10.4-10.4s-4.7-10.4-10.4-10.4zm0 18.3c-4.4 0-8-3.6-8-8s3.6-8 8-8 8 3.6 8 8c0 4.5-3.6 8-8 8zm-.4-111.4l-3.8 2.6-2.6-3.8c-.4-.5-1.1-.7-1.6-.3-.5.4-.7 1.1-.3 1.6l2.6 3.8-3.8 2.6c-.5.4-.7 1.1-.3 1.6.4.5 1.1.7 1.6.3l3.8-2.6 2.6 3.8c.4.5 1.1.7 1.6.3.5-.4.7-1.1.3-1.6l-2.6-3.8 3.8-2.6c.5-.4.7-1.1.3-1.6-.3-.5-1.1-.6-1.6-.3zM50-59.5l-3.8 2.6-2.6-3.8c-.4-.5-1.1-.7-1.6-.3s-.7 1.1-.3 1.6l2.6 3.8-3.8 2.6c-.5.4-.7 1.1-.3 1.6s1.1.7 1.6.3l3.8-2.6 2.6 3.8c.4.5 1.1.7 1.6.3s.7-1.1.3-1.6L47.5-55l3.8-2.6c.5-.4.7-1.1.3-1.6s-1.1-.7-1.6-.3zm511.5 204.6l-3.8 2.6-2.6-3.8c-.4-.5-1.1-.7-1.6-.3s-.7 1.1-.3 1.6l2.6 3.8-3.8 2.6c-.5.4-.7 1.1-.3 1.6s1.1.7 1.6.3l3.8-2.6 2.6 3.8c.4.5 1.1.7 1.6.3s.7-1.1.3-1.6l-2.6-3.8 3.8-2.6c.5-.4.7-1.1.3-1.6-.4-.6-1.1-.7-1.6-.3zm4.9 159.2l-3.8 2.6-2.6-3.8c-.4-.5-1.1-.7-1.6-.3-.5.4-.7 1.1-.3 1.6l2.6 3.8-3.8 2.6c-.5.4-.7 1.1-.3 1.6s1.1.7 1.6.3l3.8-2.6 2.6 3.8c.4.5 1.1.7 1.6.3.5-.4.7-1.1.3-1.6l-2.6-3.8 3.8-2.6c.5-.4.7-1.1.3-1.6-.3-.5-1.1-.6-1.6-.3zm-136-371.5l-1.2 6.6-6.6-1.2c-.9-.2-1.8.4-2 1.4-.2.9.4 1.8 1.4 2l6.6 1.2-1.2 6.6c-.2.9.4 1.8 1.4 2 .9.2 1.8-.4 2-1.4l1.2-6.6 6.6 1.2c.9.2 1.8-.4 2-1.4.2-.9-.4-1.8-1.4-2l-6.6-1.2 1.2-6.6c.2-.9-.4-1.8-1.4-2-.9-.2-1.8.4-2 1.4zM36.7 207.9l-3.8 2.6-2.6-3.8c-.4-.5-1.1-.7-1.6-.3s-.7 1.1-.3 1.6l2.6 3.8-3.8 2.6c-.5.4-.7 1.1-.3 1.6.4.5 1.1.7 1.6.3l3.8-2.6 2.6 3.8c.4.5 1.1.7 1.6.3s.7-1.1.3-1.6l-2.6-3.8 3.8-2.6c.5-.4.7-1.1.3-1.6-.3-.5-1-.6-1.6-.3zm34.2 81l-3.8 2.6-2.6-3.8c-.4-.5-1.1-.7-1.6-.3-.5.4-.7 1.1-.3 1.6l2.6 3.8-3.8 2.6c-.5.4-.7 1.1-.3 1.6s1.1.7 1.6.3l3.8-2.6 2.6 3.8c.4.5 1.1.7 1.6.3.5-.4.7-1.1.3-1.6l-2.6-3.8 3.8-2.6c.5-.4.7-1.1.3-1.6-.3-.5-1-.6-1.6-.3zm39-278l-4.7-9.1 9.1-4.7c1.3-.7 1.8-2.2 1.1-3.5-.7-1.3-2.2-1.8-3.5-1.1l-9.1 4.7-4.8-9.1c-.7-1.3-2.2-1.8-3.5-1.1s-1.8 2.2-1.1 3.5l4.7 9.1L89 4.3c-1.3.7-1.8 2.2-1.1 3.5.7 1.3 2.2 1.8 3.5 1.1l9.1-4.7 4.7 9.1c.7 1.3 2.2 1.8 3.5 1.1 1.4-.6 1.9-2.2 1.2-3.5zM473.2 436.2c-6.6 0-12 5.4-12 12s5.4 12 12 12 12-5.4 12-12-5.3-12-12-12zm0 21.3c-5.1 0-9.2-4.1-9.2-9.2s4.1-9.2 9.2-9.2 9.2 4.1 9.2 9.2c.1 5.1-4.1 9.2-9.2 9.2zm89.1-365.6c-4.3 0-7.9 3.5-7.9 7.9 0 4.3 3.5 7.9 7.9 7.9 4.3 0 7.9-3.5 7.9-7.9s-3.5-7.9-7.9-7.9zm0 13.9c-3.3 0-6-2.7-6-6s2.7-6 6-6 6 2.7 6 6c.1 3.3-2.6 6-6 6zM210.5 53.2c-6.7 0-12.2 5.5-12.2 12.2s5.5 12.2 12.2 12.2 12.2-5.5 12.2-12.2-5.5-12.2-12.2-12.2zm0 21.6c-5.2 0-9.4-4.2-9.4-9.4s4.2-9.4 9.4-9.4 9.4 4.2 9.4 9.4-4.2 9.4-9.4 9.4zm-23.4 331c-2.9 0-5.3 2.4-5.3 5.3s2.4 5.3 5.3 5.3 5.3-2.4 5.3-5.3-2.4-5.3-5.3-5.3zm0 9.3c-2.2 0-4-1.8-4-4s1.8-4 4-4 4 1.8 4 4-1.8 4-4 4zm48.5 37.3c-4.5 0-8.2 3.7-8.2 8.2s3.7 8.2 8.2 8.2 8.2-3.7 8.2-8.2-3.7-8.2-8.2-8.2zm0 14.5c-3.5 0-6.3-2.8-6.3-6.3s2.8-6.3 6.3-6.3 6.3 2.8 6.3 6.3-2.8 6.3-6.3 6.3zM393 430.1c-2 0-3.5 1.6-3.5 3.5 0 2 1.6 3.5 3.5 3.5s3.5-1.6 3.5-3.5c.1-2-1.5-3.5-3.5-3.5zm0 6.2c-1.5 0-2.7-1.2-2.7-2.7s1.2-2.7 2.7-2.7 2.7 1.2 2.7 2.7c.1 1.5-1.2 2.7-2.7 2.7zm-65.6-324.9c-2 0-3.5 1.6-3.5 3.5 0 2 1.6 3.5 3.5 3.5 2 0 3.5-1.6 3.5-3.5.1-2-1.5-3.5-3.5-3.5zm0 6.2c-1.5 0-2.7-1.2-2.7-2.7s1.2-2.7 2.7-2.7 2.7 1.2 2.7 2.7-1.2 2.7-2.7 2.7zM79.8 225c-2.9 0-5.3 2.4-5.3 5.3s2.4 5.3 5.3 5.3 5.3-2.4 5.3-5.3-2.4-5.3-5.3-5.3zm0 9.3c-2.2 0-4-1.8-4-4s1.8-4 4-4 4 1.8 4 4-1.8 4-4 4zM331 195.9c-5.7 0-10.4 4.6-10.4 10.4 0 5.7 4.6 10.4 10.4 10.4 5.7 0 10.4-4.6 10.4-10.4 0-5.8-4.7-10.4-10.4-10.4zm0 18.3c-4.4 0-8-3.6-8-8s3.6-8 8-8 8 3.6 8 8c-.1 4.5-3.6 8-8 8zm183.2-53.9l-3.8 2.6-2.6-3.8c-.4-.5-1.1-.7-1.6-.3s-.7 1.1-.3 1.6l2.6 3.8-3.8 2.6c-.5.4-.7 1.1-.3 1.6.4.5 1.1.7 1.6.3l3.8-2.6 2.6 3.8c.4.5 1.1.7 1.6.3s.7-1.1.3-1.6l-2.6-3.8 3.8-2.6c.5-.4.7-1.1.3-1.6-.3-.5-1.1-.6-1.6-.3zM50 117.6l-3.8 2.6-2.6-3.8c-.4-.5-1.1-.7-1.6-.3-.5.4-.7 1.1-.3 1.6l2.6 3.8-3.8 2.6c-.5.4-.7 1.1-.3 1.6s1.1.7 1.6.3l3.8-2.6 2.6 3.8c.4.5 1.1.7 1.6.3.5-.4.7-1.1.3-1.6l-2.6-3.8 3.8-2.6c.5-.4.7-1.1.3-1.6s-1.1-.7-1.6-.3zM440.6 344l-3.8 2.6-2.6-3.8c-.4-.5-1.1-.7-1.6-.3-.5.4-.7 1.1-.3 1.6l2.6 3.8-3.8 2.6c-.5.4-.7 1.1-.3 1.6.4.5 1.1.7 1.6.3l3.8-2.6 2.6 3.8c.4.5 1.1.7 1.6.3.5-.4.7-1.1.3-1.6l-2.6-3.8 3.8-2.6c.5-.4.7-1.1.3-1.6-.4-.6-1.1-.7-1.6-.3zm125.8 137.4l-3.8 2.6-2.6-3.8c-.4-.5-1.1-.7-1.6-.3-.5.4-.7 1.1-.3 1.6l2.6 3.8-3.8 2.6c-.5.4-.7 1.1-.3 1.6s1.1.7 1.6.3l3.8-2.6 2.6 3.8c.4.5 1.1.7 1.6.3.5-.4.7-1.1.3-1.6L564 486l3.8-2.6c.5-.4.7-1.1.3-1.6-.4-.6-1.2-.7-1.7-.4zm-136-371.5l-1.2 6.6-6.6-1.2c-.9-.2-1.8.4-2 1.4-.2.9.4 1.8 1.4 2l6.6 1.2-1.2 6.6c-.2.9.4 1.8 1.4 2 .9.2 1.8-.4 2-1.4l1.2-6.6 6.6 1.2c.9.2 1.8-.4 2-1.4.2-.9-.4-1.8-1.4-2l-6.6-1.2 1.2-6.6c.2-.9-.4-1.8-1.4-2-.9-.2-1.8.4-2 1.4zM36.7 385l-3.8 2.6-2.6-3.8c-.4-.5-1.1-.7-1.6-.3-.5.4-.7 1.1-.3 1.6L31 389l-3.8 2.6c-.5.4-.7 1.1-.3 1.6.4.5 1.1.7 1.6.3l3.8-2.6 2.6 3.8c.4.5 1.1.7 1.6.3.5-.4.7-1.1.3-1.6l-2.6-3.8L38 387c.5-.4.7-1.1.3-1.6-.3-.6-1-.7-1.6-.4zm34.2 81l-3.8 2.6-2.6-3.8c-.4-.5-1.1-.7-1.6-.3-.5.4-.7 1.1-.3 1.6l2.6 3.8-3.8 2.6c-.5.4-.7 1.1-.3 1.6s1.1.7 1.6.3l3.8-2.6 2.6 3.8c.4.5 1.1.7 1.6.3.5-.4.7-1.1.3-1.6l-2.6-3.8 3.8-2.6c.5-.4.7-1.1.3-1.6-.3-.5-1-.7-1.6-.3zm130.5-121.4l-8.4 5.9-5.9-8.4c-.8-1.2-2.4-1.5-3.6-.7-1.2.8-1.5 2.4-.7 3.6l5.9 8.4-8.4 5.9c-1.2.8-1.5 2.4-.7 3.6s2.4 1.5 3.6.7l8.4-5.9 5.9 8.4c.8 1.2 2.4 1.5 3.6.7 1.2-.8 1.5-2.4.7-3.6l-5.9-8.4 8.4-5.9c1.2-.8 1.5-2.4.7-3.6s-2.4-1.5-3.6-.7z"/></g></g><path class="st4" d="M540.2 216.1c0 8.6-7 15.7-15.7 15.7H338.8c-8.6 0-15.7-7-15.7-15.7v-91.5c0-8.6 7-15.7 15.7-15.7h185.7c8.6 0 15.7 7 15.7 15.7v91.5z"/><path class="st4" d="M431.7 170.1l108.5-45.8c0-.5-.3-13.7-14.6-15.6H337.1s-13.3 1.1-14 15.4l108.6 46c-.1 0 0 0 0 0z"/><circle class="st4" cx="535.5" cy="115.5" r="21.1"/><path class="st4" d="M534.3 127.5v-19.2h-2.8v-4.9h8.1v24l-5.3.1z"/><g><path class="st5" d="M535.4 212.2c0 8.6-7 15.7-15.7 15.7H334.1c-8.6 0-15.7-7-15.7-15.7v-91.5c0-8.6 7-15.7 15.7-15.7h185.7c8.6 0 15.7 7 15.7 15.7l-.1 91.5z"/><path class="st5" d="M425.9 171.2l-.9-.4-111.8-47.3.2-3.5c.8-14.6 12.5-19.5 18.6-20.1h189.5c14.8 1.9 18.9 14.2 18.9 20.5v3.7l-3.3 1.1-109.2 46.1-2-.1z"/><path class="st0" d="M332.4 104.8h188.5c14.3 1.8 14.6 15.1 14.6 15.6L427 166.2l-108.5-46c.6-14.3 13.8-15.4 13.9-15.4m188.4-10H331.6c-7.6.7-22.2 6.7-23.2 24.8-.2 4.2 2.2 8.2 6.1 9.8l108.5 46 1.9.8h4l1.9-.8L539 129.7l6.5-2.3-.1-7.2c-.1-7.7-5-22.9-23.1-25.3l-.6-.1h-.9z"/><ellipse transform="rotate(-76.714 530.842 111.593)" class="st6" cx="530.8" cy="111.6" rx="21.1" ry="21.1"/><path class="st3" d="M529.6 123.6c-.1 0-.1 0 0 0v-19.2h-2.8v-4.9h8.1v24h-5.3v.1z"/></g></svg>