<svg id="Layer_1" xmlns="https://www.w3.org/2000/svg" viewBox="0 0 332 79"><style>.st0{fill:#FFF}</style><path class="st0" d="M5.35 72.98c0 2.01 1.42 3.74 4.27 3.74 2.74 0 4.16-1.82 4.16-3.83V.73h4.93v70.43c0 4.2-2.19 7.57-9.09 7.57s-9.2-3.56-9.2-7.85V.73h4.93v72.25zM47.17 53.28v17.61c0 4.29-2.19 7.85-9.09 7.85s-9.42-3.38-9.42-7.57V9.67c0-4.74.66-9.4 9.42-9.4 8.54 0 9.09 4.65 9.09 9.31v14.6h-4.93V7.11c0-2.28-.22-4.93-4.16-5.02-3.83 0-4.49 2.65-4.49 5.02v65.78c0 2.01 1.75 3.83 4.49 3.83 2.85-.09 4.16-1.73 4.16-3.74v-19.7h4.93zM81.21 78.73c-8.76 0-9.42-4.65-9.42-9.4V53.28h4.82V71.8c0 2.46.77 5.11 4.49 5.11 4.05-.09 4.27-2.83 4.27-5.11V54.92c0-2.55-.55-4.01-1.2-6.48-.99-3.74-2.19-5.75-4.05-9.21l-4.82-9.22c-1.64-3.01-2.19-4.93-2.85-8.21-.66-3.19-.66-5.2-.66-8.48V9.58c0-4.65.66-9.31 9.2-9.31 8.76 0 9.31 4.74 9.31 9.4v14.32h-4.93V7.11c0-2.37-.55-5.02-4.27-5.02-4.05.09-4.49 2.74-4.49 5.02v5.02c0 3.28.11 5.38.77 8.76.66 3.01 1.31 4.84 2.85 7.75l4.6 8.76c.98 2.1 2.74 5.02 3.72 8.3 1.09 3.47 1.75 5.02 1.75 9.03v14.69c0 4.66-.55 9.22-9.09 9.31zM118.87 78.18h-4.82V38.41h-8.65v39.78h-4.93V9.67c0-4.74.66-9.4 9.42-9.4 8.54 0 8.98 4.65 8.98 9.31v68.6zm-4.82-42.88V7.11c0-2.28-.22-4.93-4.27-5.02-3.72 0-4.38 2.65-4.38 5.02V35.3h8.65zM143.07 47.53V.64h4.82v77.55h-4.82V63.4l-8.76-41.6v56.38h-4.82V.64h4.38l9.2 46.89zM175.25 3.56h-7.23v74.63h-4.92V3.56h-7.01V.73h19.16v2.83zM201.96 78.18h-4.81V38.41h-8.65v39.78h-4.93V9.67c0-4.74.66-9.4 9.41-9.4 8.54 0 8.98 4.65 8.98 9.31v68.6zm-4.81-42.88V7.11c0-2.28-.22-4.93-4.27-5.02-3.72 0-4.38 2.65-4.38 5.02V35.3h8.65zM245.86 53.28v17.61c0 4.29-2.19 7.85-9.09 7.85s-9.42-3.38-9.42-7.57V9.67c0-4.74.66-9.4 9.42-9.4 8.54 0 9.09 4.65 9.09 9.31v14.6h-4.93V7.11c0-2.28-.22-4.93-4.16-5.02-3.83 0-4.49 2.65-4.49 5.02v65.78c0 2.01 1.75 3.83 4.49 3.83 2.85-.09 4.16-1.73 4.16-3.74v-19.7h4.93zM270.27 78.18V45.34c0-2.28-.33-4.65-1.86-5.66-1.53-1.09-2.63-1.37-4.49-1.37h-2.19v39.87h-4.93V.82H265.56c1.31 0 4.93.18 7.23 1.92 2.41 1.73 2.41 4.11 2.41 6.84v20.71c0 1.46-.22 2.46-1.2 3.74-1.1 1.46-3.83 2.83-4.05 2.92.22.09 2.41 1.28 3.39 2.46 1.75 1.82 1.86 3.65 1.86 5.75v33.03h-4.93zM268.3 3.65c-.88-.36-2.19-.73-3.61-.73h-2.96v33.21h2.3c2.08 0 4.16-.91 5.04-2.01.76-.82 1.21-3.28 1.21-5.38V8.03c-.01-2.19-.34-3.65-1.98-4.38zM290.09 72.98c0 2.01 1.42 3.74 4.27 3.74 2.74 0 4.16-1.82 4.16-3.83V.73h4.92v70.43c0 4.2-2.19 7.57-9.08 7.57-6.9 0-9.2-3.56-9.2-7.85V.73h4.93v72.25zM324.9 3.56h-10.62V.64h16.64l-11.5 74.35h12.15v3.19H313.4l11.5-74.62z"/></svg>