<svg id="Layer_1" xmlns="http://www.w3.org/2000/svg" viewBox="0 0 226.1 149.6"><style>.st0{fill:#FFF}</style><path class="st0" d="M6.5 18.2c0 1.2-.1 4.9 4.7 4.9 3 0 4.9-1.4 4.9-3.6 0-2.3-1.6-2.7-4.9-3.5-6.2-1.5-9.6-3.4-9.6-7.9C1.6 3.8 4.7 0 11.9 0c2.7 0 5.9.6 7.8 3.1 1.5 1.9 1.5 4 1.5 4.8h-5.4c-.1-.9-.4-4-4.2-4-2.6 0-4.3 1.4-4.3 3.5 0 2.4 1.9 2.8 5.7 3.8 4.5 1.1 8.9 2.3 8.9 7.4 0 4.7-3.9 8.5-11.1 8.5-10 0-10-6.4-10.1-8.9h5.8zM31.8.6v15.8c0 2.8.2 6.4 5.7 6.4.9 0 3.6 0 5-2.3.5-.8.8-1.8.8-4.4V.6h5.4v16.2c0 7.7-6.2 10.2-11.4 10.2-2.6 0-7.3-.6-9.8-4.5-1.3-2-1.3-4-1.3-6.4V.6h5.6zM54 .5h9.7c1.5 0 4.4 0 6.4 1.2 2.4 1.5 2.9 4 2.9 5.5 0 1-.2 2.7-1.5 3.9-.2.2-1.4 1.4-3 1.8v.1c4 .7 5.5 3.6 5.5 6.3 0 3.1-1.8 5.1-3.8 6.1s-5.5 1-6.6 1h-9.7L54 .5zm5.4 10.6h3.9c1.6 0 4.5 0 4.5-3.3 0-3.2-2.7-3.2-4.6-3.2h-3.8v6.5zm0 11.3h3.7c2.6 0 5.4 0 5.4-3.5 0-3.7-3.3-3.7-6-3.7h-3.2l.1 7.2zm23.1-4.2c0 1.2-.1 4.9 4.7 4.9 3 0 4.9-1.4 4.9-3.6 0-2.3-1.6-2.7-4.9-3.5-6.2-1.5-9.6-3.4-9.6-7.9 0-4.3 3.1-8.1 10.3-8.1 2.7 0 5.9.6 7.8 3.1 1.5 1.9 1.5 4 1.5 4.8h-5.4c-.1-.9-.4-4-4.2-4-2.6 0-4.3 1.4-4.3 3.5 0 2.4 1.9 2.8 5.7 3.8 4.5 1.1 8.9 2.3 8.9 7.4 0 4.7-3.9 8.5-11.1 8.5-10 0-10-6.4-10.1-8.9h5.8zM116.7 9c-.1-.9-.4-4.6-4.2-4.6-4.1 0-5.9 4.3-5.9 9.7 0 1.5 0 8.9 5.4 8.9 2.3 0 4.6-1.5 4.7-4.9h5.9c-.1 1.5-.3 4-2.3 6.1-2.3 2.4-5.2 2.9-7.6 2.9-9 0-11.9-6.6-11.9-13.1 0-8.2 4.6-13.7 11.9-13.7 5.7 0 9.7 3.5 9.7 8.6l-5.7.1zm9.1-8.5h10c2.9 0 5.8 0 7.9 1.8 1.6 1.4 2.3 3.3 2.3 5 0 4.9-4.2 6-5.4 6.4 3.9.4 4.2 2.6 4.7 6 .4 3.1.6 4.3.8 5 .3 1.2.5 1.4.8 1.9h-6.2c-.3-1.4-1-8-1.4-9-.5-1.5-1.9-1.5-2.8-1.5h-4.9v10.5h-5.7V.5h-.1zm5.5 11.4h4.5c.6 0 1.9 0 2.8-.7.4-.3 1.4-1.2 1.4-3s-.9-2.6-1.4-2.9c-.9-.6-1.9-.6-3.7-.6h-3.7l.1 7.2zM149.8.4h5.6v26.1h-5.6V.4zm10.3.1h9.7c1.5 0 4.4 0 6.4 1.2 2.4 1.5 2.9 4 2.9 5.5 0 1-.2 2.7-1.5 3.9-.2.2-1.4 1.4-3 1.8v.1c4 .7 5.5 3.6 5.5 6.3 0 3.1-1.8 5.1-3.8 6.1s-5.5 1-6.6 1h-9.6V.5zm5.3 10.6h3.9c1.6 0 4.5 0 4.5-3.3 0-3.2-2.7-3.2-4.6-3.2h-3.8v6.5zm0 11.3h3.8c2.6 0 5.4 0 5.4-3.5 0-3.7-3.3-3.7-6-3.7h-3.2v7.2zM184.3.5h17.4v4.2h-11.8v6.2H201v4.2h-11.1v7h12.2v4.3h-17.8V.5zM6 43.2H0v-3.4h16.4v3.4h-6v16.9H6V43.2zm20.5-3.7c2.2 0 5.1.5 7.1 2.7 2.2 2.5 2.6 5.6 2.6 7.6 0 2.9-.9 6.1-2.5 7.9-2.2 2.5-5.5 2.9-7.2 2.9-2.7 0-5.3-.8-7.2-2.8-2.2-2.4-2.5-5.7-2.5-7.6-.1-5.3 2.4-10.7 9.7-10.7zm-3.7 16.3c.6.8 1.7 1.6 3.7 1.6 1.8 0 3-.6 3.8-1.9.7-1 1.4-2.6 1.4-5.8 0-1-.1-2.4-.5-3.6-.8-2.5-2.5-3.6-4.6-3.6-1.6 0-2.9.7-3.7 1.7-1.1 1.4-1.5 3.6-1.5 5.9-.1 2 .2 4.1 1.4 5.7zM56 39.5c2.2 0 5.1.5 7.1 2.7 2.2 2.5 2.6 5.6 2.6 7.6 0 2.9-.9 6.1-2.5 7.9-2.2 2.5-5.5 2.9-7.2 2.9-2.7 0-5.3-.8-7.2-2.8-2.2-2.4-2.5-5.7-2.5-7.6 0-5.3 2.4-10.7 9.7-10.7zm-3.6 16.3c.6.8 1.7 1.6 3.7 1.6 1.8 0 3-.6 3.8-1.9.7-1 1.4-2.6 1.4-5.8 0-1-.1-2.4-.5-3.6-.8-2.5-2.5-3.6-4.6-3.6-1.6 0-2.9.7-3.7 1.7-1.1 1.4-1.5 3.6-1.5 5.9-.2 2 .1 4.1 1.4 5.7zm20.9-15.9v12.4c0 2.2.2 5 4.4 5 .7 0 2.8 0 3.9-1.8.4-.6.6-1.4.6-3.4V39.9h4.2v12.6c0 6-4.8 8-8.9 8-2 0-5.7-.4-7.6-3.5-1-1.5-1-3.1-1-5V39.9h4.4zm17.1 0h7.8c2.2 0 4.5 0 6.1 1.4 1.3 1.1 1.8 2.6 1.8 3.9 0 3.8-3.2 4.7-4.2 5 3.1.3 3.3 2 3.6 4.6.3 2.4.5 3.4.6 3.9.2.9.4 1.1.6 1.5h-4.8c-.2-1.1-.8-6.2-1.1-7-.4-1.1-1.5-1.1-2.2-1.1h-3.8v8.2h-4.4V39.9zm4.3 8.8h3.5c.5 0 1.5 0 2.2-.6.3-.2 1.1-.9 1.1-2.4 0-1.4-.7-2-1.1-2.3-.7-.5-1.5-.5-2.9-.5h-2.9v5.8h.1zM2.6 79.3h18.1v3.4H6.6v9H20v3.4H6.6v9.6H21v3.5H2.6V79.3zm36.6 28.8h-4.4L24.6 79.3H29l8.2 24.7 8.6-24.7h4l-10.6 28.8zm14.5-28.8h18.1v3.4H57.7v9h13.4v3.4H57.7v9.6h14.4v3.5H53.7V79.3zm25.2 0h5.6l14.2 23.9V79.3h3.7v28.9h-5.1L82.6 83.7v24.5H79V79.3h-.1zm36.9 28.8V82.6h-9.7v-3.3h23.3v3.4h-9.7v25.5l-3.9-.1zm20.3-8.4c.1 2 .3 5.7 7 5.7 6 0 6.8-3.7 6.8-5.2 0-3.2-2.6-3.9-6.6-4.9-4.4-1.1-6.4-1.6-7.8-2.6-2.4-1.6-3-3.8-3-5.7 0-5.9 5.6-8.4 11-8.4 1.9 0 5.8.3 8.1 2.8 1.6 1.8 1.7 3.7 1.8 4.9h-4.2c-.2-3.6-3.2-4.4-6.1-4.4-4 0-6.4 1.8-6.4 4.7 0 2.6 1.7 3.4 5.2 4.3 6.9 1.8 7.6 1.9 9.3 3 2.7 1.8 2.9 4.6 2.9 5.8 0 5.1-4 9-11.4 9-2.2 0-6.7-.4-9-3.3-1.6-2.1-1.7-4.4-1.7-5.8l4.1.1zM2.8 124.4h4.7l12.1 20.3v-20.3h3.1v24.5h-4.4L5.8 128.1v20.8H2.7v-24.5h.1zm25.8 0H44v2.9H32v7.6h11.4v2.9H32v8.2h12.3v3H28.6v-24.6zm22.1 0l5.3 20.2 5.8-20.2h4.3l5.5 20.4 5.6-20.4h3.3l-7.3 24.5h-3.8l-5.7-21-6.1 21h-3.7l-7-24.5h3.8zm35.5 17.4c.1 1.7.3 4.9 5.9 4.9 5.1 0 5.7-3.2 5.7-4.4 0-2.8-2.2-3.3-5.6-4.1-3.7-.9-5.4-1.3-6.7-2.2-2-1.4-2.5-3.2-2.5-4.8 0-5 4.7-7.2 9.3-7.2 1.6 0 4.9.3 6.9 2.4 1.4 1.5 1.4 3.2 1.5 4.2h-3.5c-.2-3.1-2.8-3.7-5.2-3.7-3.4 0-5.4 1.5-5.4 4 0 2.2 1.4 2.9 4.4 3.6 5.8 1.5 6.5 1.6 7.9 2.6 2.3 1.5 2.4 3.9 2.4 4.9 0 4.4-3.4 7.6-9.7 7.6-1.9 0-5.7-.3-7.6-2.8-1.4-1.8-1.4-3.8-1.4-5h3.6zm20.4-17.4h3.4v21.5h11.4v3h-14.8v-24.5zm18.4 0h15.4v2.9h-12v7.6h11.4v2.9h-11.4v8.2h12.3v3H125v-24.6zm27.1 24.5v-21.6h-8.2v-2.9h19.8v2.9h-8.2V149l-3.4-.1zm20.8 0v-21.6h-8.2v-2.9h19.8v2.9h-8.2V149l-3.4-.1zm14.4-24.5h15.4v2.9h-12v7.6h11.4v2.9h-11.4v8.2H203v3h-15.7v-24.6zm21.1 0h8.8c1.3 0 3.8 0 5.6 1.2s2.7 3 2.7 5c0 1.7-.6 3.3-1.7 4.4-1.1 1.1-2.1 1.4-2.9 1.6 2.3.6 3.4 1.7 3.7 4.7.3 2.9.6 5 1.5 7.7h-3.6c-.5-1.6-.9-4.6-1.1-6.5-.4-3.6-1.3-4.6-5.4-4.6h-4.3V149h-3.4l.1-24.6zm3.3 10.6h5.4c.4 0 2.3 0 3.2-.5.5-.3 1.7-1.2 1.7-3.2 0-4-3.5-4-4.9-4h-5.4v7.7z"/></svg>